<?xml version="1.0" encoding="UTF-8"?>
<svg xmlns="http://www.w3.org/2000/svg" viewBox="0 0 1000 600" width="1000" height="600">
  <!-- Mapa de México Enhanced con datos de entidad -->
  
  <!-- Aguascalientes -->
  <path id="MX-AGU" 
        class="mx-state" 
        data-entidad-id="1" 
        data-entidad-nombre="Aguascalientes"
        fill="#8cc8ff" 
        stroke="#666" 
        stroke-width="1"
        d="M250,300 L270,300 L270,320 L250,320 Z"/>
  
  <!-- Baja California -->
  <path id="MX-BCN" 
        class="mx-state" 
        data-entidad-id="2" 
        data-entidad-nombre="Baja California"
        fill="#8cc8ff" 
        stroke="#666" 
        stroke-width="1"
        d="M50,100 L120,100 L120,250 L50,250 Z"/>
  
  <!-- Baja California Sur -->
  <path id="MX-BCS" 
        class="mx-state" 
        data-entidad-id="3" 
        data-entidad-nombre="Baja California Sur"
        fill="#8cc8ff" 
        stroke="#666" 
        stroke-width="1"
        d="M80,260 L140,260 L140,380 L80,380 Z"/>
  
  <!-- Campeche -->
  <path id="MX-CAM" 
        class="mx-state" 
        data-entidad-id="4" 
        data-entidad-nombre="Campeche"
        fill="#8cc8ff" 
        stroke="#666" 
        stroke-width="1"
        d="M680,450 L750,450 L750,520 L680,520 Z"/>
  
  <!-- Chiapas -->
  <path id="MX-CHP" 
        class="mx-state" 
        data-entidad-id="7" 
        data-entidad-nombre="Chiapas"
        fill="#8cc8ff" 
        stroke="#666" 
        stroke-width="1"
        d="M720,520 L820,520 L820,580 L720,580 Z"/>
  
  <!-- Chihuahua -->
  <path id="MX-CHH" 
        class="mx-state" 
        data-entidad-id="8" 
        data-entidad-nombre="Chihuahua"
        fill="#8cc8ff" 
        stroke="#666" 
        stroke-width="1"
        d="M150,150 L280,150 L280,280 L150,280 Z"/>
  
  <!-- Ciudad de México -->
  <path id="MX-DIF" 
        class="mx-state" 
        data-entidad-id="9" 
        data-entidad-nombre="Ciudad de México"
        fill="#8cc8ff" 
        stroke="#666" 
        stroke-width="1"
        d="M480,380 L500,380 L500,400 L480,400 Z"/>
  
  <!-- Coahuila -->
  <path id="MX-COA" 
        class="mx-state" 
        data-entidad-id="5" 
        data-entidad-nombre="Coahuila"
        fill="#8cc8ff" 
        stroke="#666" 
        stroke-width="1"
        d="M300,180 L420,180 L420,280 L300,280 Z"/>
  
  <!-- Colima -->
  <path id="MX-COL" 
        class="mx-state" 
        data-entidad-id="6" 
        data-entidad-nombre="Colima"
        fill="#8cc8ff" 
        stroke="#666" 
        stroke-width="1"
        d="M320,420 L350,420 L350,450 L320,450 Z"/>
  
  <!-- Durango -->
  <path id="MX-DUR" 
        class="mx-state" 
        data-entidad-id="10" 
        data-entidad-nombre="Durango"
        fill="#8cc8ff" 
        stroke="#666" 
        stroke-width="1"
        d="M250,250 L350,250 L350,350 L250,350 Z"/>
  
  <!-- Guanajuato -->
  <path id="MX-GUA" 
        class="mx-state" 
        data-entidad-id="11" 
        data-entidad-nombre="Guanajuato"
        fill="#8cc8ff" 
        stroke="#666" 
        stroke-width="1"
        d="M380,330 L430,330 L430,380 L380,380 Z"/>
  
  <!-- Guerrero -->
  <path id="MX-GRO" 
        class="mx-state" 
        data-entidad-id="12" 
        data-entidad-nombre="Guerrero"
        fill="#8cc8ff" 
        stroke="#666" 
        stroke-width="1"
        d="M420,420 L520,420 L520,480 L420,480 Z"/>
  
  <!-- Hidalgo -->
  <path id="MX-HID" 
        class="mx-state" 
        data-entidad-id="13" 
        data-entidad-nombre="Hidalgo"
        fill="#8cc8ff" 
        stroke="#666" 
        stroke-width="1"
        d="M480,340 L520,340 L520,380 L480,380 Z"/>
  
  <!-- Jalisco -->
  <path id="MX-JAL" 
        class="mx-state" 
        data-entidad-id="14" 
        data-entidad-nombre="Jalisco"
        fill="#8cc8ff" 
        stroke="#666" 
        stroke-width="1"
        d="M320,350 L400,350 L400,420 L320,420 Z"/>
  
  <!-- Estado de México -->
  <path id="MX-MEX" 
        class="mx-state" 
        data-entidad-id="15" 
        data-entidad-nombre="Estado de México"
        fill="#8cc8ff" 
        stroke="#666" 
        stroke-width="1"
        d="M460,370 L520,370 L520,420 L460,420 Z"/>
  
  <!-- Michoacán -->
  <path id="MX-MIC" 
        class="mx-state" 
        data-entidad-id="16" 
        data-entidad-nombre="Michoacán"
        fill="#8cc8ff" 
        stroke="#666" 
        stroke-width="1"
        d="M360,400 L440,400 L440,460 L360,460 Z"/>
  
  <!-- Morelos -->
  <path id="MX-MOR" 
        class="mx-state" 
        data-entidad-id="17" 
        data-entidad-nombre="Morelos"
        fill="#8cc8ff" 
        stroke="#666" 
        stroke-width="1"
        d="M480,400 L510,400 L510,430 L480,430 Z"/>
  
  <!-- Nayarit -->
  <path id="MX-NAY" 
        class="mx-state" 
        data-entidad-id="18" 
        data-entidad-nombre="Nayarit"
        fill="#8cc8ff" 
        stroke="#666" 
        stroke-width="1"
        d="M280,320 L330,320 L330,380 L280,380 Z"/>
  
  <!-- Nuevo León -->
  <path id="MX-NLE" 
        class="mx-state" 
        data-entidad-id="19" 
        data-entidad-nombre="Nuevo León"
        fill="#8cc8ff" 
        stroke="#666" 
        stroke-width="1"
        d="M420,220 L480,220 L480,280 L420,280 Z"/>
  
  <!-- Oaxaca -->
  <path id="MX-OAX" 
        class="mx-state" 
        data-entidad-id="20" 
        data-entidad-nombre="Oaxaca"
        fill="#8cc8ff" 
        stroke="#666" 
        stroke-width="1"
        d="M520,440 L620,440 L620,520 L520,520 Z"/>
  
  <!-- Puebla -->
  <path id="MX-PUE" 
        class="mx-state" 
        data-entidad-id="21" 
        data-entidad-nombre="Puebla"
        fill="#8cc8ff" 
        stroke="#666" 
        stroke-width="1"
        d="M520,380 L580,380 L580,440 L520,440 Z"/>
  
  <!-- Querétaro -->
  <path id="MX-QUE" 
        class="mx-state" 
        data-entidad-id="22" 
        data-entidad-nombre="Querétaro"
        fill="#8cc8ff" 
        stroke="#666" 
        stroke-width="1"
        d="M450,320 L490,320 L490,360 L450,360 Z"/>
  
  <!-- Quintana Roo -->
  <path id="MX-ROO" 
        class="mx-state" 
        data-entidad-id="23" 
        data-entidad-nombre="Quintana Roo"
        fill="#8cc8ff" 
        stroke="#666" 
        stroke-width="1"
        d="M780,400 L820,400 L820,480 L780,480 Z"/>
  
  <!-- San Luis Potosí -->
  <path id="MX-SLP" 
        class="mx-state" 
        data-entidad-id="24" 
        data-entidad-nombre="San Luis Potosí"
        fill="#8cc8ff" 
        stroke="#666" 
        stroke-width="1"
        d="M420,280 L500,280 L500,340 L420,340 Z"/>
  
  <!-- Sinaloa -->
  <path id="MX-SIN" 
        class="mx-state" 
        data-entidad-id="25" 
        data-entidad-nombre="Sinaloa"
        fill="#8cc8ff" 
        stroke="#666" 
        stroke-width="1"
        d="M180,280 L250,280 L250,380 L180,380 Z"/>
  
  <!-- Sonora -->
  <path id="MX-SON" 
        class="mx-state" 
        data-entidad-id="26" 
        data-entidad-nombre="Sonora"
        fill="#8cc8ff" 
        stroke="#666" 
        stroke-width="1"
        d="M120,120 L220,120 L220,280 L120,280 Z"/>
  
  <!-- Tabasco -->
  <path id="MX-TAB" 
        class="mx-state" 
        data-entidad-id="27" 
        data-entidad-nombre="Tabasco"
        fill="#8cc8ff" 
        stroke="#666" 
        stroke-width="1"
        d="M680,480 L750,480 L750,520 L680,520 Z"/>
  
  <!-- Tamaulipas -->
  <path id="MX-TAM" 
        class="mx-state" 
        data-entidad-id="28" 
        data-entidad-nombre="Tamaulipas"
        fill="#8cc8ff" 
        stroke="#666" 
        stroke-width="1"
        d="M480,200 L580,200 L580,300 L480,300 Z"/>
  
  <!-- Tlaxcala -->
  <path id="MX-TLA" 
        class="mx-state" 
        data-entidad-id="29" 
        data-entidad-nombre="Tlaxcala"
        fill="#8cc8ff" 
        stroke="#666" 
        stroke-width="1"
        d="M520,360 L540,360 L540,380 L520,380 Z"/>
  
  <!-- Veracruz -->
  <path id="MX-VER" 
        class="mx-state" 
        data-entidad-id="30" 
        data-entidad-nombre="Veracruz"
        fill="#8cc8ff" 
        stroke="#666" 
        stroke-width="1"
        d="M580,300 L650,300 L650,450 L580,450 Z"/>
  
  <!-- Yucatán -->
  <path id="MX-YUC" 
        class="mx-state" 
        data-entidad-id="31" 
        data-entidad-nombre="Yucatán"
        fill="#8cc8ff" 
        stroke="#666" 
        stroke-width="1"
        d="M750,420 L820,420 L820,460 L750,460 Z"/>
  
  <!-- Zacatecas -->
  <path id="MX-ZAC" 
        class="mx-state" 
        data-entidad-id="32" 
        data-entidad-nombre="Zacatecas"
        fill="#8cc8ff" 
        stroke="#666" 
        stroke-width="1"
        d="M350,280 L420,280 L420,340 L350,340 Z"/>
  
  <!-- Leyenda -->
  <g id="legend" transform="translate(20,20)">
    <rect x="0" y="0" width="200" height="120" fill="white" stroke="#ccc" stroke-width="1" rx="5"/>
    <text x="10" y="20" font-family="Arial" font-size="14" font-weight="bold">Leyenda</text>
    
    <circle id="legendConcluido" cx="20" cy="40" r="8" fill="#4caf50"/>
    <text x="35" y="45" font-family="Arial" font-size="12">Concluido</text>
    
    <circle id="legendPruebas" cx="20" cy="60" r="8" fill="#f44336"/>
    <text x="35" y="65" font-family="Arial" font-size="12">En Proceso</text>
    
    <circle id="legendSinEjecutar" cx="20" cy="80" r="8" fill="#bdbdbd"/>
    <text x="35" y="85" font-family="Arial" font-size="12">Sin Ejecutar</text>
    
    <text x="10" y="105" font-family="Arial" font-size="10" fill="#666">Enhanced Version</text>
  </g>
  
  <!-- Estilos CSS embebidos -->
  <style>
    .mx-state {
      cursor: pointer;
      transition: all 0.3s ease;
    }
    .mx-state:hover {
      stroke: #2196f3;
      stroke-width: 2;
      filter: brightness(1.1);
    }
    .mx-state-disabled {
      opacity: 0.5;
      cursor: not-allowed;
    }
  </style>
</svg>
