<?xml version="1.0" encoding="utf-8"?>
<!-- Generator: Adobe Illustrator 25.4.1, SVG Export Plug-In . SVG Version: 6.00 Build 0)  -->
<svg version="1.1" id="Layer_1" xmlns="http://www.w3.org/2000/svg" xmlns:xlink="http://www.w3.org/1999/xlink" x="0px" y="0px"
	 viewBox="0 0 1225 604.8" style="enable-background:new 0 0 1225 604.8;" xml:space="preserve">
<style type="text/css">
	.st0{fill:#919191;}
	.st1{fill:#989898;}
	.st2{fill:#9E9E9E;}
	.st3{fill:#FFFFFF;filter:url(#Adobe_OpacityMaskFilter);}
	.st4{mask:url(#mask0_1_3457_00000118375534966397296750000009300481028404692626_);}
	.st5{fill:#FFFFFF;filter:url(#Adobe_OpacityMaskFilter_00000181065447977102758800000002268255596542889139_);}
	.st6{mask:url(#mask1_1_3457_00000060730919035395479550000004427591089573833633_);}
	.st7{fill:#B7B7B7;}
	.st8{fill:#C5C5C5;}
	.st9{fill:#838383;}
	.st10{fill:#D0D0D0;}
	.st11{fill:#979797;}
</style>
<path class="st0" d="M96.6,0l-0.1,26.9l-4.2,7.6l0.1-26.9L96.6,0z"/>
<path class="st0" d="M92.3,7.6l-0.1,26.9l-8.2,6.8l0.1-26.9L92.3,7.6z"/>
<path class="st0" d="M9.6,21.4L9.5,48.3L0,33.2L0.1,6.3L9.6,21.4z"/>
<path class="st1" d="M88.4,27.6l-0.1,26.9l-4.2-13.1l0.1-26.9L88.4,27.6z"/>
<path class="st0" d="M88.4,27.6l-0.1,26.9L83,53.3L83,26.4L88.4,27.6z"/>
<path class="st0" d="M20.6,29.3l-0.1,26.9l-11-7.9l0.1-26.9L20.6,29.3z"/>
<path class="st1" d="M119.3,39.5l-0.1,26.9L88.3,54.5l0.1-26.9L119.3,39.5z"/>
<path class="st1" d="M138.4,40.8l-0.1,26.9l-19.1-1.2l0.1-26.9L138.4,40.8z"/>
<path class="st2" d="M359.3,47.6l-0.1,26.9l0-15.1l0.1-26.9L359.3,47.6z"/>
<path class="st1" d="M161.8,50.3l-0.1,26.9l-23.3-9.5l0.1-26.9L161.8,50.3z"/>
<path class="st0" d="M92.6,33L92.5,60l-1.4,22L91.1,55L92.6,33z"/>
<defs>
	<filter id="Adobe_OpacityMaskFilter" filterUnits="userSpaceOnUse" x="16.6" y="34.9" width="19.2" height="49.9">
		<feColorMatrix  type="matrix" values="1 0 0 0 0  0 1 0 0 0  0 0 1 0 0  0 0 0 1 0"/>
	</filter>
</defs>
<mask maskUnits="userSpaceOnUse" x="16.6" y="34.9" width="19.2" height="49.9" id="mask0_1_3457_00000118375534966397296750000009300481028404692626_">
	<path class="st3" d="M35.7,57.9l-0.1,26.9c-0.8-0.2-18.2-21.9-19.1-23l0.1-26.9C17.5,36.1,34.9,57.7,35.7,57.9z"/>
</mask>
<g class="st4">
	<path class="st0" d="M35.7,57.9l-0.1,26.9c-0.8-0.2-18.2-21.9-19.1-23l0.1-26.9C17.5,36.1,34.9,57.7,35.7,57.9z"/>
</g>
<path class="st1" d="M328.9,47.5l-0.1,26.9L326,91.4l0.1-26.9L328.9,47.5z"/>
<path class="st2" d="M344.3,75.4l-0.1,26.9L326,91.4l0.1-26.9L344.3,75.4z"/>
<defs>
	
		<filter id="Adobe_OpacityMaskFilter_00000021824337741294422280000011180040971653704339_" filterUnits="userSpaceOnUse" x="35.7" y="57.9" width="14.9" height="48.1">
		<feColorMatrix  type="matrix" values="1 0 0 0 0  0 1 0 0 0  0 0 1 0 0  0 0 0 1 0"/>
	</filter>
</defs>
<mask maskUnits="userSpaceOnUse" x="35.7" y="57.9" width="14.9" height="48.1" id="mask1_1_3457_00000060730919035395479550000004427591089573833633_">
	<path style="fill:#FFFFFF;filter:url(#Adobe_OpacityMaskFilter_00000021824337741294422280000011180040971653704339_);" d="
		M50.6,79.1L50.5,106c-0.7-1-14-21-14.9-21.2l0.1-26.9C36.6,58.1,49.9,78,50.6,79.1z"/>
</mask>
<g class="st6">
	<path class="st0" d="M50.6,79.1L50.5,106c-0.7-1-14-21-14.9-21.2l0.1-26.9C36.6,58.1,49.9,78,50.6,79.1z"/>
</g>
<path class="st1" d="M176.1,89.6l-0.1,26.9l-14.3-39.3l0.1-26.9L176.1,89.6z"/>
<path class="st0" d="M55.1,97L55,124L50.5,106l0.1-26.9L55.1,97z"/>
<path class="st1" d="M344.3,75.4l-0.1,26.9l-1.2,36.7l0.1-26.9L344.3,75.4z"/>
<path class="st1" d="M343.1,112l-0.1,26.9l-3.7,0.2l0.1-26.9L343.1,112z"/>
<path class="st0" d="M151,111.1l-0.1,26.9l-0.3,3.2l0.1-26.9L151,111.1z"/>
<path class="st0" d="M88,114.8l-0.1,26.9L55,124L55.1,97L88,114.8z"/>
<path class="st0" d="M148.7,116.9l-0.1,26.9l-7-6.9l0.1-26.9L148.7,116.9z"/>
<path class="st0" d="M160.3,124.2l-0.1,26.9l-11.5-7.3l0.1-26.9L160.3,124.2z"/>
<path class="st7" d="M160.3,124.2l-11.5-7.3l-7-6.9l1.4-4.2l7.9,5.2l-0.3,3.2l7.6,1l0.3,4l2,3L160.3,124.2z"/>
<path class="st0" d="M160.5,122.4l-0.1,26.9l-0.3,1.8l0.1-26.9L160.5,122.4z"/>
<path class="st1" d="M206.1,129.9l-0.1,26.9L176,116.5l0.1-26.9L206.1,129.9z"/>
<path class="st8" d="M187.8,119.2l6.5-1.8l3.9,7.2l-3.4,8.5l-10.7-4L187.8,119.2z"/>
<path class="st1" d="M198.2,124.6l-0.1,26.9l-3.4,8.5l0.1-26.9L198.2,124.6z"/>
<path class="st1" d="M194.9,133.1l-0.1,26.9l-10.7-4l0.1-26.9L194.9,133.1z"/>
<path class="st0" d="M118.6,136.4l-0.1,26.9l-30.6-21.6l0.1-26.9L118.6,136.4z"/>
<path class="st2" d="M346.2,147.9l-0.1,26.9l-6.7-35.7l0.1-26.9L346.2,147.9z"/>
<path class="st1" d="M346.2,147.9l-0.1,26.9l-26.4,2.6l0.1-26.9L346.2,147.9z"/>
<path class="st0" d="M123.1,150.7l-0.1,26.9l-4.5-14.3l0.1-26.9L123.1,150.7z"/>
<path class="st0" d="M175.7,157.8l-0.1,26.9l-58.2,0.1l0.1-26.9L175.7,157.8z"/>
<path class="st2" d="M348.9,191.6l-0.1,26.9l-29.2-41.1l0.1-26.9L348.9,191.6z"/>
<path class="st2" d="M557.2,125.1l-0.1,26.9l-26.5,36.2l0.1-26.9L557.2,125.1z"/>
<path class="st9" d="M544.5,202.8l-0.1,26.9l-13.7-41.5l0.1-26.9L544.5,202.8z"/>
<path class="st10" d="M427.9,32.6l7.6,3.2l17.4,11.9l36.3,22.6l18.5,32.1l49.5,22.6l-26.5,36.2l13.7,41.5l-12.9-4l-9.8,0.4
	l-14.9,13.5l-63.3-14l-20.9,34.6l-11.8,1.6l-16.6-14.1l-17.4-3.9l-9.5-21l-12.9-8.1l-5.4,3.8l-29.2-41.1l26.4-2.6l-6.7-35.7l3.7-0.2
	l1.2-36.6L326,64.4l2.8-16.9l30.4,0.1l0-15.1L427.9,32.6z"/>
<path class="st2" d="M354.3,187.8l-0.1,26.9l-5.3,3.8l0.1-26.9L354.3,187.8z"/>
<path class="st2" d="M367.2,195.8l-0.1,26.9l-12.9-8.1l0.1-26.9L367.2,195.8z"/>
<path class="st1" d="M348.9,191.6l-0.1,26.9l-1.7,5.9l0.1-26.9L348.9,191.6z"/>
<path class="st1" d="M317.7,208.5l-0.1,26.9l-10.7-7.9l0.1-26.9L317.7,208.5z"/>
<path class="st1" d="M347.3,197.4l-0.1,26.9L321,240l0.1-26.9L347.3,197.4z"/>
<path class="st1" d="M321.1,213.1L321,240l-3.4-4.6l0.1-26.9L321.1,213.1z"/>
<path class="st2" d="M376.8,216.8l-0.1,26.9l-9.5-21l0.1-26.9L376.8,216.8z"/>
<path class="st2" d="M394.2,220.7l-0.1,26.9l-17.4-3.9l0.1-26.9L394.2,220.7z"/>
<path class="st2" d="M410.8,234.8l-0.1,26.9l-16.6-14.1l0.1-26.9L410.8,234.8z"/>
<path class="st2" d="M422.6,233.2l-0.1,26.9l-11.8,1.6l0.1-26.9L422.6,233.2z"/>
<path class="st0" d="M410.8,234.8l-0.1,26.9l-6.8,15.3l0.1-26.9L410.8,234.8z"/>
<path class="st0" d="M363.2,250l-0.1,26.9l-17.7-4.7l0.1-26.9L363.2,250z"/>
<path class="st0" d="M367.7,260.7l-0.1,26.9l-7-4.8l0.1-26.9L367.7,260.7z"/>
<path class="st1" d="M425.6,276.1l-0.1,26.9l-21.6-26l0.1-26.9L425.6,276.1z"/>
<path class="st1" d="M447,279l-0.1,26.9l-21.4-2.9l0.1-26.9L447,279z"/>
<path class="st1" d="M461.3,309.8l-0.1,26.9L447,305.9L447,279L461.3,309.8z"/>
<path class="st1" d="M472.9,314.1l-0.1,26.9l-11.5-4.3l0.1-26.9L472.9,314.1z"/>
<path class="st0" d="M472.3,317.7l-0.1,26.9l-5.9,7.2l0.1-26.9L472.3,317.7z"/>
<path class="st2" d="M469.2,328.6l-0.1,26.9l-2.8-3.6l0.1-26.9L469.2,328.6z"/>
<path class="st2" d="M470,334.6l-0.1,26.9l-0.8-6l0.1-26.9L470,334.6z"/>
<path class="st7" d="M354.3,187.8l12.9,8.1l9.5,21l17.4,3.9l16.6,14.1l-6.8,15.3l21.6,26L447,279l14.3,30.8l11.5,4.3l-0.6,3.6
	l-5.9,7.2l2.8,3.6l0.8,6L465,333l-5.3,1l-47.5-42l-45-27.7l0.6-3.6l-7-4.8l2.5-5.8l-17.7-4.7l-13.8-7.1l-19.7-7.5l-2.2-10.3
	l11.3-7.4l26.2-15.7l1.7-5.8L354.3,187.8z"/>
<path class="st8" d="M319.7,150.4l29.2,41.1l-1.7,5.8l-26.2,15.7l-3.4-4.6l-10.7-7.9l-10.1,0l-9.5-11.7l-20.3-6.5l-3.1-18.9
	l-21.4-4.3l-36.5-29.3l-30.1-40.3l-14.3-39.3l-23.3-9.5l-19.1-1.3L88.4,27.6l-4.2-13.1l8.2-6.8l151.9,39.5l81.6,0.3l3.1,0L326,64.4
	l18.3,10.9l-1.2,36.6l-3.7,0.2l6.7,35.7L319.7,150.4z"/>
<path class="st10" d="M175.7,157.8l-58.2,0.1l5.6-7.2l-4.5-14.3L88,114.8L55.1,97l-4.5-17.9c-0.7-1-14-21-14.9-21.2
	c-0.8-0.2-18.2-21.9-19.1-23l3.9-5.6l-11-7.9L0.1,6.3L96.6,0l-4.2,7.6l-8.2,6.8l4.2,13.1L83,26.4l9.6,6.7l-1.4,22l7,15.9l1.4,17.5
	l37.7,25.8l7.9,13.9l9,3.4l7,5.9l9.8,6.1l1.4,7.9L175.7,157.8L175.7,157.8z"/>
<path class="st1" d="M242.6,159.2l-0.1,26.9l-36.5-29.3l0.1-26.9L242.6,159.2z"/>
<path class="st9" d="M119.7,160.6l-0.1,26.9l-4.8,0.6l0.1-26.9L119.7,160.6z"/>
<path class="st1" d="M264,163.4l-0.1,26.9l-21.4-4.3l0.1-26.9L264,163.4z"/>
<path class="st9" d="M128.1,166.6l-0.1,26.9l-9-3.2l0.1-26.9L128.1,166.6z"/>
<path class="st9" d="M682.3,165.6l-0.1,26.9l-5.9,4l0.1-26.9L682.3,165.6z"/>
<path class="st9" d="M698.4,166.4l-0.1,26.9l-6.8,4.4l0.1-26.9L698.4,166.4z"/>
<path class="st9" d="M691.6,170.8l-0.1,26.9l-9.3-5.3l0.1-26.9L691.6,170.8z"/>
<path class="st2" d="M702.6,170l-0.1,26.9l-8.2,4.8l0.1-26.9L702.6,170z"/>
<path class="st9" d="M101.7,175.1l-0.1,26.9l-17.7-10.3l0.1-26.9L101.7,175.1z"/>
<path class="st9" d="M700.6,176.9l-0.1,26.9l-6.2-2l0.1-26.9L700.6,176.9z"/>
<path class="st9" d="M676.4,169.6l-0.1,26.9l-5.4,10.7l0.1-26.9L676.4,169.6z"/>
<path class="st1" d="M267.1,182.4l-0.1,26.9l-3.1-18.9l0.1-26.9L267.1,182.4z"/>
<path class="st9" d="M108.1,182.5l-0.1,26.9l-6.5-7.5l0.1-26.9L108.1,182.5z"/>
<path class="st9" d="M671.1,180.3l-0.1,26.9l-13.2,4.8l0.1-26.9L671.1,180.3z"/>
<path class="st2" d="M658.4,189.5l-0.1,26.9l-0.5-4.4l0.1-26.9L658.4,189.5z"/>
<path class="st2" d="M668.2,189.7l-0.1,26.9l-9.9-0.2l0.1-26.9L668.2,189.7z"/>
<path class="st1" d="M287.3,188.9l-0.1,26.9l-20.3-6.5l0.1-26.9L287.3,188.9z"/>
<path class="st9" d="M704.8,192.2l-0.1,26.9l-4.2-15.3l0.1-26.9L704.8,192.2z"/>
<path class="st2" d="M669.1,197.4l-0.1,26.9l-0.8-7.7l0.1-26.9L669.1,197.4z"/>
<path class="st9" d="M215.9,198.2l-0.1,26.9l-2-4.2l0.1-26.9L215.9,198.2z"/>
<path class="st9" d="M160.4,197.1l-0.1,26.9l-4.8,1.2l0.1-26.9L160.4,197.1z"/>
<path class="st9" d="M155.7,198.3l-0.1,26.9l-8.7-1l0.1-26.9L155.7,198.3z"/>
<path class="st2" d="M531.5,198.8l-0.1,26.9l-9.8,0.4l0.1-26.9L531.5,198.8z"/>
<path class="st9" d="M141.3,199.3l-0.1,26.9l-33.2-16.8l0.1-26.9L141.3,199.3z"/>
<path class="st9" d="M146.9,197.3l-0.1,26.9l-5.6,2l0.1-26.9L146.9,197.3z"/>
<path class="st9" d="M706.2,200.7l-0.1,26.9l-1.4-8.5l0.1-26.9L706.2,200.7z"/>
<path class="st1" d="M296.9,200.6l-0.1,26.9l-9.5-11.7l0.1-26.9L296.9,200.6z"/>
<path class="st1" d="M296.9,200.6l-0.1,26.9l10.1,0l0.1-26.9L296.9,200.6z"/>
<path class="st9" d="M661.5,203l-0.1,26.9l-1.4-2.6l0.1-26.9L661.5,203z"/>
<path class="st9" d="M669.1,197.4l-0.1,26.9l-7.6,5.6l0.1-26.9L669.1,197.4z"/>
<path class="st2" d="M544.5,202.8l-0.1,26.9l-12.9-4l0.1-26.9L544.5,202.8z"/>
<path class="st9" d="M714.4,203.7l-0.1,26.9l-8.2-3l0.1-26.9L714.4,203.7z"/>
<path class="st9" d="M219.8,203.6l-0.1,26.9l-3.9-5.4l0.1-26.9L219.8,203.6z"/>
<path class="st9" d="M164.4,203.8l-0.1,26.9l-3.9-6.7l0.1-26.9L164.4,203.8z"/>
<path class="st2" d="M714.4,203.7l-0.1,26.9l-0.3,7.3l0.1-26.9L714.4,203.7z"/>
<path class="st9" d="M660.1,200.4l-0.1,26.9l-17.5,11.3l0.1-26.9L660.1,200.4z"/>
<path class="st9" d="M558.2,211.9l-0.1,26.9l-13.8-9.1l0.1-26.9L558.2,211.9z"/>
<path class="st2" d="M521.7,199.1l-0.1,26.9l-14.9,13.5l0.1-26.9L521.7,199.1z"/>
<path class="st2" d="M506.7,212.6l-0.1,26.9l-63.3-14l0.1-26.9L506.7,212.6z"/>
<path class="st9" d="M720.8,214.4l-0.1,26.9l-6.7-3.4l0.1-26.9L720.8,214.4z"/>
<path class="st9" d="M188.3,214.1l-0.1,26.9l-23.9-10.3l0.1-26.9L188.3,214.1z"/>
<path class="st9" d="M725.6,222l-0.1,26.9l-4.8-7.7l0.1-26.9L725.6,222z"/>
<path class="st9" d="M737.1,222.7l-0.1,26.9l-11.5-0.6l0.1-26.9L737.1,222.7z"/>
<path class="st9" d="M748.4,223.9l-0.1,26.9l-11.2-1.2l0.1-26.9L748.4,223.9z"/>
<path class="st2" d="M656.4,225.1l-0.1,26.9l-13.8-13.5l0.1-26.9L656.4,225.1z"/>
<path class="st9" d="M201.8,228.2l-0.1,26.9L188.2,241l0.1-26.9L201.8,228.2z"/>
<path class="st0" d="M312,230.8l-0.1,26.9l-2.2-10.3l0.1-26.9L312,230.8z"/>
<path class="st9" d="M806,225l-0.1,26.9l-1.7,9.1l0.1-26.9L806,225z"/>
<path class="st2" d="M443.5,198.6l-0.1,26.9l-20.9,34.6l0.1-26.9L443.5,198.6z"/>
<path class="st1" d="M558.2,211.9l-0.1,26.9l-2,21.8l0.1-26.9L558.2,211.9z"/>
<path class="st0" d="M331.7,238.3l-0.1,26.9l-19.7-7.5l0.1-26.9L331.7,238.3z"/>
<path class="st2" d="M664.2,240.1l-0.1,26.9l-7.9-14.9l0.1-26.9L664.2,240.1z"/>
<path class="st9" d="M748.4,240.8l-0.1,26.9l4.5,0l0.1-26.9L748.4,240.8z"/>
<path class="st9" d="M748.4,240.8l-0.1,26.9l0-16.9l0.1-26.9L748.4,240.8z"/>
<path class="st9" d="M752.8,242.8l-0.1,26.9l0-2l0.1-26.9L752.8,242.8z"/>
<path class="st0" d="M345.5,245.4l-0.1,26.9l-13.8-7.1l0.1-26.9L345.5,245.4z"/>
<path class="st2" d="M682.2,246.7l-0.1,26.9l-18-6.7l0.1-26.9L682.2,246.7z"/>
<path class="st1" d="M556.2,233.6l-0.1,26.9l-7.1,13.1l0.1-26.9L556.2,233.6z"/>
<path class="st9" d="M203.4,246.9l-0.1,26.9l-1.7-18.7l0.1-26.9L203.4,246.9z"/>
<path class="st9" d="M682.2,246.7l-0.1,26.9l-2,2.4l0.1-26.9L682.2,246.7z"/>
<path class="st9" d="M680.3,249.2l-0.1,26.9l-17.4,0.6l0.1-26.9L680.3,249.2z"/>
<path class="st9" d="M601.8,250.4l-0.1,26.9l-17.4,1.6l0.1-26.9L601.8,250.4z"/>
<path class="st9" d="M584.3,252l-0.1,26.9l-1.4,1l0.1-26.9L584.3,252z"/>
<path class="st9" d="M615.6,253.3l-0.1,26.9l-13.8-2.8l0.1-26.9L615.6,253.3z"/>
<path class="st9" d="M662.8,249.7l-0.1,26.9l-5.9,4.6l0.1-26.9L662.8,249.7z"/>
<path class="st9" d="M804.3,234.1l-0.1,26.9l-13.5,23.4l0.1-26.9L804.3,234.1z"/>
<path class="st2" d="M660.8,257.4l-0.1,26.9l-3.9-3l0.1-26.9L660.8,257.4z"/>
<path class="st9" d="M200.9,256.4l-0.1,26.9l0-4l0.1-26.9L200.9,256.4z"/>
<path class="st9" d="M619.2,257.7l-0.1,26.9l-3.7-4.4l0.1-26.9L619.2,257.7z"/>
<path class="st9" d="M202.3,256.8l-0.1,26.9l-1.4-0.4l0.1-26.9L202.3,256.8z"/>
<path class="st9" d="M626,259.3l-0.1,26.9l-6.8-1.6l0.1-26.9L626,259.3z"/>
<path class="st0" d="M589.7,260.1l-0.1,26.9l-6.7-7.1l0.1-26.9L589.7,260.1z"/>
<path class="st9" d="M640.9,261.6l-0.1,26.9l-5.3-0.2l0.1-26.9L640.9,261.6z"/>
<path class="st9" d="M627.1,261.8l-0.1,26.9l-1.1-2.4l0.1-26.9L627.1,261.8z"/>
<path class="st0" d="M627.1,261.8l-0.1,26.9l-3.1-0.4l0.1-26.9L627.1,261.8z"/>
<path class="st9" d="M625.4,263.4l-0.1,26.9l-1.4-2l0.1-26.9L625.4,263.4z"/>
<path class="st9" d="M207.1,259.8l-0.1,26.9l-3.9,2.6l0.1-26.9L207.1,259.8z"/>
<path class="st9" d="M203.1,262.4l-0.1,26.9l-0.8-5.6l0.1-26.9L203.1,262.4z"/>
<path class="st9" d="M635.5,261.4l-0.1,26.9l-3.1,2.2l0.1-26.9L635.5,261.4z"/>
<path class="st9" d="M632.4,263.6l-0.1,26.9l-7-0.2l0.1-26.9L632.4,263.6z"/>
<path class="st9" d="M571.9,263.5l-0.1,26.9l-22.8-16.8l0.1-26.9L571.9,263.5z"/>
<path class="st9" d="M582.9,253l-0.1,26.9l-11,10.5l0.1-26.9L582.9,253z"/>
<path class="st9" d="M211.6,265.1l-0.1,26.9l-4.5-5.2l0.1-26.9L211.6,265.1z"/>
<path class="st9" d="M646.5,267.2l-0.1,26.9l-5.6-5.7l0.1-26.9L646.5,267.2z"/>
<path class="st2" d="M752.8,242.8l-0.1,26.9l-51.5,26.7l0.1-26.9L752.8,242.8z"/>
<path class="st9" d="M657.2,269.7l-0.1,26.9l-10.7-2.4l0.1-26.9L657.2,269.7z"/>
<path class="st8" d="M596.3,96.9l34.3,2.9l27.3,17.2l19.1,29.6l21.4,19.8l-6.8,4.4l-9.3-5.3l-5.9,4l-5.4,10.7l-13.2,4.8l0.5,4.4
	l9.9,0.2l0.8,7.7l-7.6,5.6l-1.4-2.6l-17.5,11.3l13.8,13.5l7.9,14.9l18,6.7l-2,2.4l-17.4,0.6l-5.9,4.6l3.9,3l-3.7,12.3l-10.7-2.4
	l-5.6-5.6l-5.3-0.2l-3.1,2.2l-7-0.2l-1.4-2l3.1,0.4l-1.1-2.4l-6.7-1.6l-3.7-4.4l-13.8-2.8l-17.4,1.6l-1.4,1l-11,10.5l-22.8-16.8
	l7.1-13.1l2-21.8l-13.8-9.1l-13.7-41.5l26.5-36.2l6.5,1.2l10.1-7.4l8.2-16.9L596.3,96.9z"/>
<path class="st9" d="M660.8,257.4l-0.1,26.9l-3.7,12.3l0.1-26.9L660.8,257.4z"/>
<path class="st9" d="M215.2,269.5l-0.1,26.9l-3.7-4.4l0.1-26.9L215.2,269.5z"/>
<path class="st9" d="M220,268.3l-0.1,26.9l-4.8,1.2l0.1-26.9L220,268.3z"/>
<path class="st9" d="M259.4,260.7l-0.1,26.9l-0.6,10.7l0.1-26.9L259.4,260.7z"/>
<path class="st0" d="M657.2,269.7l-0.1,26.9l-1.4,2.8l0.1-26.9L657.2,269.7z"/>
<path class="st0" d="M589.9,273l-0.1,26.9l-0.3-12.9l0.1-26.9L589.9,273z"/>
<path class="st0" d="M655.8,272.5l-0.1,26.9l-3.1,1.4l0.1-26.9L655.8,272.5z"/>
<path class="st1" d="M589.9,273l-0.1,26.9l-10.7,1.4l0.1-26.9L589.9,273z"/>
<path class="st1" d="M579.2,274.4l-0.1,26.9l-20.8-2.2l0.1-26.9L579.2,274.4z"/>
<path class="st1" d="M558.4,272.1l-0.1,26.9l-9.8,5.4l0.1-26.9L558.4,272.1z"/>
<path class="st9" d="M231.5,277l-0.1,26.9l-11.5-8.7l0.1-26.9L231.5,277z"/>
<path class="st2" d="M665.6,278.1l-0.1,26.9l-8.4-8.5l0.1-26.9L665.6,278.1z"/>
<path class="st1" d="M548.6,277.5l-0.1,26.9l-12.7,7l0.1-26.9L548.6,277.5z"/>
<path class="st0" d="M652.7,273.9l-0.1,26.9l-10.1,13.1l0.1-26.9L652.7,273.9z"/>
<path class="st1" d="M535.9,284.6l-0.1,26.9l-1.4,4.4l0.1-26.9L535.9,284.6z"/>
<path class="st2" d="M667.3,289.8l-0.1,26.9l-1.7-11.7l0.1-26.9L667.3,289.8z"/>
<path class="st0" d="M642.5,287l-0.1,26.9l-7.9,3.4l0.1-26.9L642.5,287z"/>
<path class="st9" d="M712.3,291.1l-0.1,26.9l-10.9-21.6l0.1-26.9L712.3,291.1z"/>
<path class="st0" d="M412.1,292l-0.1,26.9l-45-27.7l0.1-26.9L412.1,292z"/>
<path class="st2" d="M670.9,293.2l-0.1,26.9l-3.7-3.4l0.1-26.9L670.9,293.2z"/>
<path class="st9" d="M790.8,257.4l-0.1,26.9l-9.1,38.5l0.1-26.9L790.8,257.4z"/>
<path class="st2" d="M712.3,291.1l-0.1,26.9l-15.2,4.6l0.1-26.9L712.3,291.1z"/>
<path class="st0" d="M536.7,298.1l-0.1,26.9l-2.2-9.1l0.1-26.9L536.7,298.1z"/>
<path class="st9" d="M274.8,301l-0.1,26.9l-43.3-24l0.1-26.9L274.8,301z"/>
<path class="st1" d="M536.7,298.1l-0.1,26.9l-11.8,6.6l0.1-26.9L536.7,298.1z"/>
<path class="st2" d="M697.1,295.7l-0.1,26.9l-4.2,10.3l0.1-26.9L697.1,295.7z"/>
<path class="st2" d="M688.9,306l-0.1,26.9l3.9,0l0.1-26.9L688.9,306z"/>
<path class="st0" d="M634.7,290.4l-0.1,26.9l-27,16.1l0.1-26.9L634.7,290.4z"/>
<path class="st0" d="M607.6,306.4l-0.1,26.9l-7,3.2l0.1-26.9L607.6,306.4z"/>
<path class="st2" d="M672.6,311.2l-0.1,26.9l-1.7-17.9l0.1-26.9L672.6,311.2z"/>
<path class="st2" d="M688.9,306l-0.1,26.9l-0.6,5.4l0.1-26.9L688.9,306z"/>
<path class="st2" d="M688.3,311.4l-0.1,26.9l-10.4-0.2l0.1-26.9L688.3,311.4z"/>
<path class="st2" d="M677.9,311.2l-0.1,26.9l-1.1,1.8l0.1-26.9L677.9,311.2z"/>
<path class="st2" d="M676.8,313l-0.1,26.9l-4.2-1.8l0.1-26.9L676.8,313z"/>
<path class="st10" d="M682.3,165.6l9.3,5.3l6.8-4.4l4.2,3.6l-8.2,4.8l6.2,2l4.2,15.3l1.4,8.5l8.2,3l-0.3,7.3l6.7,3.4l4.8,7.7
	l11.5,0.6l11.2,1.2l0,16.9l4.5,0l0,2l-51.5,26.7l10.9,21.6l-15.2,4.6l-4.2,10.3l-3.9,0l-0.6,5.4l-10.4-0.2l-1.1,1.8l-4.2-1.8
	l-1.7-17.9l-3.7-3.4l-1.7-11.7l-8.4-8.5l3.7-12.3l-3.9-3l5.9-4.6l17.4-0.6l2-2.4l-18-6.7l-7.9-14.9l-13.8-13.5l17.5-11.3l1.4,2.6
	l7.6-5.6l-0.8-7.7l-9.9-0.2l-0.5-4.4l13.2-4.8l5.4-10.7L682.3,165.6z"/>
<path class="st1" d="M524.9,304.7l-0.1,26.9l-2.8,9.2l0.1-26.9L524.9,304.7z"/>
<path class="st1" d="M688.4,311.4l-0.1,26.9l-1.4,3.8l0.1-26.9L688.4,311.4z"/>
<path class="st9" d="M690.3,313.8l-0.1,26.9l-3.4,1.4l0.1-26.9L690.3,313.8z"/>
<path class="st0" d="M472.9,314.1l-0.1,26.9l-0.6,3.6l0.1-26.9L472.9,314.1z"/>
<path class="st1" d="M482.4,318.1l-0.1,26.9l-10.1-0.4l0.1-26.9L482.4,318.1z"/>
<path class="st9" d="M694.2,319.5l-0.1,26.9l-3.9-5.6l0.1-26.9L694.2,319.5z"/>
<path class="st9" d="M283.5,318.8l-0.1,26.9l-8.7-17.7l0.1-26.9L283.5,318.8z"/>
<path class="st0" d="M600.6,309.7l-0.1,26.9l-0.9,9.9l0.1-26.9L600.6,309.7z"/>
<path class="st1" d="M490.6,321.1l-0.1,26.9l-8.2-3l0.1-26.9L490.6,321.1z"/>
<path class="st1" d="M694.2,319.5l-0.1,26.9l-5.9,3l0.1-26.9L694.2,319.5z"/>
<path class="st8" d="M175.7,157.8l3.4,9.1l13.8,6.3l4.5,10.3l9,4l2.5,6.6l7,10.9l3.9-1.4l-3.9-5.4l-2-4.2l9.3,4.3l5.9,12.7l5.9,19.3
	l9.6,7.9l9.5,14.9l5.3,7.7l-0.6,10.7l5.3,8.5l9.6,1.4l1.4-4.8l8.7,3.8l9,6.5l6.5,10.1l9.6,4.9l0.8,8.9L290,322.4l-6.5-3.6l-8.7-17.7
	l-43.3-24l-11.5-8.7l-4.8,1.2l-3.7-4.4l-4.5-5.3l-3.9,2.6l-0.8-5.6l-1.4-0.4l0-4l2.5-5.4l-1.7-18.7l-13.5-14.1l-23.9-10.3l-3.9-6.7
	l-4.8,1.2l-8.7-1l-5.6,2l-33.2-16.8l-6.5-7.5L84,164.7l4.5-1.6l16.6,2l5.9-2.4l7.3,4.4l3.4,3.2l2-3.4l4.5-0.4l-9-3.2l0.6-2.8
	l-4.8,0.6l2.5-3.2L175.7,157.8z"/>
<path class="st9" d="M309.7,310.6l-0.1,26.9l-19.7,11.9l0.1-26.9L309.7,310.6z"/>
<path class="st9" d="M290,322.4l-0.1,26.9l-6.5-3.6l0.1-26.9L290,322.4z"/>
<path class="st1" d="M492.5,324.2l-0.1,26.9l-2-3l0.1-26.9L492.5,324.2z"/>
<path class="st9" d="M691.1,326.1l-0.1,26.9l-2.8-3.6l0.1-26.9L691.1,326.1z"/>
<path class="st0" d="M538.1,327.1L538,354l-8.4-0.6l0.1-26.9L538.1,327.1z"/>
<path class="st9" d="M716.7,330.4l-0.1,26.9l-7.9-2.8l0.1-26.9L716.7,330.4z"/>
<path class="st1" d="M522.1,313.9l-0.1,26.9l-1.4,16.1l0.1-26.9L522.1,313.9z"/>
<path class="st9" d="M781.7,320l-0.1,26.9l-5.9,10.9l0.1-26.9L781.7,320z"/>
<path class="st9" d="M708.9,327.6l-0.1,26.9l-0.8,3.2l0.1-26.9L708.9,327.6z"/>
<path class="st9" d="M708,330.8l-0.1,26.9l-16.9-4.7l0.1-26.9L708,330.8z"/>
<path class="st1" d="M627.6,331.3l-0.1,26.9l7,0l0.1-26.9L627.6,331.3z"/>
<path class="st0" d="M544.6,332.9l-0.1,26.9l-4.8-1.6l0.1-26.9L544.6,332.9z"/>
<path class="st2" d="M492.5,324.2l-0.1,26.9l-3.7,8.9l0.1-26.9L492.5,324.2z"/>
<path class="st1" d="M499.6,328.8l-0.1,26.9l-10.7,4.2l0.1-26.9L499.6,328.8z"/>
<path class="st9" d="M538.1,327.1L538,354l-2.8,6.2l0.1-26.9L538.1,327.1z"/>
<path class="st9" d="M531.1,333.5l-0.1,26.9l-1.4-7l0.1-26.9L531.1,333.5z"/>
<path class="st0" d="M465,333l-0.1,26.9l-5.3,1l0.1-26.9L465,333z"/>
<path class="st0" d="M459.6,334l-0.1,26.9l-47.5-42l0.1-26.9L459.6,334z"/>
<path class="st1" d="M627.6,331.2l-0.1,26.9l-5.1,3.6l0.1-26.9L627.6,331.2z"/>
<path class="st0" d="M470,334.6l-0.1,26.9l-5.1-1.6L465,333L470,334.6z"/>
<path class="st1" d="M622.5,334.9l-0.1,26.9l-4.2,0.8l0.1-26.9L622.5,334.9z"/>
<path class="st1" d="M618.3,335.7l-0.1,26.9l-18.5-16.1l0.1-26.9L618.3,335.7z"/>
<path class="st9" d="M721.8,336.4l-0.1,26.9l-5.1-6.1l0.1-26.9L721.8,336.4z"/>
<path class="st1" d="M637.7,336.3l-0.1,26.9l-3.1-5.1l0.1-26.9L637.7,336.3z"/>
<path class="st9" d="M764,335.7l-0.1,26.9l-17.7,1.6l0.1-26.9L764,335.7z"/>
<path class="st1" d="M507.2,336.9l-0.1,26.9l-7.6-8.1l0.1-26.9L507.2,336.9z"/>
<path class="st1" d="M515.6,335.3l-0.1,26.9l-8.4,1.6l0.1-26.9L515.6,335.3z"/>
<path class="st0" d="M554.4,333.9l-0.1,26.9l-2,3.6l0.1-26.9L554.4,333.9z"/>
<path class="st0" d="M637.7,336.3l-0.1,26.9l-2.8,2l0.1-26.9L637.7,336.3z"/>
<path class="st9" d="M531.1,338.5l-0.1,26.9l0-5l0.1-26.9L531.1,338.5z"/>
<path class="st9" d="M746.3,337.3l-0.1,26.9l-7.9,1.8l0.1-26.9L746.3,337.3z"/>
<path class="st9" d="M738.4,339.1l-0.1,26.9l-16.6-2.7l0.1-26.9L738.4,339.1z"/>
<path class="st0" d="M567.6,340.8l-0.1,26.9l-13.2-6.9l0.1-26.9L567.6,340.8z"/>
<path class="st9" d="M555,339.2l-0.1,26.9l-2.5-1.6l0.1-26.9L555,339.2z"/>
<path class="st8" d="M531.5,198.8l12.9,4l13.8,9.1l-2,21.8l-7.1,13.1l22.8,16.8l11-10.5l6.7,7.1l0.3,12.9l-10.7,1.4l-20.8-2.2
	l-9.8,5.4l-12.7,7l-1.4,4.4l2.2,9.1l-11.8,6.6l-2.8,9.3l-1.4,16.1l-4,9.7l-1.1-4.4l-8.4,1.6l-7.6-8.1l-10.7,4.2l3.7-8.9l-2-3l-8.2-3
	l-10.1-0.4l0.6-3.6l-11.5-4.3L447,279l-21.4-2.9l-21.6-26l6.8-15.3l11.8-1.6l20.9-34.6l63.3,14l14.9-13.5L531.5,198.8z"/>
<path class="st1" d="M520.7,330.1l-0.1,26.9l-4,9.7l0.1-26.9L520.7,330.1z"/>
<path class="st1" d="M516.7,339.7l-0.1,26.9l-1.1-4.4l0.1-26.9L516.7,339.7z"/>
<path class="st9" d="M544.6,332.9l-0.1,26.9l-2.5,7.1L542,340L544.6,332.9z"/>
<path class="st2" d="M463,340.6l-0.1,26.9l-3.4-6.7l0.1-26.9L463,340.6z"/>
<path class="st0" d="M597.7,336.2l-0.1,26.9l-13.5,4.8l0.1-26.9L597.7,336.2z"/>
<path class="st9" d="M535.3,333.3l-0.1,26.9l-1.4,7.7l0.1-26.9L535.3,333.3z"/>
<path class="st8" d="M702.6,170l7,1.8l3.9,12.9l2.2,8.3l5.9,5.4l5.1,11.7l32.1,9.9l25.6,2.7l12.1,5.9l3.7-2.4l5.9-1.2l-1.7,9.1
	l-13.5,23.4l-9.1,38.5l0,24.2l-5.9,10.9L780,342l-16-6.3l-17.7,1.6l-7.9,1.8l-16.6-2.7l-5.1-6.1l-7.9-2.8l-0.8,3.2l-16.9-4.7
	l-2.8-3.6l5.9-3l-3.9-5.6l-3.4,1.4l1.4-3.8l0.6-5.4l3.9,0l4.2-10.3l15.2-4.6l-10.9-21.6l51.5-26.7l0-2l-4.5,0l0-16.9l-11.2-1.2
	l-11.5-0.6l-4.8-7.7l-6.7-3.4l0.3-7.3l-8.2-3l-1.4-8.5l-4.2-15.3l-6.2-2L702.6,170z"/>
<path class="st9" d="M780,342l-0.1,26.9l-16-6.3l0.1-26.9L780,342z"/>
<path class="st0" d="M609.8,341.7l-0.1,26.9l-12.1-5.5l0.1-26.9L609.8,341.7z"/>
<path class="st2" d="M516.7,339.7l-0.1,26.9l-0.9,2l0.1-26.9L516.7,339.7z"/>
<path class="st0" d="M531.1,338.5l-0.1,26.9l-15.2,3.2l0.1-26.9L531.1,338.5z"/>
<path class="st2" d="M757,342.7l-0.1,26.9l-10.7-5.4l0.1-26.9L757,342.7z"/>
<path class="st0" d="M584.2,341l-0.1,26.9l-0.9,3.2l0.1-26.9L584.2,341z"/>
<path class="st0" d="M534.7,344.2l-0.1,26.9l-0.8-3.2l0.1-26.9L534.7,344.2z"/>
<path class="st0" d="M539.8,331.3l-0.1,26.9l-5.1,12.9l0.1-26.9L539.8,331.3z"/>
<path class="st0" d="M542.9,345.4l-0.1,26.9l-0.8-5.4L542,340L542.9,345.4z"/>
<path class="st0" d="M555,339.2l-0.1,26.9L549,373L549,346L555,339.2z"/>
<path class="st0" d="M549.1,346L549,373l-6.2-0.6l0.1-26.9L549.1,346z"/>
<path class="st0" d="M610.7,346.3l-0.1,26.9l-0.8-4.6l0.1-26.9L610.7,346.3z"/>
<path class="st1" d="M637.1,347.6l-0.1,26.9l-2.2-9.3l0.1-26.9L637.1,347.6z"/>
<path class="st2" d="M515.9,341.7l-0.1,26.9l-2.8,5.6l0.1-26.9L515.9,341.7z"/>
<path class="st9" d="M567.6,340.8l-0.1,26.9l-4.2,8.9l0.1-26.9L567.6,340.8z"/>
<path class="st0" d="M615.7,350l-0.1,26.9l-5-3.6l0.1-26.9L615.7,350z"/>
<path class="st1" d="M757,342.7l-0.1,26.9l-3.9,8.3L753,351L757,342.7z"/>
<path class="st1" d="M753,351l-0.1,26.9l-4.8,1l0.1-26.9L753,351z"/>
<path class="st0" d="M583.4,344.3l-0.1,26.9l-7.6,8.6l0.1-26.9L583.4,344.3z"/>
<path class="st9" d="M563.4,349.7l-0.1,26.9l-11.8,3.8l0.1-26.9L563.4,349.7z"/>
<path class="st0" d="M629.2,355.2l-0.1,26.9l-13.5-5.3l0.1-26.9L629.2,355.2z"/>
<path class="st0" d="M637.1,347.6l-0.1,26.9l-7.9,7.6l0.1-26.9L637.1,347.6z"/>
<path class="st1" d="M632,355.8l-0.1,26.9l-2.8-0.6l0.1-26.9L632,355.8z"/>
<path class="st1" d="M637.9,354.4l-0.1,26.9l-5.9,1.4l0.1-26.9L637.9,354.4z"/>
<path class="st9" d="M551.6,353.5l-0.1,26.9l-3.6,2.6l0.1-26.9L551.6,353.5z"/>
<path class="st2" d="M752.7,356.8l-0.1,26.9l-4.5-4.8l0.1-26.9L752.7,356.8z"/>
<path class="st9" d="M525.1,356.9l-0.1,26.9l-12.1-9.5l0.1-26.9L525.1,356.9z"/>
<path class="st1" d="M639.6,357.5l-0.1,26.9l-1.7-3l0.1-26.9L639.6,357.5z"/>
<path class="st1" d="M615.7,350l-0.1,26.9l-9,7.4l0.1-26.9L615.7,350z"/>
<path class="st1" d="M648.3,357.7l-0.1,26.9l-8.7-0.2l0.1-26.9L648.3,357.7z"/>
<path class="st9" d="M629.2,355.2l-0.1,26.9l-2.8,2.6l0.1-26.9L629.2,355.2z"/>
<path class="st1" d="M579.1,358l-0.1,26.9l-3.4-5l0.1-26.9L579.1,358z"/>
<path class="st1" d="M584.5,357.2l-0.1,26.9l-5.3,0.8l0.1-26.9L584.5,357.2z"/>
<path class="st1" d="M606.7,357.4l-0.1,26.9l-8.2,3l0.1-26.9L606.7,357.4z"/>
<path class="st1" d="M598.6,360.4l-0.1,26.9l-14.1-3.2l0.1-26.9L598.6,360.4z"/>
<path class="st8" d="M597.7,336.2l12.1,5.5l0.8,4.6l5,3.6l-9,7.4l-8.2,3l-14.1-3.2l-5.3,0.8l-3.4-5.1l7.6-8.6l0.9-3.2L597.7,336.2z"
	/>
<path class="st2" d="M628.6,360.7l-0.1,26.9l-2.3-2.8l0.1-26.9L628.6,360.7z"/>
<path class="st2" d="M471.1,361.8l-0.1,26.9l-8.7-11.9l0.1-26.9L471.1,361.8z"/>
<path class="st1" d="M752.7,356.8l-0.1,26.9l-7.3,5.6l0.1-26.9L752.7,356.8z"/>
<path class="st0" d="M579.1,358l-0.1,26.9l-0.6,4.4l0.1-26.9L579.1,358z"/>
<path class="st9" d="M547.9,356.1l-0.1,26.9l-0.6,7l0.1-26.9L547.9,356.1z"/>
<path class="st9" d="M628.6,360.7l-0.1,26.9l-3.7,3l0.1-26.9L628.6,360.7z"/>
<path class="st9" d="M584.2,364l-0.1,26.9l-5.6-1.6l0.1-26.9L584.2,364z"/>
<path class="st0" d="M1209.6,365.5l0,26.9l-7.9-1.4l0.1-26.9L1209.6,365.5z"/>
<path class="st2" d="M525.1,356.9l-0.1,26.9l-5.4,7.6l0.1-26.9L525.1,356.9z"/>
<path class="st2" d="M796,365.2l-0.1,26.9L783,378.6l0.1-26.9L796,365.2z"/>
<path class="st9" d="M547.3,363.1l-0.1,26.9l-7,2l0.1-26.9L547.3,363.1z"/>
<path class="st1" d="M672.5,360.9l-0.1,26.9l-3.1,5l0.1-26.9L672.5,360.9z"/>
<path class="st2" d="M480.7,365.8l-0.1,26.9l-9.6-4l0.1-26.9L480.7,365.8z"/>
<path class="st1" d="M669.4,366l-0.1,26.9l-5.3,0.4l0.1-26.9L669.4,366z"/>
<path class="st1" d="M664.1,366.4l-0.1,26.9l-15.7-8.7l0.1-26.9L664.1,366.4z"/>
<path class="st1" d="M699,368.4l-0.1,26.9l-26.4-7.5l0.1-26.9L699,368.4z"/>
<path class="st1" d="M700.7,365.8l-0.1,26.9l-1.7,2.6l0.1-26.9L700.7,365.8z"/>
<path class="st1" d="M722.9,361.4l-0.1,26.9l-14.4,7.4l0.1-26.9L722.9,361.4z"/>
<path class="st1" d="M708.5,368.9l-0.1,26.9l-7.9-3l0.1-26.9L708.5,368.9z"/>
<path class="st0" d="M584.2,364l-0.1,26.9l-2,4.6l0.1-26.9L584.2,364z"/>
<path class="st2" d="M750.5,369.1l-0.1,26.9l-5.1-6.7l0.1-26.9L750.5,369.1z"/>
<path class="st2" d="M796.9,370.2l-0.1,26.9l-3.9-2.4l0.1-26.9L796.9,370.2z"/>
<path class="st2" d="M798.3,363.4l-0.1,26.9l-1.4,6.8l0.1-26.9L798.3,363.4z"/>
<path class="st2" d="M627.5,369.9l-0.1,26.9l-2.5-6.3l0.1-26.9L627.5,369.9z"/>
<path class="st2" d="M752.7,370.3l-0.1,26.9l-2.2-1.2l0.1-26.9L752.7,370.3z"/>
<path class="st1" d="M750.5,369.1l-0.1,26.9l-3.4,1.4l0.1-26.9L750.5,369.1z"/>
<path class="st0" d="M699,370.4l-0.1,26.9l0-2l0.1-26.9V370.4z"/>
<path class="st0" d="M582.2,368.6l-0.1,26.9l-4.2,2.4L578,371L582.2,368.6z"/>
<path class="st9" d="M530.5,371.8l-0.1,26.9l-10.7-7.3l0.1-26.9L530.5,371.8z"/>
<path class="st0" d="M1194.1,373.3l-0.1,26.9l-0.6-5.9l0.1-26.9L1194.1,373.3z"/>
<path class="st1" d="M729.1,372.5l-0.1,26.9l-6.2-11.1l0.1-26.9L729.1,372.5z"/>
<path class="st1" d="M729.1,372.5l-0.1,26.9l4.2,0l0.1-26.9L729.1,372.5z"/>
<path class="st0" d="M578,371l-0.1,26.9l-10.4,1.2l0.1-26.9L578,371z"/>
<path class="st9" d="M752.7,370.3l-0.1,26.9l-0.8,3.6l0.1-26.9L752.7,370.3z"/>
<path class="st9" d="M540.3,365.1l-0.1,26.9l-1.1,8.5l0.1-26.9L540.3,365.1z"/>
<path class="st0" d="M702.1,374.3l-0.1,26.9l-3.1-3.8l0.1-26.9L702.1,374.3z"/>
<path class="st1" d="M747.1,370.5l-0.1,26.9l-0.6,4.2l0.1-26.9L747.1,370.5z"/>
<path class="st9" d="M627.5,369.9l-0.1,26.9l-10.1,4.8l0.1-26.9L627.5,369.9z"/>
<path class="st2" d="M757.2,375.2l-0.1,26.9l-5.3-1.2l0.1-26.9L757.2,375.2z"/>
<path class="st2" d="M702.1,374.3l-0.1,26.9l-12.1,1.2l0.1-26.9L702.1,374.3z"/>
<path class="st0" d="M546.5,375.2l-0.1,26.9l-7.3-1.6l0.1-26.9L546.5,375.2z"/>
<path class="st8" d="M657.2,269.7l8.4,8.5l1.7,11.7l3.7,3.4l1.7,17.9l4.2,1.8l1.1-1.8l10.4,0.2l-1.4,3.8l3.4-1.4l3.9,5.6l-5.9,3
	l2.8,3.6l16.9,4.7l0.8-3.2l7.9,2.8l5.1,6.1l16.6,2.7l7.9-1.8l10.7,5.4l-4,8.3l-4.8,1l4.5,4.8l-7.3,5.6l5.1,6.7l-3.4,1.4l-0.6,4.2
	l-9.6,1l-3.7-3.2l-4.2,0l-6.2-11.1l-14.4,7.4l-7.9-3l-1.7,2.6l-26.4-7.5l-3.1,5l-5.3,0.4l-15.7-8.7l-8.7-0.2l-1.7-3l-5.9,1.4
	l-2.8-0.6l7.9-7.6l-2.2-9.3l2.8-2l-3.1-5l-7,0l-5.1,3.6l-4.2,0.8l-18.5-16.1l0.9-9.9l7-3.2l27-16.1l7.9-3.4l10.2-13.1l3.1-1.4
	L657.2,269.7z"/>
<path class="st1" d="M746.5,374.8l-0.1,26.9l-9.6,1l0.1-26.9L746.5,374.8z"/>
<path class="st1" d="M736.9,375.8l-0.1,26.9l-3.7-3.2l0.1-26.9L736.9,375.8z"/>
<path class="st0" d="M729.1,372.5l-0.1,26.9l-0.9,3.4l0.1-26.9L729.1,372.5z"/>
<path class="st2" d="M530.5,371.8l-0.1,26.9l-10.4,4.2l0.1-26.9L530.5,371.8z"/>
<path class="st0" d="M728.2,375.9l-0.1,26.9l-4.8,1.4l0.1-26.9L728.2,375.9z"/>
<path class="st0" d="M723.4,377.3l-0.1,26.9l-6.2,0.4l0.1-26.9L723.4,377.3z"/>
<path class="st2" d="M764.8,378.6l-0.1,26.9l-7.6-3.4l0.1-26.9L764.8,378.6z"/>
<path class="st2" d="M1194.1,373.3l-0.1,26.9l-1.4,7l0.1-26.9L1194.1,373.3z"/>
<path class="st10" d="M601.8,250.4l13.8,2.8l3.7,4.4l6.8,1.6l1.1,2.4l-3.1-0.4l1.4,2l7,0.2l3.1-2.2l5.3,0.2l5.6,5.6l10.7,2.4
	l-1.4,2.8l-3.1,1.4L642.5,287l-7.9,3.4l-27,16.1l-7,3.2l-0.9,9.9l18.5,16.1l4.2-0.8l5.1-3.6l7,0l3.1,5l-2.8,2l2.2,9.3l-7.9,7.6
	l-13.5-5.3l-5-3.6l-0.8-4.6l-12.1-5.5l-13.5,4.8l-0.9,3.2l-7.6,8.6l3.4,5.1l-0.6,4.4l5.6,1.6l-2,4.6L578,371l-10.4,1.2l-0.6,7.7
	l-20.5-4.7l-7.3-1.6l1.1-8.5l7-2l0.6-7l3.6-2.6l11.8-3.8l4.2-8.8l-13.2-6.9l-2,3.6l2.5,1.6l-5.9,6.8l-6.2-0.6L542,340l2.5-7.1
	l-4.8-1.6l-5.1,12.9l-0.8-3.2l1.4-7.7l2.8-6.2l-8.4-0.6l1.4,7l0,5l-15.2,3.2l0.9-2l4-9.7l1.4-16.1l2.8-9.3l11.8-6.6l-2.2-9.1
	l1.4-4.4l12.7-7l9.8-5.4l20.8,2.2l10.7-1.4l-0.3-12.9l-6.7-7.1l1.4-1L601.8,250.4z"/>
<path class="st0" d="M567,379.9l-0.1,26.9l-20.5-4.7l0.1-26.9L567,379.9z"/>
<path class="st0" d="M567.6,372.2l-0.1,26.9l-0.6,7.7l0.1-26.9L567.6,372.2z"/>
<path class="st0" d="M717.2,377.7l-0.1,26.9l-0.6,2.8l0.1-26.9L717.2,377.7z"/>
<path class="st2" d="M497.5,380.4l-0.1,26.9l-5.6,2l0.1-26.9L497.5,380.4z"/>
<path class="st2" d="M491.9,382.4l-0.1,26.9l-7,1.2l0.1-26.9L491.9,382.4z"/>
<path class="st2" d="M690,375.5l-0.1,26.9l-4.8,8.7l0.1-26.9L690,375.5z"/>
<path class="st2" d="M685.2,384.1l-0.1,26.9l-13.8-1l0.1-26.9L685.2,384.1z"/>
<path class="st2" d="M1192.7,380.4l-0.1,26.9l-0.3,5l0.1-26.9L1192.7,380.4z"/>
<path class="st0" d="M716.7,380.5l-0.1,26.9l-4.8,5.2l0.1-26.9L716.7,380.5z"/>
<path class="st9" d="M764.8,378.6l-0.1,26.9l-1.7,7.6l0.1-26.9L764.8,378.6z"/>
<path class="st9" d="M755,386.3l-0.1,26.9l8.2,0l0.1-26.9L755,386.3z"/>
<path class="st2" d="M779.4,387.3l-0.1,26.9l-3.6-0.2l0.1-26.9L779.4,387.3z"/>
<path class="st0" d="M1224.5,378.8l-0.1,26.9l-6.5,10.5l0.1-26.9L1224.5,378.8z"/>
<path class="st2" d="M475,388.2l-0.1,26.9l-8.5-0.6l0.1-26.9L475,388.2z"/>
<path class="st9" d="M617.4,374.7l-0.1,26.9l-11.6,14.1l0.1-26.9L617.4,374.7z"/>
<path class="st2" d="M520.1,376l-0.1,26.9l-3.7,13.7l0.1-26.9L520.1,376z"/>
<path class="st2" d="M516.4,389.7l-0.1,26.9l-18.8-9.3l0.1-26.9L516.4,389.7z"/>
<path class="st2" d="M484.9,383.6l-0.1,26.9l-6.8,6.4l0.1-26.9L484.9,383.6z"/>
<path class="st9" d="M479.2,392.8l-0.1,26.9l-1.1-2.8l0.1-26.9L479.2,392.8z"/>
<path class="st2" d="M478.1,390l-0.1,26.9l-3.1-1.8l0.1-26.9L478.1,390z"/>
<path class="st2" d="M610.6,392.9l-0.1,26.9l-4.8-4l0.1-26.9L610.6,392.9z"/>
<path class="st9" d="M605.8,399.7l-0.1,26.9l-39.7,9.6l0.1-26.9L605.8,399.7z"/>
<path class="st1" d="M567,412.5l-0.1,26.9l-0.8-3.2l0.1-26.9L567,412.5z"/>
<path class="st1" d="M579.1,413.8l-0.1,26.9l-12.1-1.2l0.1-26.9L579.1,413.8z"/>
<path class="st9" d="M579.1,413.8l-0.1,26.9l-2.3,4.8l0.1-26.9L579.1,413.8z"/>
<path class="st1" d="M579.6,427.2l-0.1,26.9l-2.8-8.7l0.1-26.9L579.6,427.2z"/>
<path class="st1" d="M587.2,428.7l-0.1,26.9l-7.6-1.4l0.1-26.9L587.2,428.7z"/>
<path class="st8" d="M529.7,326.5l8.4,0.6l-2.8,6.2l-1.4,7.7l0.8,3.2l5.1-12.9l4.8,1.6L542,340l0.8,5.4l6.2,0.6l5.9-6.8l-2.5-1.6
	l2-3.6l13.2,6.9l-4.2,8.8l-11.8,3.8l-3.6,2.6l-0.6,7l-7,2l-1.1,8.5l7.3,1.6l20.5,4.7l0.6-7.7L578,371l4.2-2.4l2-4.6l-5.6-1.6
	l0.6-4.4l5.3-0.8l14.1,3.2l8.2-3l9-7.4l13.5,5.3l-2.8,2.6l2.3,2.8l-3.7,3l2.5,6.3l-10.1,4.8l-11.6,14.1l4.8,4l-4.8,6.8l-39.7,9.6
	l0.8,3.2l12.1,1.2l-2.3,4.8l2.8,8.7l7.6,1.4l-3.9,7l-8.2,0l-11,7l-13.5,0.8l-0.8-10.9l-7-5l-6.5,2.8l-10.1-3.8l-4.8,6l-11.8,2.4
	l-5.1,3l-17.7-6.9l-10.7-10.7l-15.5-21l13.8-3.4l4.8-3.2l-1.1-2.8l6.8-6.4l7-1.2l5.6-2l18.8,9.3l3.7-13.7l10.4-4.2l-10.7-7.3
	l5.4-7.6l-12.1-9.5l2.8-5.6l15.2-3.2l0-5L529.7,326.5z"/>
<path class="st10" d="M519.8,364.5l10.7,7.3l-10.4,4.2l-3.7,13.7l-18.8-9.3l-5.6,2l-7,1.2l-6.8,6.4l-3.1-1.8l-8.4-0.6l12.1-8.2
	l2-13.5l-9.6-4l-8.7-11.9l0.6-9.3l-3.4-6.7l5.3-1l5.1,1.6l-0.8-6l-2.8-3.6l5.9-7.2l10.1,0.4l8.2,3l2,3l-3.7,8.9l10.7-4.2l7.6,8.1
	l8.4-1.6l1.1,4.4l-0.9,2l-2.8,5.6l12.1,9.5L519.8,364.5z"/>
<path class="st0" d="M711.9,385.8l-0.1,26.9L711,419L711,392L711.9,385.8z"/>
<path class="st2" d="M783.3,392.5l-0.1,26.9l-3.9-5.2l0.1-26.9L783.3,392.5z"/>
<path class="st2" d="M1192.4,385.4l-0.1,26.9l-5.6,8.3l0.1-26.9L1192.4,385.4z"/>
<path class="st2" d="M671.4,383.1l-0.1,26.9l-4,10.9l0.1-26.9L671.4,383.1z"/>
<path class="st9" d="M754.9,386.3l-0.1,26.9l-5.9,8.3l0.1-26.9L754.9,386.3z"/>
<path class="st2" d="M1079.6,395.9l-0.1,26.9l-1.1-9.1l0-26.9L1079.6,395.9z"/>
<path class="st2" d="M789,396.2l-0.1,26.9l-5.6-3.6l0.1-26.9L789,396.2z"/>
<path class="st0" d="M711,392L711,419l-13.2,4.4l0.1-26.9L711,392z"/>
<path class="st2" d="M775.8,387.1l-0.1,26.9l-3.7,9.9l0.1-26.9L775.8,387.1z"/>
<path class="st2" d="M772.1,397l-0.1,26.9l-3.9-5.8l0.1-26.9L772.1,397z"/>
<path class="st0" d="M1225,395.4l-0.1,26.9l-2.3,3.6l0-26.9L1225,395.4z"/>
<path class="st2" d="M1186.7,393.6l-0.1,26.9l-16.3,6.2l0.1-26.9L1186.7,393.6z"/>
<path class="st0" d="M789,396.2l-0.1,26.9l-3.4,2.8l0.1-26.9L789,396.2z"/>
<path class="st0" d="M780.5,399l-0.1,26.9l5.1,0l0.1-26.9L780.5,399z"/>
<path class="st2" d="M768.1,391.1l-0.1,26.9l-10.4,7.8l0.1-26.9L768.1,391.1z"/>
<path class="st2" d="M1170.4,399.9l-0.1,26.9l-5.3,0.6l0.1-26.9L1170.4,399.9z"/>
<path class="st2" d="M752.7,399.9l-0.1,26.9l-3.6-5.4l0.1-26.9L752.7,399.9z"/>
<path class="st2" d="M757.7,398.9l-0.1,26.9l-5.1,1l0.1-26.9L757.7,398.9z"/>
<path class="st9" d="M610.6,392.9l-0.1,26.9l-4.8,6.8l0.1-26.9L610.6,392.9z"/>
<path class="st2" d="M1095.6,401.1l-0.1,26.9l-16-5.3l0.1-26.9L1095.6,401.1z"/>
<path class="st2" d="M611.7,400.9l-0.1,26.9l-5.9-1.2l0.1-26.9L611.7,400.9z"/>
<path class="st0" d="M697.8,396.4l-0.1,26.9l-0.9,5.8l0.1-26.9L697.8,396.4z"/>
<path class="st2" d="M1165.1,400.4l-0.1,26.9l-1.7,3.2l0.1-26.9L1165.1,400.4z"/>
<path class="st0" d="M780.5,399l-0.1,26.9l-0.3,4.2l0.1-26.9L780.5,399z"/>
<path class="st2" d="M634.8,403.4l-0.1,26.9l-9.6-0.8l0.1-26.9L634.8,403.4z"/>
<path class="st0" d="M1218,389.3l-0.1,26.9l-20.6,17.7l0.1-26.9L1218,389.3z"/>
<path class="st0" d="M1215.1,404.9l-0.1,26.9l-0.2-5.1l0.1-26.9L1215.1,404.9z"/>
<path class="st7" d="M1219.2,396.2l5.8-0.8l-2.3,3.6l-7.7,5.9l-0.2-5.1l3.2-3.5L1219.2,396.2z"/>
<path class="st0" d="M1222.7,399l0,26.9l-7.7,5.9l0.1-26.9L1222.7,399z"/>
<path class="st2" d="M1163.4,403.7l-0.1,26.9l-4.2,1.2l0.1-26.9L1163.4,403.7z"/>
<path class="st0" d="M697,402.3l-0.1,26.9l-3.9,2.2l0.1-26.9L697,402.3z"/>
<path class="st9" d="M772.1,397l-0.1,26.9l-12.1,8L760,405L772.1,397z"/>
<path class="st0" d="M679,405.7l-0.1,26.9l-11.5-11.7l0.1-26.9L679,405.7z"/>
<path class="st0" d="M765.6,406l-0.1,26.9l-5.6-1L760,405L765.6,406z"/>
<path class="st2" d="M625.2,402.5l-0.1,26.9l-4.5,3.2l0.1-26.9L625.2,402.5z"/>
<path class="st2" d="M614,406l-0.1,26.9l-2.2-5l0.1-26.9L614,406z"/>
<path class="st2" d="M620.7,405.8l-0.1,26.9l-6.8,0.2L614,406L620.7,405.8z"/>
<path class="st9" d="M704.3,408.1l-0.1,26.9l-7.3-5.9l0.1-26.9L704.3,408.1z"/>
<path class="st2" d="M795.1,404.5l-0.1,26.9l-5.6,4l0.1-26.9L795.1,404.5z"/>
<path class="st2" d="M789.5,408.5l-0.1,26.9l-9.3-5.2l0.1-26.9L789.5,408.5z"/>
<path class="st2" d="M806.1,408.7l-0.1,26.9l-11-4.2l0.1-26.9L806.1,408.7z"/>
<path class="st9" d="M709.6,408.5l-0.1,26.9l-5.3-0.4l0.1-26.9L709.6,408.5z"/>
<path class="st0" d="M683.4,409.7l-0.1,26.9l-4.5-4l0.1-26.9L683.4,409.7z"/>
<path class="st0" d="M766.2,410l-0.1,26.9l-0.6-4l0.1-26.9L766.2,410z"/>
<path class="st1" d="M634.8,403.4l-0.1,26.9l-1.7,7.3l0.1-26.9L634.8,403.4z"/>
<path class="st2" d="M648.3,409l-0.1,26.9l-15.2,1.6l0.1-26.9L648.3,409z"/>
<path class="st2" d="M1159.2,404.9l-0.1,26.9l-16.3,7.6l0.1-26.9L1159.2,404.9z"/>
<path class="st2" d="M679,405.7l-0.1,26.9l-4.2,7.4l0.1-26.9L679,405.7z"/>
<path class="st9" d="M730.7,411.2l-0.1,26.9l-8.4,2.2l0.1-26.9L730.7,411.2z"/>
<path class="st1" d="M1074.8,414.4l-0.1,26.9l-0.5-17.9l0.1-26.9L1074.8,414.4z"/>
<path class="st9" d="M733.2,413.8l-0.1,26.9l-2.5-2.6l0.1-26.9L733.2,413.8z"/>
<path class="st2" d="M674.7,413.1l-0.1,26.9l-25.3,0.6l0.1-26.9L674.7,413.1z"/>
<path class="st2" d="M649.4,413.7l-0.1,26.9l-1.1-4.6l0.1-26.9L649.4,413.7z"/>
<path class="st10" d="M637.9,354.4l1.7,3l8.7,0.2l15.7,8.7l5.3-0.4l3.1-5l26.4,7.5v2l3.1,3.8l-12.1,1.2l-4.8,8.7l-13.8-1l-4,10.9
	l11.5,11.7l-4.2,7.4l-25.3,0.6l-1.1-4.6l-15.2,1.6l1.7-7.3l-9.6-0.8l-4.5,3.2L614,406l-2.2-5l-5.9-1.2l4.8-6.8l-4.8-4l11.6-14.1
	l10.1-4.8l-2.5-6.3l3.7-3l-2.3-2.8l2.8-2.6l2.8,0.6L637.9,354.4z"/>
<path class="st0" d="M693,404.5l-0.1,26.9l-7.6,9.7l0.1-26.9L693,404.5z"/>
<path class="st0" d="M685.4,414.1l-0.1,26.9l-2-4.4l0.1-26.9L685.4,414.1z"/>
<path class="st8" d="M722.9,361.4l6.2,11.1l-0.9,3.4l-4.8,1.4l-6.2,0.4l-0.6,2.8l-4.8,5.2L711,392l-13.2,4.4l-0.9,5.8l-3.9,2.2
	l-7.6,9.7l-2-4.4l-4.5-4L667.4,394l4-10.9l13.8,1l4.8-8.7l12.1-1.2l-3.1-3.8v-2l1.7-2.6l7.9,3L722.9,361.4z"/>
<path class="st0" d="M1197.4,407l-0.1,26.9l-1.1,9.9l0.1-26.9L1197.4,407z"/>
<path class="st9" d="M766.2,410l-0.1,26.9l-4.8,6.2l0.1-26.9L766.2,410z"/>
<path class="st2" d="M1142.8,412.5l-0.1,26.9l-23.3,6l0.1-26.9L1142.8,412.5z"/>
<path class="st9" d="M744.5,418.3l-0.1,26.9l-7-2.4l0.1-26.9L744.5,418.3z"/>
<path class="st2" d="M733.2,413.8l-0.1,26.9l-0.9,4.4l0.1-26.9L733.2,413.8z"/>
<path class="st9" d="M737.5,415.8l-0.1,26.9l-5.1,2.4l0.1-26.9L737.5,415.8z"/>
<path class="st9" d="M722.3,413.4l-0.1,26.9l-7.3,5.8l0.1-26.9L722.3,413.4z"/>
<path class="st9" d="M714.9,419.2l-0.1,26.9l-5.3-10.7l0.1-26.9L714.9,419.2z"/>
<path class="st9" d="M747,420.9l-0.1,26.9l-2.5-2.6l0.1-26.9L747,420.9z"/>
<path class="st9" d="M476.1,420.4l-0.1,26.9l-15.5-21l0.1-26.9L476.1,420.4z"/>
<path class="st0" d="M1196.3,416.8l-0.1,26.9l-9.3,6l0.1-26.9L1196.3,416.8z"/>
<path class="st0" d="M764.5,422.5l-0.1,26.9l-3.1-6.3l0.1-26.9L764.5,422.5z"/>
<path class="st9" d="M764.5,422.5l-0.1,26.9l-4.8-1l0.1-26.9L764.5,422.5z"/>
<path class="st0" d="M770.1,421.9l-0.1,26.9l-5.6,0.6l0.1-26.9L770.1,421.9z"/>
<path class="st0" d="M806.1,408.7l-0.1,26.9l-9.6,14.1l0.1-26.9L806.1,408.7z"/>
<path class="st10" d="M1173.6,363.8l20,3.7l0.6,5.9l-1.4,7l-0.3,5l-5.7,8.3l-16.3,6.2l-5.4,0.6l-1.7,3.2l-4.2,1.2l-16.3,7.6l-23.3,6
	l-2,5.2l-21.9-22.6l-16-5.3l-1.1-9.1l3.1-6l31.8-8.2l45-8.2L1173.6,363.8z"/>
<path class="st2" d="M1119.5,418.5l-0.1,26.9l-2,5.2l0.1-26.9L1119.5,418.5z"/>
<path class="st2" d="M1117.5,423.7l-0.1,26.9l-21.9-22.6l0.1-26.9L1117.5,423.7z"/>
<path class="st9" d="M759.7,421.5l-0.1,26.9l-3.9,2.8l0.1-26.9L759.7,421.5z"/>
<path class="st2" d="M747,420.9l-0.1,26.9l-1.4,3.4l0.1-26.9L747,420.9z"/>
<path class="st9" d="M745.6,424.3l-0.1,26.9l10.1,0l0.1-26.9L745.6,424.3z"/>
<path class="st8" d="M750.5,369.1l2.2,1.2l-0.8,3.6l5.3,1.2l7.6,3.4l-1.7,7.7l-8.2,0l-5.9,8.3l3.6,5.4l5.1-1l10.4-7.8l3.9,5.8
	l-12.1,8l5.6,1l0.6,4l-4.8,6.2l3.1,6.3l-4.8-1l-3.9,2.8l-10.1,0l1.4-3.4l-2.5-2.6l-7-2.4l-5.1,2.4l0.9-4.4l-2.5-2.6l-8.4,2.2
	l-7.3,5.8l-5.3-10.7l-5.3-0.4l-7.3-5.9l0.9-5.8L711,392l0.9-6.2l4.8-5.2l0.6-2.8l6.2-0.4l4.8-1.4l0.9-3.4l4.2,0l3.7,3.2l9.6-1
	l0.6-4.2L750.5,369.1z"/>
<path class="st2" d="M745.6,424.3l-0.1,26.9l-3.1,0.8l0.1-26.9L745.6,424.3z"/>
<path class="st0" d="M1187,422.9l-0.1,26.9l-1.1,4.2l0-26.9L1187,422.9z"/>
<path class="st0" d="M777.4,427.8l-0.1,26.9l-7.3-5.9l0.1-26.9L777.4,427.8z"/>
<path class="st2" d="M796.5,429l-0.1,26.9l0-6.2l0.1-26.9L796.5,429z"/>
<path class="st1" d="M685.4,414.1l-0.1,26.9l-1.4,15.1l0.1-26.9L685.4,414.1z"/>
<path class="st1" d="M744.8,429.6l-0.1,26.9l7.6,0l0.1-26.9L744.8,429.6z"/>
<path class="st1" d="M744.7,429.5l-0.1,26.9l-2.2-4.4l0.1-26.9L744.7,429.5z"/>
<path class="st9" d="M542.8,427.6l-0.1,26.9l-6.5,2.8l0.1-26.9L542.8,427.6z"/>
<path class="st9" d="M536.3,430.4l-0.1,26.9l-10.1-3.8l0.1-26.9L536.3,430.4z"/>
<path class="st2" d="M730.7,431.3l-0.1,26.9l-4.8-5.8l0.1-26.9L730.7,431.3z"/>
<path class="st0" d="M1197.4,426.9l-0.1,26.9l-8.7,5.6l0.1-26.9L1197.4,426.9z"/>
<path class="st9" d="M486.8,431.1l-0.1,26.9l-10.7-10.7l0.1-26.9L486.8,431.1z"/>
<path class="st2" d="M725.9,425.5l-0.1,26.9l-9.3,7.2l0.1-26.9L725.9,425.5z"/>
<path class="st9" d="M549.8,432.6l-0.1,26.9l-7-5l0.1-26.9L549.8,432.6z"/>
<path class="st9" d="M526.2,426.6l-0.1,26.9l-4.8,6l0.1-26.9L526.2,426.6z"/>
<path class="st0" d="M786.4,433.2l-0.1,26.9l-9-5.5l0.1-26.9L786.4,433.2z"/>
<path class="st2" d="M811.1,433.9l-0.1,26.9l-14.6-4.9l0.1-26.9L811.1,433.9z"/>
<path class="st0" d="M1188.7,432.5l-0.1,26.9l-1.1,3.6l0.1-26.9L1188.7,432.5z"/>
<path class="st0" d="M1133.5,436l-0.1,26.9l-16-12.3l0.1-26.9L1133.5,436z"/>
<path class="st1" d="M786.4,433.2l-0.1,26.9l-9,2.2l0.1-26.9L786.4,433.2z"/>
<path class="st9" d="M521.4,432.6l-0.1,26.9l-11.8,2.4l0.1-26.9L521.4,432.6z"/>
<path class="st9" d="M587.2,428.7l-0.1,26.9l-3.9,7l0.1-26.9L587.2,428.7z"/>
<path class="st9" d="M575.1,435.7l-0.1,26.9l8.2,0l0.1-26.9L575.1,435.7z"/>
<path class="st1" d="M774.8,438.3l-0.1,26.9l-7-0.4l0.1-26.9L774.8,438.3z"/>
<path class="st1" d="M777.4,435.4l-0.1,26.9l-2.5,2.8l0.1-26.9L777.4,435.4z"/>
<path class="st9" d="M509.6,435l-0.1,26.9l-5.1,3l0.1-26.9L509.6,435z"/>
<path class="st9" d="M504.5,438l-0.1,26.9l-17.7-6.9l0.1-26.9L504.5,438z"/>
<path class="st0" d="M811.1,433.9l-0.1,26.9l-9.6,4.8l0.1-26.9L811.1,433.9z"/>
<path class="st0" d="M719.1,438.6l-0.1,26.9l-2.5-5.8l0.1-26.9L719.1,438.6z"/>
<path class="st8" d="M759.7,421.5l4.8,1l5.6-0.6l7.3,5.9l9,5.5l-9,2.2l-2.5,2.8l-7-0.4l-5.3,1.8l-10.1-10.1l-7.6,0l-2.2-4.4l3.1-0.8
	l10.1,0L759.7,421.5z"/>
<path class="st1" d="M762.5,439.6l-0.1,26.9l-10.1-10.1l0.1-26.9L762.5,439.6z"/>
<path class="st1" d="M767.8,437.8l-0.1,26.9l-5.3,1.8l0.1-26.9L767.8,437.8z"/>
<path class="st2" d="M732.4,440.2l-0.1,26.9l-1.7-8.9l0.1-26.9L732.4,440.2z"/>
<path class="st0" d="M732.4,440.2l-0.1,26.9l-13.2-1.6l0.1-26.9L732.4,440.2z"/>
<path class="st7" d="M725.9,425.5l4.8,5.8l1.7,8.9l-13.2-1.6l-2.5-5.8L725.9,425.5z"/>
<path class="st2" d="M516,440L516,467l-11.5-2l0.1-26.9L516,440z"/>
<path class="st0" d="M745,442.2l-0.1,26.9l-0.3-12.7l0.1-26.9L745,442.2z"/>
<path class="st9" d="M575.1,435.7l-0.1,26.9l-11,7l0.1-26.9L575.1,435.7z"/>
<path class="st2" d="M738.3,443.8l-0.1,26.9l-5.9-3.6l0.1-26.9L738.3,443.8z"/>
<path class="st2" d="M745,442.2l-0.1,26.9l-6.8,1.6l0.1-26.9L745,442.2z"/>
<path class="st9" d="M550.6,443.5l-0.1,26.9l-0.8-10.9l0.1-26.9L550.6,443.5z"/>
<path class="st9" d="M564.1,442.7l-0.1,26.9l-13.5,0.8l0.1-26.9L564.1,442.7z"/>
<path class="st1" d="M1133.5,436l-0.1,26.9l-1.7,9.3l0.1-26.9L1133.5,436z"/>
<path class="st0" d="M801.6,438.7l-0.1,26.9l-0.9,7.2l0.1-26.9L801.6,438.7z"/>
<path class="st2" d="M527.5,445.5l-0.1,26.9l-11.8-3.6l0.1-26.9L527.5,445.5z"/>
<path class="st2" d="M719.1,438.6l-0.1,26.9l-4.8,7.8l0.1-26.9L719.1,438.6z"/>
<path class="st1" d="M684,429.2l-0.1,26.9l-18.9,17.7l0.1-26.9L684,429.2z"/>
<path class="st1" d="M665.1,446.9l-0.1,26.9l-5.6,1.2l0.1-26.9L665.1,446.9z"/>
<path class="st2" d="M672.4,448.6l-0.1,26.9l-7.3-1.6l0.1-26.9L672.4,448.6z"/>
<path class="st0" d="M1194.3,434.9l-0.1,26.9l-5.9,14.9l0.1-26.9L1194.3,434.9z"/>
<path class="st0" d="M1174.3,449.8l-0.1,26.9l-1.1-2.2l0.1-26.9L1174.3,449.8z"/>
<path class="st0" d="M1169.2,451.8l-0.1,26.9l-2.2-0.2l0.1-26.9L1169.2,451.8z"/>
<path class="st0" d="M1173.2,447.6l-0.1,26.9l-3.9,4.2l0.1-26.9L1173.2,447.6z"/>
<path class="st1" d="M745,442.2l-0.1,26.9l-2.5,9.3l0.1-26.9L745,442.2z"/>
<path class="st0" d="M1167,451.6l-0.1,26.9l-2.3,1l0.1-26.9L1167,451.6z"/>
<path class="st1" d="M1042.9,452.6l-0.1,26.9l-8.7-3.2l0.1-26.9L1042.9,452.6z"/>
<path class="st0" d="M1188.4,449.8l-0.1,26.9l-2.8,3.6l0.1-26.9L1188.4,449.8z"/>
<path class="st2" d="M539.9,452.2l-0.1,26.9l-12.4-6.7l0.1-26.9L539.9,452.2z"/>
<path class="st10" d="M526.2,426.6l10.1,3.8l6.5-2.8l7,5l0.8,10.9l-10.7,8.6l-12.4-6.7l-11.8-3.6l0.3-1.8l-11.5-2l5.1-3l11.8-2.4
	L526.2,426.6z"/>
<path class="st2" d="M550.6,443.5l-0.1,26.9l-10.7,8.6l0.1-26.9L550.6,443.5z"/>
<path class="st0" d="M1174.3,453.6l-0.1,26.9l0-3.8l0.1-26.9L1174.3,453.6z"/>
<path class="st0" d="M800.7,445.9l-0.1,26.9l-1.4,7.1l0.1-26.9L800.7,445.9z"/>
<path class="st2" d="M714.4,446.4l-0.1,26.9l-4.2,6.6l0.1-26.9L714.4,446.4z"/>
<path class="st2" d="M710.1,453.1l-0.1,26.9l-5-2.6l0.1-26.9L710.1,453.1z"/>
<path class="st2" d="M705.1,450.4l-0.1,26.9l-7,2.8l0.1-26.9L705.1,450.4z"/>
<path class="st0" d="M1167.5,453l-0.1,26.9l-1.7,2.6l0.1-26.9L1167.5,453z"/>
<path class="st2" d="M698,453.2l-0.1,26.9l-10.4,1.6l0.1-26.9L698,453.2z"/>
<path class="st9" d="M660,456l-0.1,26.9l-0.6-7.9l0.1-26.9L660,456z"/>
<path class="st0" d="M1185.5,453.5l-0.1,26.9l-0.6,4.2l0.1-26.9L1185.5,453.5z"/>
<path class="st1" d="M624.6,455.9l-0.1,26.9l-9.3,0.6l0.1-26.9L624.6,455.9z"/>
<path class="st0" d="M1132.1,457.8l-0.1,26.9l-0.3-12.5l0.1-26.9L1132.1,457.8z"/>
<path class="st2" d="M835.3,457.3l-0.1,26.9l-9.6-4.2l0.1-26.9L835.3,457.3z"/>
<path class="st1" d="M1018.2,455.6l-0.1,26.9l-0.6,2.4l0.1-26.9L1018.2,455.6z"/>
<path class="st1" d="M826.6,458.1l-0.1,26.9l-0.8-5l0.1-26.9L826.6,458.1z"/>
<path class="st2" d="M808,458.1L808,485l-8.7-5l0.1-26.9L808,458.1z"/>
<path class="st2" d="M818.2,457.1l-0.1,26.9l-10.1,1l0.1-26.9L818.2,457.1z"/>
<path class="st0" d="M1165.9,455.6l-0.1,26.9l-4,3.8l0.1-26.9L1165.9,455.6z"/>
<path class="st0" d="M1161.9,459.5l-0.1,26.9l-7.9,0.2l0.1-26.9L1161.9,459.5z"/>
<path class="st1" d="M657.5,458.2l-0.1,26.9l-26.2,0.4l0.1-26.9L657.5,458.2z"/>
<path class="st1" d="M631.3,458.6l-0.1,26.9l-6.8-2.6l0.1-26.9L631.3,458.6z"/>
<path class="st1" d="M717.2,459.3l-0.1,26.9l-7-6.3l0.1-26.9L717.2,459.3z"/>
<path class="st1" d="M1007.2,459.8l-0.1,26.9l-8.7,0.2l0.1-26.9L1007.2,459.8z"/>
<path class="st1" d="M998.5,460l-0.1,26.9l-5.3-6.3l0.1-26.9L998.5,460z"/>
<path class="st1" d="M719.4,459.7l-0.1,26.9l-2.2-0.4l0.1-26.9L719.4,459.7z"/>
<path class="st1" d="M722.8,456.5l-0.1,26.9l-3.4,3.2l0.1-26.9L722.8,456.5z"/>
<path class="st0" d="M1177.1,460.9l0,26.9l-5.6-2.2l0.1-26.9L1177.1,460.9z"/>
<path class="st2" d="M826.6,458.1l-0.1,26.9l-3.7,2.6l0.1-26.9L826.6,458.1z"/>
<path class="st2" d="M822.9,460.7l-0.1,26.9l-4.8-3.6l0.1-26.9L822.9,460.7z"/>
<path class="st0" d="M743.9,460.6l-0.1,26.9l-1.4-9.1l0.1-26.9L743.9,460.6z"/>
<path class="st1" d="M743.9,460.6l-0.1,26.9l-7-1.8l0.1-26.9L743.9,460.6z"/>
<path class="st2" d="M675.8,460.8l-0.1,26.9l-3.4-12.3l0.1-26.9L675.8,460.8z"/>
<path class="st9" d="M666.2,461.2l-0.1,26.9l-6.2-5.3L660,456L666.2,461.2z"/>
<path class="st2" d="M687.6,454.8l-0.1,26.9l-8.7,6.6l0.1-26.9L687.6,454.8z"/>
<path class="st10" d="M697,402.3l7.3,5.9l5.3,0.4l5.3,10.7l7.3-5.8l8.4-2.2l2.5,2.6l-0.9,4.4l5.1-2.4l7,2.4l2.5,2.6l-1.4,3.4
	l-3.1,0.8l2.2,4.4l0.3,12.7l-6.8,1.6l-5.9-3.6l-1.7-8.9l-4.8-5.8l-9.3,7.2l2.5,5.8l-4.8,7.8l-4.2,6.6l-5-2.6l-7,2.8l-10.4,1.6
	l-8.7,6.6l-3.1-0.6l-3.4-12.3l-7.3-1.6l18.9-17.7l1.4-15.1l7.6-9.7L697,402.3z"/>
<path class="st2" d="M678.9,461.5l-0.1,26.9l-3.1-0.6l0.1-26.9L678.9,461.5z"/>
<path class="st1" d="M728.4,461.7l-0.1,26.9l-5.6-5.2l0.1-26.9L728.4,461.7z"/>
<path class="st8" d="M719.1,438.6l13.2,1.6l5.9,3.6l6.8-1.6l-2.5,9.3l1.4,9.1l-7-1.8l-8.5,3l-5.6-5.2l-3.4,3.2l-2.2-0.4l-7-6.3
	l4.2-6.6L719.1,438.6z"/>
<path class="st1" d="M736.8,458.7l-0.1,26.9l-8.5,3l0.1-26.9L736.8,458.7z"/>
<path class="st0" d="M1185,457.7l-0.1,26.9l-2.8,6l0.1-26.9L1185,457.7z"/>
<path class="st1" d="M666.2,461.2l-0.1,26.9l-2.5,1.4l0.1-26.9L666.2,461.2z"/>
<path class="st1" d="M663.7,462.6l-0.1,26.9l-6.2-4.4l0.1-26.9L663.7,462.6z"/>
<path class="st1" d="M550.3,463.3l-0.1,26.9l-10.4-11.1l0.1-26.9L550.3,463.3z"/>
<path class="st0" d="M1179.3,464.7l-0.1,26.9l-2.2-3.8l0-26.9L1179.3,464.7z"/>
<path class="st0" d="M822.9,460.7l-0.1,26.9l-2.8,3.8l0.1-26.9L822.9,460.7z"/>
<path class="st0" d="M1154,459.7l-0.1,26.9l-4.2,7.1l0.1-26.9L1154,459.7z"/>
<path class="st0" d="M1179.6,467.1l-0.1,26.9l-0.3-2.4l0.1-26.9L1179.6,467.1z"/>
<path class="st0" d="M1181,467.8l-0.1,26.9l-1.4-0.6l0.1-26.9L1181,467.8z"/>
<path class="st0" d="M1182.2,463.7l-0.1,26.9l-1.1,4l0.1-26.9L1182.2,463.7z"/>
<path class="st9" d="M1007.2,459.8l-0.1,26.9l-0.6,7.9l0.1-26.9L1007.2,459.8z"/>
<path class="st1" d="M615.3,456.5l-0.1,26.9l-2.5,10.3l0.1-26.9L615.3,456.5z"/>
<path class="st0" d="M1132.9,468.1l-0.1,26.9l-0.8-10.3l0.1-26.9L1132.9,468.1z"/>
<path class="st0" d="M787.5,467.5l-0.1,26.9l-0.8-5.6l0.1-26.9L787.5,467.5z"/>
<path class="st2" d="M844.9,468.8l-0.1,26.9l-9.5-11.5l0.1-26.9L844.9,468.8z"/>
<path class="st1" d="M612.8,466.8l-0.1,26.9l-9.8,1.8l0.1-26.9L612.8,466.8z"/>
<path class="st0" d="M734.6,469.4l-0.1,26.9l-6.2-7.7l0.1-26.9L734.6,469.4z"/>
<path class="st2" d="M857.8,469.8l-0.1,26.9l-12.9-1l0.1-26.9L857.8,469.8z"/>
<path class="st0" d="M811.7,470l-0.1,26.9l-11-1.4l0.1-26.9L811.7,470z"/>
<path class="st0" d="M820.1,464.5l-0.1,26.9l-8.4,5.4l0.1-26.9L820.1,464.5z"/>
<path class="st0" d="M786.6,461.8l-0.1,26.9l-7.9,8l0.1-26.9L786.6,461.8z"/>
<path class="st1" d="M1132.9,468.1l-0.1,26.9l-4.8,5l0.1-26.9L1132.9,468.1z"/>
<path class="st1" d="M781.8,472.5l-0.1,26.9l-3.1-2.6l0.1-26.9L781.8,472.5z"/>
<path class="st1" d="M1014.8,473.7l-0.1,26.9l-8.2-6.1l0.1-26.9L1014.8,473.7z"/>
<path class="st0" d="M792.5,473.5l-0.1,26.9l-5-6l0.1-26.9L792.5,473.5z"/>
<path class="st0" d="M800.7,468.5l-0.1,26.9l-8.2,5l0.1-26.9L800.7,468.5z"/>
<path class="st2" d="M860.9,473.9l-0.1,26.9l-3.1-4l0.1-26.9L860.9,473.9z"/>
<path class="st0" d="M746.9,473.9l-0.1,26.9l-12.4-4.5l0.1-26.9L746.9,473.9z"/>
<path class="st1" d="M1027.2,474.7l-0.1,26.9l-12.4-1l0.1-26.9L1027.2,474.7z"/>
<path class="st1" d="M1030,470.9l-0.1,26.9l-2.8,3.8l0.1-26.9L1030,470.9z"/>
<path class="st1" d="M1053.9,475l-0.1,26.9l-23.9-4.1l0.1-26.9L1053.9,475z"/>
<path class="st0" d="M1133.2,474.3l-0.1,26.9l-4.8,1l0.1-26.9L1133.2,474.3z"/>
<path class="st0" d="M1128.4,475.3l-0.1,26.9l-0.3-2.2l0.1-26.9L1128.4,475.3z"/>
<path class="st1" d="M602.9,468.6l-0.1,26.9l-0.6,5.8l0.1-26.9L602.9,468.6z"/>
<path class="st9" d="M608.3,473.6l-0.1,26.9l-5.9,0.8l0.1-26.9L608.3,473.6z"/>
<path class="st8" d="M605.8,399.7l5.9,1.2l2.2,5l6.7-0.2l4.5-3.2l9.6,0.8l-1.7,7.3l15.2-1.6l1.1,4.6l25.3-0.6l4.2-7.4l4.5,4l2,4.4
	l-1.4,15.1l-18.9,17.7l-5.6,1.2l0.6,7.9l6.2,5.3l-2.5,1.4l-6.2-4.4l-26.2,0.4l-6.7-2.6l-9.3,0.6l-2.5,10.3l-9.8,1.8l-0.6,5.8
	l-52-11.2l-10.4-11.1l10.7-8.6l13.5-0.8l11-7l8.2,0l3.9-7l-7.6-1.4l-2.8-8.7l2.3-4.8l-12.1-1.2l-0.8-3.2L605.8,399.7z"/>
<path class="st1" d="M602.4,474.4l-0.1,26.9l-52-11.2l0.1-26.9L602.4,474.4z"/>
<path class="st0" d="M781.8,472.5l-0.1,26.9l-5.1,2.8l0.1-26.9L781.8,472.5z"/>
<path class="st0" d="M776.8,475.3l-0.1,26.9l-10.7-1.8l0.1-26.9L776.8,475.3z"/>
<path class="st7" d="M1196.3,416.8l-9.3,6l-1.1,4.2l7.9-2l3.6,1.8l-8.7,5.6l-1.1,3.6l6.8-1.2l-5.9,14.9l-2.8,3.6l-0.6,4.2l-2.8,6
	l-1.1,4l-1.4-0.6l-0.3-2.4l-2.2-3.8l-5.6-2.2l2.8-5l0-3.8l-1.1-2.2l-3.9,4.2l-2.2-0.2l-2.3,1l2.8,0.4l-1.7,2.6l-3.9,3.8l-7.9,0.2
	l-4.2,7l-10.2,10.5l-6.5-2.8l-4.8,1l-0.3-2.2l4.8-5l-0.8-10.3l-0.3-12.5l1.7-9.3l-16-12.3l2-5.2l23.3-6l16.3-7.6l4.2-1.2l1.7-3.2
	l5.4-0.6l16.3-6.2l5.7-8.3l0.3-5l1.4-7l-0.6-5.9l12.7,0.8l3.4-2.8l-7.9-1.4l9-1l9.3,5.4l4.5,10.3l-6.5,10.5l-20.6,17.7L1196.3,416.8
	z"/>
<path class="st0" d="M1139.7,477.2l-0.1,26.9l-6.5-2.8l0.1-26.9L1139.7,477.2z"/>
<path class="st0" d="M1149.8,466.7l-0.1,26.9l-10.2,10.5l0.1-26.9L1149.8,466.7z"/>
<path class="st9" d="M617.3,476.3l-0.1,26.9l-9-2.6l0.1-26.9L617.3,476.3z"/>
<path class="st9" d="M973.1,477.1l-0.1,26.9l-11.2-3l0.1-26.9L973.1,477.1z"/>
<path class="st0" d="M766.1,473.5l-0.1,26.9l-9,3.2l0.1-26.9L766.1,473.5z"/>
<path class="st7" d="M775.8,387.1l3.6,0.2l3.9,5.2l5.6,3.6l-3.4,2.8l-5.1,0l-0.3,4.2l9.3,5.2l5.6-4l11,4.2l-9.6,14.1l0,6.2l14.6,4.9
	l-9.6,4.8l-0.9,7.2l-1.4,7.1l8.7,5l10.1-1l4.8,3.6l-2.8,3.8l-8.4,5.4l-11-1.4l-8.2,5l-5-6l-0.8-5.6l-7.9,8l3.1,2.6l-5.1,2.8
	l-10.7-1.8l-9,3.2l-10.1-2.8l-12.4-4.5l-6.2-7.7l8.5-3l7,1.8l-1.4-9.1l2.5-9.3l-0.3-12.7l7.6,0l10.1,10.1l5.3-1.8l7,0.4l2.5-2.8
	l9-2.2l-9-5.5l-7.3-5.9l-5.6,0.6l-3.1-6.3l4.8-6.2l-0.6-4l-5.6-1l12.1-8L775.8,387.1z"/>
<path class="st0" d="M757.1,476.7l-0.1,26.9l-10.1-2.8l0.1-26.9L757.1,476.7z"/>
<path class="st9" d="M1019.8,477.5l-0.1,26.9l-7.6-0.2l0.1-26.9L1019.8,477.5z"/>
<path class="st9" d="M930.1,477.8l-0.1,26.9l-3.1-10.3l0.1-26.9L930.1,477.8z"/>
<path class="st1" d="M1128.4,475.3l-0.1,26.9l-0.6,4.4l0.1-26.9L1128.4,475.3z"/>
<path class="st1" d="M1127.8,479.7l-0.1,26.9l-73.7,0.1l0.1-26.9L1127.8,479.7z"/>
<path class="st8" d="M1078.4,386.8l1.1,9.1l16,5.3l21.9,22.6l16,12.3l-1.7,9.3l0.3,12.5l0.8,10.3l-4.8,5l0.3,2.2l-0.6,4.4l-73.7,0.1
	l-0.3-4.8l-23.9-4.1l-2.8,3.8l-12.4-1l-8.2-6.1l0.6-7.9l-8.7,0.2l-5.3-6.3l20.8-2l4.2,3.8l-0.6,2.4l14.1,2.2l11.2-7.6l-8.7-3.2
	l14.9-7.6l15.5-9.7l2.6-12.3l7.6-5.4l-0.5-17.9L1078.4,386.8z"/>
<path class="st1" d="M1054.1,479.8l-0.1,26.9l-0.3-4.8l0.1-26.9L1054.1,479.8z"/>
<path class="st1" d="M860.9,473.9l-0.1,26.9l-5.4,6.8l0.1-26.9L860.9,473.9z"/>
<path class="st9" d="M1012.2,477.3l-0.1,26.9l-14.1,6.8l0.1-26.9L1012.2,477.3z"/>
<path class="st9" d="M946.4,485.9l-0.1,26.9l-16.3-8.1l0.1-26.9L946.4,485.9z"/>
<path class="st2" d="M882.8,485.8l-0.1,26.9l-0.3-3.8l0.1-26.9L882.8,485.8z"/>
<path class="st9" d="M974.2,488.1l-0.1,26.9l-1.1-11.1l0.1-26.9L974.2,488.1z"/>
<path class="st2" d="M861.4,488.4l-0.1,26.9l-5.9-7.7l0.1-26.9L861.4,488.4z"/>
<path class="st2" d="M882.5,481.9l-0.1,26.9l-21.1,6.4l0.1-26.9L882.5,481.9z"/>
<path class="st9" d="M946.4,489.5l-0.1,26.9l0-3.6l0.1-26.9L946.4,489.5z"/>
<path class="st9" d="M1035.3,492.5l-0.1,26.9l-15.5-14.9l0.1-26.9L1035.3,492.5z"/>
<path class="st9" d="M961.9,474l-0.1,26.9l-12.7,18.7l0.1-26.9L961.9,474z"/>
<path class="st9" d="M949.2,492.7l-0.1,26.9l-2.8-3.2l0.1-26.9L949.2,492.7z"/>
<path class="st9" d="M984.1,493.2l-0.1,26.9l-9.8-5.1l0.1-26.9L984.1,493.2z"/>
<path class="st9" d="M998.2,484.2l-0.1,26.9l-14.1,9l0.1-26.9L998.2,484.2z"/>
<path class="st2" d="M892.7,493.6l-0.1,26.9l-9.8-7.9l0.1-26.9L892.7,493.6z"/>
<path class="st1" d="M757.6,493.6l-0.1,26.9l-0.5-16.9l0.1-26.9L757.6,493.6z"/>
<path class="st9" d="M647.6,495.5l-0.1,26.9l-30.4-19.2l0.1-26.9L647.6,495.5z"/>
<path class="st9" d="M1054.1,479.8l-0.1,26.9l-0.3,16.9l0-26.9L1054.1,479.8z"/>
<path class="st9" d="M1035.9,496.7l-0.1,26.9l18,0l0.1-26.9L1035.9,496.7z"/>
<path class="st9" d="M1035.8,496.7l-0.1,26.9l-0.6-4.2l0.1-26.9L1035.8,496.7z"/>
<path class="st11" d="M993.1,453.7l5.3,6.3l8.7-0.2l-0.6,7.9l8.2,6.1l12.4,1l2.8-3.8l23.9,4.1l0.3,4.8l-0.3,16.9l-18,0l-0.5-4.2
	l-15.5-14.9l-7.6-0.2l-14.1,6.8l-14.1,9l-9.8-5.1l-1.1-11.1l-11.2-3l-12.7,18.7l-2.8-3.2l0-3.6l-16.3-8.1l-3.1-10.3l23.6-6.8
	l18.3,0.6l16-5.2L993.1,453.7z"/>
<path class="st2" d="M893.2,496.9l-0.1,26.9l-0.5-3.2l0.1-26.9L893.2,496.9z"/>
<path class="st2" d="M937.9,499.6l-0.1,26.9l-44.7-2.7l0.1-26.9L937.9,499.6z"/>
<path class="st10" d="M764,335.7l16,6.3l3.1,8.3l15.2,13.1l-1.4,6.8l-3.9-2.4l3.1-2.6l-12.9-13.5l3.9,12.5l3.9,2.4l0.8,3l8.7,13.9
	l28.1,28.2l12.1,21.8l18.3,14.9l25.6,3.9l15.5,5.5l9.3,10.3l6.8,1l11-1.6l3.1,10.3l16.3,8.1l0,3.6l2.8,3.2l-11.3,6.8l-44.7-2.7
	l-0.6-3.2l-9.8-7.9l-0.3-3.8l-21.1,6.4l-5.9-7.7l5.4-6.8l-3.1-4l-12.9-1l-9.5-11.5l-9.6-4.2l0.8,5l-3.7,2.6l-4.8-3.6l-10.1,1l-8.7-5
	l1.4-7.1l0.9-7.2l9.6-4.8l-14.6-4.9l0-6.2l9.6-14.1l-11-4.2l-5.6,4l-9.3-5.2l0.3-4.2l5.1,0l3.4-2.8l-5.6-3.6l-3.9-5.2l-3.6-0.2
	l-3.7,9.9l-3.9-5.8l-10.4,7.8l-5.1,1l-3.6-5.4l5.9-8.3l8.2,0l1.7-7.7l-7.6-3.4l-5.3-1.2l0.8-3.6l-2.2-1.2l-5.1-6.7l7.3-5.6l-4.5-4.8
	l4.8-1l4-8.3l-10.7-5.4L764,335.7z"/>
<path class="st2" d="M949.2,492.7l-0.1,26.9l-11.3,6.8l0.1-26.9L949.2,492.7z"/>
<path class="st1" d="M771.7,503.5l-0.1,26.9l-14.1-9.9l0.1-26.9L771.7,503.5z"/>
<path class="st9" d="M690.9,507.4l-0.1,26.9l-43.3-12l0.1-26.9L690.9,507.4z"/>
<path class="st9" d="M771.7,503.5l-0.1,26.9l-4.2,7.6l0.1-26.9L771.7,503.5z"/>
<path class="st9" d="M698.8,511.2l-0.1,26.9l-7.9-3.8l0.1-26.9L698.8,511.2z"/>
<path class="st9" d="M767.4,511.2l-0.1,26.9l-5.6,1.6l0.1-26.9L767.4,511.2z"/>
<path class="st9" d="M761.8,512.8l-0.1,26.9l-0.6,2.2l0.1-26.9L761.8,512.8z"/>
<path class="st9" d="M761.2,515l-0.1,26.9l-3.1,2l0.1-26.9L761.2,515z"/>
<path class="st9" d="M739.9,517.4l-0.1,26.9l-41.1-6.1l0.1-26.9L739.9,517.4z"/>
<path class="st1" d="M937.9,499.6l-0.1,26.9l-10.4,19.3l0.1-26.9L937.9,499.6z"/>
<path class="st9" d="M758.2,517l-0.1,26.9l-1.1,4.6l0.1-26.9L758.2,517z"/>
<path class="st8" d="M665.1,446.9l7.3,1.6l3.4,12.3l3.1,0.6l8.7-6.6l10.4-1.6l7-2.8l5,2.6l7,6.3l2.2,0.4l3.4-3.2l5.6,5.2l6.2,7.7
	l12.4,4.5l10.1,2.8l0.5,16.9l14.1,9.9l-4.2,7.6l-5.6,1.6l-0.6,2.2l-3.1,2l-1.1,4.6l-8.2,2.6l-9-6.9l-41.1-6.1l-7.9-3.8l-43.3-12
	l-30.4-19.2l-9-2.6l-5.9,0.8l0.6-5.8l9.8-1.8l2.5-10.3l9.3-0.6l6.7,2.6l26.2-0.4l6.2,4.4l2.5-1.4L660,456l-0.6-7.9L665.1,446.9z"/>
<path class="st9" d="M757,521.6l-0.1,26.9l-8.2,2.6l0.1-26.9L757,521.6z"/>
<path class="st9" d="M748.9,524.2l-0.1,26.9l-9-6.9l0.1-26.9L748.9,524.2z"/>
<path class="st1" d="M902.2,525.1l-0.1,26.9l-3.7-3l0.1-26.9L902.2,525.1z"/>
<path class="st1" d="M908.4,524.5l-0.1,26.9l-6.2,0.6l0.1-26.9L908.4,524.5z"/>
<path class="st1" d="M898.5,522.1l-0.1,26.9l-7.6,3.6l0.1-26.9L898.5,522.1z"/>
<path class="st1" d="M762.9,528.1l-0.1,26.9l-14.1-3.9l0.1-26.9L762.9,528.1z"/>
<path class="st0" d="M930,529.4l-0.1,26.9l-2.5-10.5l0.1-26.9L930,529.4z"/>
<path class="st1" d="M930,529.4l-0.1,26.9l-15.2-4.1l0.1-26.9L930,529.4z"/>
<path class="st1" d="M899.9,527.7l-0.1,26.9l-17.7,2.6l0.1-26.9L899.9,527.7z"/>
<path class="st0" d="M1077.7,521.8l-0.1,26.9L1076,559l0.1-26.9L1077.7,521.8z"/>
<path class="st0" d="M1076,532l-0.1,26.9l-1.7,0.4l0.1-26.9L1076,532z"/>
<path class="st0" d="M1053.8,532.4l-0.1,26.9l20.5,0l0.1-26.9L1053.8,532.4z"/>
<path class="st0" d="M1053.8,532.4l-0.1,26.9l-30.1,0.1l0.1-26.9L1053.8,532.4z"/>
<path class="st0" d="M937.6,532.8l-0.1,26.9l-7.6-3.4l0.1-26.9L937.6,532.8z"/>
<path class="st0" d="M930,533.2l-0.1,26.9l-1.1-1.8l0.1-26.9L930,533.2z"/>
<path class="st1" d="M930,533.2l-0.1,26.9l-23.6-4.9l0.1-26.9L930,533.2z"/>
<path class="st7" d="M930,533.2l-1.1-1.8l4.8,2.6L930,533.2z"/>
<path class="st0" d="M933.7,534l-0.1,26.9l-3.6-0.8l0.1-26.9L933.7,534z"/>
<path class="st1" d="M882.2,530.3l-0.1,26.9l-7.9,4l0.1-26.9L882.2,530.3z"/>
<path class="st1" d="M778.7,534.5l-0.1,26.9l-15.7-6.5l0.1-26.9L778.7,534.5z"/>
<path class="st1" d="M804.3,536.8l-0.1,26.9l-25.6-2.3l0.1-26.9L804.3,536.8z"/>
<path class="st1" d="M874.3,534.3l-0.1,26.9l-33.5,9l0.1-26.9L874.3,534.3z"/>
<path class="st1" d="M826.8,543.9l-0.1,26.9l-22.5-7.1l0.1-26.9L826.8,543.9z"/>
<path class="st8" d="M825.7,453.1l9.6,4.2l9.5,11.5l12.9,1l3.1,4l-5.4,6.8l5.9,7.7l21.1-6.4l0.3,3.8l9.8,7.9l0.6,3.2l44.7,2.7
	l-10.4,19.3l2.5,10.5l-15.2-4.1l0.6,2.2l13.5,3.8l1.1,1.8l-23.6-4.9l2-3.8l-6.2,0.6l-3.7-3l-7.6,3.6l9,2l-17.7,2.6l-7.9,4l-33.5,9
	l-14.1,0.6l-22.5-7.1l-25.6-2.3l-15.7-6.5l-14.1-3.9l8.2-2.6l1.1-4.6l3.1-2l0.6-2.2l5.6-1.6l4.2-7.6l-14.1-9.9l-0.5-16.9l9-3.2
	l10.7,1.8l5.1-2.8l-3.1-2.6l7.9-8l0.8,5.6l5,6l8.2-5l11,1.4l8.4-5.4l2.8-3.8l3.7-2.6L825.7,453.1z"/>
<path class="st1" d="M840.8,543.3l-0.1,26.9l-14.1,0.6l0.1-26.9L840.8,543.3z"/>
<path class="st0" d="M1023.7,532.5l-0.1,26.9l-14.9,18.1l0-26.9L1023.7,532.5z"/>
<path class="st0" d="M1008.8,550.7l0,26.9l-4.2,5.6l0.1-26.9L1008.8,550.7z"/>
<path class="st0" d="M977.5,558.3l-0.1,26.9l-41.3-24.4l0.1-26.9L977.5,558.3z"/>
<path class="st0" d="M1010.2,562.1l-0.1,26.9l-3.1,2.4l0.1-26.9L1010.2,562.1z"/>
<path class="st0" d="M1007.1,564.5l-0.1,26.9l-1.1,4.4l0.1-26.9L1007.1,564.5z"/>
<path class="st0" d="M1006.8,573l-0.1,26.9l-3.7,4.8l0.1-26.9L1006.8,573z"/>
<path class="st0" d="M1003.1,577.8l-0.1,26.9l-25.6-19.6l0.1-26.9L1003.1,577.8z"/>
<path class="st7" d="M1069,519.5l8.7,2.2L1076,532l-1.7,0.4l-20.5,0l-30.1,0.1l-14.9,18.1l-4.2,5.6l5.6,5.9l-3.1,2.4l-1.1,4.4l0.8,4
	l-3.7,4.8l-25.6-19.6l-41.3-24.4l1.4-1l-7.6-3.4l-2.5-10.5l10.4-19.3l11.3-6.8l12.7-18.7l11.2,3l1.1,11.1l9.8,5.1l14.1-9l14.1-6.8
	l7.6,0.2l15.5,14.9l0.5,4.2l11.3,6.9l8.4,4.9l7.6,2.2L1069,519.5z"/>
</svg>
