<?xml version="1.0" encoding="utf-8"?>
<!-- Generator: Adobe Illustrator 18.1.1, SVG Export Plug-In . SVG Version: 6.00 Build 0)  -->
<svg version="1.1" id="Layer_1" xmlns:amcharts="http://amcharts.com/ammap"
	 xmlns="http://www.w3.org/2000/svg" xmlns:xlink="http://www.w3.org/1999/xlink" x="0px" y="0px" viewBox="-144.5 823.6 612 385.5"
	 enable-background="new -144.5 823.6 612 385.5" xml:space="preserve">
	   <style>
    text {
      font-family: "helvetica";
    }
  </style>
<defs>
	
	
		<amcharts:ammap  rightLongitude="-86.725536" topLatitude="32.716750" bottomLatitude="14.531518" leftLongitude="-118.369112" projection="mercator">
		</amcharts:ammap>
</defs>
<g>
	<path class="mx-state is-blocked" id="MX-AGU" data-entidad-id="1" data-entidad-nombre="AGUASCALIENTES" fill="#CCCCCC" stroke="#262A27" stroke-width="0.5" d="M157.2,1063.8l-1.8-1.8l-0.1-0.9l0.9-2.2l2.5-3.6l0.7-2.5
		l0.8-0.5l1.4-0.3l2.7-1.5l0.9-0.7l0.3-1l0.5-0.2l0.6,1.1l1,1l3.4,2l0.5,1.9l0.8,1.5l0,0l0.2,0.5l-0.2,1.2l1.5,1.6l-3.3,1.5
		l-1.9,2.8l-0.5,0.4l-2.3,0.8l-1,0.1l-1.7-0.8l-1.3-1.1l-3.2-0.3L157.2,1063.8z"/>
	<text transform="matrix(1 0 0 1 -7.8117 1060.057)" font-family="'ArialMT'" font-size="7.7209">Aguascalientes</text>
	<path class="mx-state-disabled" id="MX-BCN" data-entidad-id="2" data-entidad-name="BAJA CALIFORNIA" fill="#CCCCCC" stroke="#262A27" stroke-width="0.5" d="M-62,930.8h-0.5l0,0l-0.6,0.1l0.1,0.3l-0.6,0.3h-0.5
		l-0.6,0.7l-0.2-0.5l0.2-0.6l2.4-2.9l0.5-0.1l0.1,0.8l-0.6,0.6v0.4L-62,930.8z M-83.1,921.5l0.5,0.3l0.5,2.2l-0.2,0.8l0.3,1.9
		l-0.5,0.7v1.6l-0.5-0.2l-0.4,0.2l-0.5-0.2l-0.5-1.1l-0.5-0.2l-0.8,0.5L-86,928l0.1-0.6l2.1-2.3l0.2-0.5l-0.5-1.2l0.4-1.5
		L-83.1,921.5z M-38.4,915l0.6,0.2l2.1,1.8l-0.4,0.3l-0.5-0.8l-1.3-0.7L-38.4,915z M-31.8,913.8l0.2,0.5l-0.2,0.8h-0.9l-0.2-1.2
		L-31.8,913.8z M-142.1,903.8l-0.5,1l0.1,0.8l1,0.9l0.2,2.2l-0.5,1.6l-0.6,0.2l-0.5-1.2l0.2-0.7l-0.5-0.3l-0.1-1.2l-0.9-0.9l0.3-0.8
		l-0.2-0.8l0.5-0.5h0.6L-142.1,903.8z M-51.1,895.8v0.4l0.8-0.4v0.2l0.7,0.2l1,1.2l0.6,0.3l0.8,1.7l-0.5,0.7l0.1,0.9l1.4,0.6
		l2.2-0.2l0.2,0.2l-0.2,3.3l0.5,1.3l0.9,0.3l-0.2,1.5l-2.3-1.6l-1.3-1.9l-2-1.4l-0.8-1.5l-1.1-0.2l-0.2-0.8l-1.5-1.9l-0.2-0.7
		l0.6-1.5l-0.2-0.8L-51.1,895.8z M-67.8,886l0.5,0.6l-0.3,0.1l-0.2-0.3V886z M-75.4,829.5L-76,830l-0.4-0.3h-1l-0.5,1.6l-0.4,0.4
		l-0.1,1l-1.4,1.9l1.1,1.5l-0.5,1.4l0.2,0.8l-0.3,2.1l0.3,0.8l-0.5,0.8l0.8,0.7l0.7,0.1l2.9,2.2l0,0l-0.4,1.3l0.7,3.1l-0.8,1.2
		l-0.5,1.9l-0.1,2.7l-0.6,2.5l0.2,0.5l-0.2,1.7l0.5,1.7l1.1,1l-0.4,0.5v0.5l2.2,1.4l0.5,2.7l-0.1,4l1.3,3.1v1.7l-0.2,1l0.2,0.6
		l-0.4,1.5l0.3,0.2l-0.5,1.7l0.8,1.6l0.5,0.3l1.3,3.1l0.9,0.5l0.2,0.7l0.8,0.1l0.5,0.7v1.4l0.3,0.7l0.6,0.2l0.3,0.5l0.9,0.1l0.2-0.7
		l1.4,0.6l0.9,1.2l0.2-0.1l0.8,0.9l0.7,0.4l0.5,0.8l1.2,0.6l1.6,1.8l1.2,0.6l0.1,0.5l1.1,0.5l1.5,1.9l1.1,0.9l0.2,0.7l-0.5,0.7v0.4
		l1.6,2l0.6,1.2l-0.5,0.9l0.3,1.2l-0.2,0.2l0.6,1.3l0.6,0.1l0.4-0.5l-0.3-0.3l0.3-0.5l0.4,0.2l0.4-0.3l0.3,0.6l0.5-0.1v0.3l0.3,0.1
		l0.1,1.6l0.3,0.7h0.8l1-0.8l0.8,0.5l1.1,3.5l0.6,0.6l0.5,2.7l2,1.2l1.9-0.5l0.4,0.3l0.1,0.5l0.6-0.1l0.1,0.5l-0.3,0.4l0.2,0.5
		l-0.5,2l1.5,2.2l-0.5,1.5l0.5,1.1l-0.3,0.9l0.7,0.5l0.2,0.8l-0.2,1.9l0,0l-0.5-1.3l-0.7-0.2l0,0l-24.5-0.1l0.2-0.4l-0.2-0.4l-0.1-1
		l0.7,0.9l0.6-1.1l-1.2-0.3l-0.2-1.3l1.2-2.3l-0.3-0.8l-0.7,0.4l-0.4-0.4l1-2.2l0.5-2.5l-1-1.7l-1.2-0.5l-0.1-1.5l-0.3-0.3l-1.7-0.1
		v-0.6l-0.3-0.4l-1.2-0.7l0.1-0.5l-0.4-0.9l-0.7-0.4l-0.6-1.2l-0.4-0.1l-0.2-0.5l-0.8-0.5l-0.8-0.1l-0.2,0.2l-0.4-0.8l-0.5-0.3
		l-0.2,0.2l-0.4-2l-0.5-0.8l-0.8-0.4l-0.5,0.2l-0.6-0.8l-0.2-1.1l-0.9-0.5l-0.1-0.3h-0.3l-2.6-3.2l-2.2-1.2l-2.3-0.3l-1.2-1.9
		l-1.9-0.9h-0.6l-1.5-1.5l-0.9,0.2l-1.5-1.7l-0.7-0.1l-1.5-1.2l0.2-1.9l-0.2-1.2l-0.8-1.2l-1.2-0.5l0.5-2.8l-0.4-0.9V879l-1.2-2
		l-1.6-0.9l0.2-1.1l-0.6-0.6l-0.2,0.3l0.4,0.7l-0.4,0.2l-0.4-0.5H-99l0.5,1l-0.2,0.1l-0.8-1.6l0.5-4.1l-0.5-2.8l-0.4-0.8l-0.5-0.1
		l-1.1-1h-0.4l-1.8-2.3l-1.2,0.2l-0.2-0.4l0.5-4.1l-1.1-2.1l-1.6-1.7l-1.4-2.4l-1-0.8l-0.5,0.1l-0.2-0.8l-1-0.7l-0.2-0.5l-0.3,0.1
		l-0.1-0.5l0.8-0.4l-0.3-0.7l0.4-0.9l-0.9-1.2l-0.2,0.1l-0.6-0.8l0.3-0.1l1.2,0.7l0.8-0.8l0.2-2l-0.3-0.5l-1-0.2l-0.5-0.6l-0.9-0.2
		l-0.3-1.4l-0.4-0.3h-0.9l-0.9-0.9l-0.1-2.3l-0.6-2.2l-0.4-0.6l-1.6-0.5l-0.4-0.5l-1.6-4.6v-1l46.5-4.2l-1.2,2.2l-0.5,0.2l0.4,1.4
		l-0.2,0.2L-75.4,829.5z"/>
	<text transform="matrix(0.5005 0.8657 -0.8657 0.5005 -94.4338 860.3636)" font-family="'ArialMT'" font-size="7.7205">Baja California</text>
	<path class="mx-state-disabled" id="MX-BCS" fill="#CCCCCC" stroke="#262A27" stroke-width="0.5" d="M-73.9,1131.5l1.2,0.3l-0.4,0.3l-1,0.2l-0.1-0.5
		L-73.9,1131.5z M-1.5,1121.5l0.8,0.5l0.5,0.8v1.4l-0.6,0.3l-0.3-0.5l-0.8-0.2l-0.6-1L-1.5,1121.5z M2.1,1112l0.2,0.5l-0.4,0.5
		l-0.2-0.5L2.1,1112z M18.9,1007.5l2.2,3.6l0.3,1.5l-1.2-0.2l-0.5-0.8l-0.8-2.9V1007.5z M-20.9,1004.3l2.4,0.2l0.8,1.1l0.7,0.1
		l0.6,0.5l1.2,1.9l-0.3,0.6l-5.3-3.9l-0.2-0.2L-20.9,1004.3z M10.6,1004l1.4,1.2l-0.7,1.5h-0.4v-0.5l-0.6-0.2l0.1-0.4l-0.4-0.5
		l0.2-0.5l-0.2-0.4L10.6,1004z M9.9,1003l0.7,1l-0.5,0.2l-0.5-0.3l-0.1-0.5L9.9,1003z M3.9,992l0.7,1.2l1.5,0.4l0.3,0.5l0.1,1.2
		l0.8,1.7L6.9,997l-2-1.5L4.4,994l-0.7-0.7L3.9,992z M-23.6,988.5l0.2,1.1l-0.8,2.6l0.1,2.4l-0.6,0.5l0.5,1l-0.2,0.8l-0.5,0.1
		l-0.2,0.4l0.2,0.5l0.8,1l-0.2,0.2l0.7,0.6l0.3,1l-0.5,0.8l0.7,0.6l1,1.4l-0.1,0.3l-0.8-0.4l-0.1-0.5l-1.2-1.5l0.2-0.4l0.5,0.1
		l0.2-0.4l-0.1-0.8l-0.6-0.8l-1-0.5l-0.9,0.3l-0.6-0.4v-0.3l0.3-0.1l1.5-4L-23.6,988.5z M4.2,987.8l-0.3,0.9l-0.4,0.2l-0.2-0.6
		L4.2,987.8z M-23,983.8l-0.1,3.4l-0.3,1.1l-0.4-0.3L-23,983.8z M-22.9,979.8l0.2,1.6l-0.2,1.9h-0.2L-22.9,979.8z M2.6,979l0.2,2.5
		l-0.5-0.3l-0.3-1L2.6,979z M-2.4,979L-2,980l-0.2,0.4l-0.3-0.2l-0.3-1.1L-2.4,979L-2.4,979z M-3,971.5l-0.4,0.8l0.3,1.3l-0.9-0.5
		l-1.3,2.1v0.7l-0.5,0.5v0.5l-0.5,0.1l-0.1-0.6l0.3-0.3l0.2-1.3l0.8-1.5l-0.2-1.2l0.8-0.2l0.2-0.3l0.5,0.3L-3,971.5z M-7,970
		l0.2,0.6l-0.3,0.1l-0.2-0.4L-7,970z M-44.7,957.3l1,0.2l0.6,1.2l-0.8-0.5l-1.5-0.4l-0.1-0.2L-44.7,957.3z M-22.8,946l0.8,0.8
		l-0.2,0.9l-0.5-0.2l-0.4-1.1L-22.8,946z M-18.9,941.5l0.3,0.1l0.2,0.5h-0.7l-0.2-0.4L-18.9,941.5z M-83.2,932l1.1,0.6l-0.1,0.4
		l-1.1-0.8L-83.2,932z M-62.5,930.8h0.5l0,0l0.3,0.3l0.2-0.3l24.5,0.1l0,0l0.7,0.2l0.5,1.3l0,0l-0.2,0.4l1,0.8l0.3,1.5l0.8,1h0.3
		l0.9,1.3l2.2,0.7l0.4,0.5l0.7,0.1l1.2,0.8l0.5,0.8l0.5,2.9l1.2,1.4l0.8,1.7l-0.3,0.6l2,1.6l1.9,0.5l0.4,0.5h0.7l0.1,0.5H-21
		l-0.7,0.8l-0.2,1.2l1.3,1.9l0.7,0.4v0.4l0.7,0.5l0.2,1.1l-0.5,0.5l-0.4,1l0.9,0.5l0.2,0.9l0.8,0.5l0.5,1.3l0.8,0.6l1.2-1.1
		l-2.5-2.9l-0.2-2.2l-0.5-1.2l0.5-0.4l1.5,1.1l0.5,0.8l1.1,0.7l0.4,0.6l1.7,1.1l-0.2,2.7l0.3,0.5l2.1,0.7l-0.5,1.2v0.9l0.8,1.5
		l0.5,0.2l0.2,0.4l0.1,0.8l-0.3,0.5l1.5,4l-0.5,0.8v0.9l-0.4,0.5l0.1,0.8l0.4,0.5v1.5l0.5,0.5v0.8L-7,979l0.2-0.2l0.6,2.4l1.4,1.9
		l2,0.2l-0.2,1.2l0.9,2.4l0.7,0.7l0.2,0.8l-0.2,0.2l0.3,1.2l0.5,0.6v0.8l0.5,0.4l0.3,1l0.7,0.4l0.4,0.7l0.4-0.1l0.6,0.5l0.2,1
		l1.2,1.7l0.5,1.6L4,999.3l-0.7,1.3l-0.7,0.7l-0.2,2.4l0.2,0.8l0.8,1.1l0.1,2.2l0.8,0.9l0.5,1.2L6,1011l3.3,0.8l0.9-0.1l0.1,0.2
		l-0.9,0.3l-0.6-0.5l-0.3,0.2l0.2,1.2l1.3-0.1v-0.6l0.9-0.8l0.1-0.8l-0.8-1.9l0.2-0.8l0.5-0.3l1.2,0.2v0.6l1.8,0.7l0.3,0.8l1.6,0.8
		l1.6,1.2l0.5,2.5l0.9,0.2l2-0.7v0.5l0.4,0.4l-0.5,0.7l0.2,1.6l2.5,2.5l-0.2,1.5l0.2,1.3l0.3,0.4l4.2,2l-0.2,0.6l1.1,1.6l-0.2,0.5
		l0.3,0.3l-0.4,3.4l-0.5,1l-1.5,1.8l-0.8,0.5l-1.7,0.2l-0.9,0.6v0.6l-1.6,0.8l-0.4,0.8l-0.7,0.5h-0.7l-0.5,0.5h-0.8l-1.9-1.5
		l-0.9-2.2l-1.2-5.5l-1.9-3.6l-1.5-1.8l-4.8-2.5l-9-8.9l-8.3-5l0.1-0.2l-0.9-0.9l-1.2-0.2l0.1-0.4l-0.5-0.1l-0.8-2.3l0.2-0.1
		l-0.4-0.5l-0.8-0.2l-0.1,0.8l-1.9-0.2l-0.1,0.6h-0.5l0.1-1.2l-0.5-1.5l-1.6-1.8l0.2-0.2l-0.5-0.4l-0.5,0.2l0.1,0.3l-1.2-0.2
		l-1.5-0.8l-0.2-0.5h0.4l0.1-0.6l-0.5-0.3l-0.2-0.6l0.5-0.8l-0.2-0.2l0.3-0.5l-0.3-0.1l0.2-0.4l-0.3-0.4l-0.5,0.7l0.2,0.6l-0.3,0.9
		l0.1,1.9h-0.5l-0.4-0.8l0.6-1.2l-0.5-1.1l0.6-0.4l0.5-1.3v-0.8l-0.7,0.1l0.2-1.5l0.7-1.5l0.2-1.4l0.5-0.1l0.1-1.9l-0.3,0.1l0.1-0.9
		l0.5-0.3l-0.3-0.2l-0.2-0.8l0.2-0.8h0.2l0.1-1.9l-0.1-1l-0.6-0.8l-0.2-2.2l-1.5-4.2l-0.8-0.9l-1.5-0.8l-0.7-2.2l-1.2-1.4l-1.2-0.3
		l-0.2,0.5l-0.3,0.2l-2.5-1.8l-0.5-0.2l-0.5,0.2l-0.6-0.9l-1.5-1.1v-0.3h-0.5l-2.8-2.3l0.8,0.1l1,0.7l0.1-0.2l-0.8-0.6l-0.8-0.2
		l-0.5,0.2l-1.8-1.5l0.2-0.2l-0.3-0.4l0.3-0.5l-1.3-1.6l-0.7-1.5l-0.3,0.8l-1.2-0.5l0.2-0.2l0.4,0.2l1.2-1.2l0.3-1l-0.6-2.2
		l-0.5,0.5l-0.3,2.5l-0.5,0.4l-0.5-0.2l-0.3,0.6l0.1,1.4l-0.3,0.1l-1.6-1l-1.2-0.2l0.2-0.4l0.4,0.3l0.1-0.3l-0.4-0.2l-1.1,0.2
		l-0.6,0.7l-0.3,0.9l-0.5,0.2v0.5l-0.5,0.3l-0.6-0.2l-0.6-0.4l-0.5-1.1l-1.2-0.3l-1.2-2.9l-1.4-1l-1.7-0.5l-0.3,0.2l-0.2,0.5h-0.3
		l-1-1l-0.8-1.5l-0.8-0.6l-0.9-0.5l-1.5-0.2l-0.6,0.5l-1.9-1.2l-0.4,0.3l-0.4-0.2l0.1-0.6l-0.5-0.3l-0.4,0.1l-0.2-0.3v-2.7l-0.4-1.2
		l-2.2-2l-2.5-0.9l-0.9-1.8l-1.3-1l-0.1-0.8l-0.5-0.4l-0.5,0.7l-0.6-0.3l-0.2-0.7l-0.8-0.4l-0.5,0.2l-0.8-2.2l-0.6-0.6l0.6-0.3
		l0.8,0.7l1.8-0.2l1.2,0.2l0.3,0.4l1.1-0.2l1.2,0.2l0.4,0.4l1.2,0.2l2.2-0.2l0.5,0.3l1.9-1l0.5,0.3l0.6-0.1l0.2-0.5h-0.5l0.8-0.9
		l0.7,0.2l-0.4,1.9l0.6,1l1.2,0.9l1,0.3l1,0.9l-0.1,0.3l0.6,0.2l0.8-0.8l0.1-0.7l1.6,0.5l1.2,2.3l0.7,0.1l0.5-0.9l-1.2-1.2l0.1-0.8
		l0.5,0.5l0.2-0.3l-0.5-0.3l0.2-0.5l-0.4-1.3l0.2-0.7l-1.4-1.1l-0.8,1.5l0.2,0.8l-2.5,0.9l-1.2-0.9l0.2-0.4l0.5,0.4l-0.5-1.5
		l0.9-1.3l-0.4-0.4L-62.5,930.8z"/>
	<text transform="matrix(0.5574 0.8302 -0.8302 0.5574 -39.6403 946.2879)" font-family="'ArialMT'" font-size="7.7203">Baja California Sur</text>
	<path class="mx-state-disabled" id="MX-CAM" fill="#CCCCCC" stroke="#262A27" stroke-width="0.5" d="M374.5,1123.3l0.4,0.6l-0.5,0.5l-0.4,0.2l-0.8-0.5
		l-0.4,0.2l0.3,0.2l-1.3,1l-0.4-0.5l-0.2,0.5l-1.6,0.7l-0.8,0.1l-0.4-0.5l0.2-0.2l1.9-0.3L374.5,1123.3z M396.7,1082.1l-0.2,5.6
		l3.2,0.4l0.8,1.5l0.4,0.2l0.8-0.3l0.7,0.8l0.4-0.1l0.3-0.8l0.6-0.5l0.3,0.2l0.8,1.4l-0.1,0.7l0.5,0.8l1.4,0.9l1.5,3.5l3,1.6
		l0.9,1.9l2.5,2.8l0.6,2.6l0.3,0.4l0,0l1,1.4l4.1,3.3l2.6,3.6l-0.2,4.6l-0.9,0.5l-0.3,0.5l0.2,1.9l-0.6,3.9l0.2,1l0.8,0.9l0.2,0.5
		l-0.4,1.1l0.6,0.4l-0.5,1.3l0.4,1.1l0.2,3.6l-0.5,1l-1.9,2.2l0.2,1.9l0,0v2.5h-35.5l0,0v-1.2l-3.1-1.2l-0.5,0.3l-0.6-0.7l-1.2-0.5
		l-1.2-1.2l-2.9-0.6l-2.2,0.1l-0.2,1l0.2,1.4l-0.2,0.5l-1.3,0.1l-1,0.5l-1.7-0.8l-1.2,0.1l-1-0.5l-0.7-1.1l-2.7-1.8l-0.9-1.4l-0.8-2
		l-0.4-0.2l0.2-1.5l-0.8-1.1l-0.3-0.2l-0.1,0.3l-0.4,0.1l-0.5-0.8h-0.8l-1.1-0.8l-0.5-0.7l-0.8-2.9l0,0l2.4-0.5l7.6-0.5l0.7,1.1
		l1.2,0.6l-0.5,0.9l-0.2-0.3l-0.2,0.2l-0.8-1l-0.5,0.7l-0.5-0.3l-0.2,0.2l0.2,0.5l-0.4,0.5l0.5,0.5l0.9-0.2l-0.4-0.8h0.6l0.2,0.4
		l0.5-0.1l0.8,0.5l0.2,0.5l5.3,1.3l1.1-0.1l0.2-0.5l0.5-0.5l3.5-1.2l0.6-2.2l0.5-0.2l0.2-1l-0.2-0.5l-0.8-0.8l-0.7,0.5l-0.9-0.5
		l-0.2-0.8l0.5-0.4l-0.1-0.6l0.8-0.8l-0.6,0.2l-0.5,1l-0.6,0.5h-0.4l-0.6,0.6l-0.1,0.5h-0.5v-0.2l1.9-2l5.3-2.9l3.7-2.7l3.8-3.5
		l0.4-0.7l-0.1-0.8l0.4-1.5l-0.2-1.7l0.5-1.4l-0.4-0.5v-0.5l0.7-0.8l0.2-0.8l2.9-2.2l1.1-1.9l-0.8-2.1l0.2-1.1l-0.3-1l0.3-0.2
		l-0.3-3.5l0.2-0.6l-0.4-2.6l1-2.8l0.3-2.3L396.7,1082.1z"/>
	<text transform="matrix(1 0 0 1 380.6436 1135.1709)" font-family="'ArialMT'" font-size="7.7209">Campeche</text>
	<path class="mx-state-disabled" id="MX-CHP" fill="#CCCCCC" stroke="#262A27" stroke-width="0.5" d="M324.8,1178.1l0.2-0.5l0,0l-0.1-0.3h0.3l0.6,0.9
		L324.8,1178.1z M324.5,1175.1v-0.6l0,0l-0.1-1.6l0.4-1.2l-1-2.2l0.1-0.7l1.7-4.9l2.2-2l0.6-2.7l0.6-0.8v-1.5l0.2-0.7l0,0l0.7-0.8
		l1.5-0.7l2.9-2.2l0,0l1.9-2.5l0.1-1.2l1.1-1.5l0.9-0.6l0.5-0.9l0.6-5.5l1.3-0.2l0.4-0.5l1.6,0.7l1.1,1.3l0.6,0.3l2.2-0.1l-0.2,1.3
		l-1.1,1.6l-0.1,0.5l0.3,0.7l1.6,1.7l-0.2,1.5l0.3,0.2l1-0.1l0.3-0.3l0.4,0.2l0.9,1.5v0.5l0.5,0.7l0.6,0.2l1.5-0.6l1.9-1.8l4.5-3.3
		l0.5-0.6l2.5-0.9l0.3-0.6l-0.3-1.4l0.1-0.3l0.3,0.1v-0.3l1.4,0.4h1.5l0.5-1.4l1.2,0.3l-0.1,0.5l0.5,0.2l0.5-0.3l0.9,0.2l0.9-0.2
		l0.8,1.1v1.5l2,1l1,2.5l-0.6,2.1l3.3,0.9l0.2,0.6l1,0.3l0.8,1.4l-0.6,0.2l-0.4,0.8l0,0l-0.5,0.1l0.5,0.8h0.6l0.8,0.8l0.6-0.3
		l0.7,0.2v0.6l0.4,0.5l0.5,0.2l0.2,0.8l0.8,0.9l0.8,0.2l0.2,0.8l1.1,1.1l0.1,0.5l1,0.3l0.4,0.5l0.2-0.2l0.8,0.3l0.2,0.7h0.8l0.7,0.5
		l0.8-0.1v0.4l1.6,1l1.1,1.7l0.2,2.5l0.6-0.1l0.1,0.4l-0.5,0.2l0.2,0.3l0.6-0.2l0.3,0.4l0.7-0.2l0.5,0.5l0.5-0.2l0.4,0.5l-0.2,0.4
		h1.3l0.3,0.5l0.1,0.5l-0.3,0.3l0.2,0.4l-0.2,0.7h-0.4l-0.2,0.5l0.3,0.3l-0.6,1.2l0.6,0.8l-0.5,0.3l0.5,0.2v0.3h-0.5l0.2,1.1
		l-24.8-0.2l-9.5,16.3l3,3.9l-0.8,1.2l-0.6-0.1l-0.2,0.5l0.1,1.9l-0.8,1.1l0.7,3.3l-0.5,0.9l-0.3,1.2l-0.7,0.5l-3.5-3.2l-8.5-9
		l-0.1-0.6l-0.6-0.2l-8.7-8.1l-4.2-3.3l-4.7-3.2l-2.9-1.4l0.2-0.3l0.6-0.1l0.2,0.5l0.5-0.2l0.1-0.4l-0.8-1.4l-3.6-0.8l-0.5-0.7
		L324.5,1175.1z"/>
	<text transform="matrix(1 0 0 1 342.9892 1168.4941)" font-family="'ArialMT'" font-size="7.7209">Chiapas</text>
	<path class="mx-state-disabled" id="MX-CHH" fill="#CCCCCC" stroke="#262A27" stroke-width="0.5" d="M145.5,907.3l-1.8,3.2v0.3l1.3,0.5v0.8l-0.5,0.8l-0.6-0.2
		l-0.5,0.2l-1.3,3.1l-1.1,0.8l-1.2,0.5l-1.8,2.9l-0.5,0.8l0.7,1.1l-0.7,1.1l-2.1,5.3l-0.5,0.3l-1.4-0.5v1.2l0.8,0.2l0.4,1.2
		l-0.2,0.4l-1.5,0.3l0.6,1.1l-0.1,0.6l-0.5,0.5l0.5,0.6l0.1,0.5l-0.8,0.9l0.6,3.5l0.8,0.4l0.2,0.6l0.1,0.8l-0.4,0.8l0.5,2.9l0.2,3.7
		l0.4,0.5l1.4,0.6l-0.3,1.2h-0.8l-0.8,0.8l-1.5,0.7l0.3,0.6l-0.1,1l1.6,1.5l0.8,1.4l0,0L135,957l-0.8-0.7l-0.4,0.5l-0.2-0.2l0.3-0.5
		l-0.6-0.1l-2.5,0.8l-1.2-0.5l-0.7,0.6l-1.1-0.2l-0.5-0.8l-1.1-0.2l-1.1-0.7l-0.5,0.2l-0.2,0.5l0.4,0.5l1.2,0.1l-0.1,0.8l-1.9,0.3
		l-0.8,1.2L122,959l-1.5,2.4l0.2,1l-0.2,0.6l-0.3,0.2l-1.3-0.2l-1.3,0.7l-0.8-0.2l-1.3-0.9l-1.5-1.4l-1.9,0.2l-0.9-0.2l-0.5-0.5
		h-0.4v0.8l-1.2,0.5l-0.4,0.5l-0.5,0.1l-0.3-0.4l-1.3,0.8l-0.2-0.5l-1.2-0.4l-1,0.2l-0.8-1.5l-1.2,0.2l-0.6-0.8h-0.8l-1.2-1.1
		l-1.5-0.2l-0.2-0.5l-1-0.5l-0.8-1.5l-0.8-0.2l-1.5-0.9l-1-0.1l-0.5-0.7l-0.6,0.4l-0.2,1l-1.4,0.5v1.4l-0.5,0.4l-0.7,2.6v1.2
		l-0.7,1.2l0.5,0.4l0.8,0.4v0.8l-0.2,0.5l-1.5,0.7l-0.6,0.6v1.1l-0.8-0.2l-0.3,0.3l0.3,1.6l-0.8,0.2l-1.3,3.1l0.8,1.2l0.5,1.5
		L84,978l-2.7,2.1l-0.9,1.2l-0.5-0.2l-0.5-0.9l-1.5-0.2l-0.4-0.7l-1.2,0.2l-1-0.5l-0.2-1l-1.8,0.6l-0.2,0.5l0,0l-1.6-2.2l-0.5-2.5
		l-2.2-3.8l-1.9-0.5l-2.5-0.2l-2.9-0.9l-0.9-3.6l-2.4-3.9l-0.1-1.5l-1.1-0.8l-0.2-0.8l0.4-1.5l-0.4-0.6l0.3-1.8l-0.8-1.8l-0.9,0.2
		l-0.5-0.2l-0.1-2.2l-0.5-0.3l-3.8,0.2l0,0l-1.4-0.3l-1.5,0.5l-2.7-1.4v-0.1l0.5-0.3l-0.4-2.6l1-2.4v-1.3l-1.2-3.2l-0.8-1.1
		l-0.5-1.6l-2.2-1.3l-0.4-0.5l0.5-1.9l-0.3-1.3l-1.6-2.3l-1.4-0.5l-0.3-0.5l0.5-2.2l-1.2-0.8l-0.2-0.5l0.8-1.1l1.9-0.4l1.1-0.7
		l0.6,0.1l1.4,1h0.4l1.1-0.8l0.8-0.1l0.8-0.9l0.7-0.1L47,921l-1.8-0.7l-1.1-1.4l0.3-2.2l-0.6-1.5l0.2-0.8l1.2-2l-1.3-2.2l0.6-1
		l-0.4-2l1.2-1l0.1-2.1l1.1-0.5l0.2-0.4l-0.2-4.4l0.2-0.5l0.6-0.7v-2l-0.5-4.8l-0.6-0.8h-0.5l-0.2-0.8l0.5-3.8l1-2v-0.8l-1.2-1
		l-0.2-0.8l0.6-0.4l0.2-1.4l-1.5-4.7l0.1-0.9l-0.9-1.2l-0.1-0.6l0.5-1.2l-0.8-0.7l-0.1-1.9l-2.1-2v-0.5l1.4-0.1v-1.4l0.4-1l-0.2-1.2
		l-1.2-2.2l-0.4-1.5l0.7-1l-0.8-0.7l0,0h10.9v-10.2h32.4l0.8,0.8l1.2-0.1l0.8,0.5l0.7,0.8l1.4,3.1l0.6,0.3l0.8,1.9l2.5,1.5l1.4,0.2
		l1,0.6l0.5,1.2h0.5l0.3,0.5h0.4l1.7,2.1l0.2,0.6l1,0.3l0.3,0.5l1.2,0.5l0.9,0.8l0.9,2.1l0.9,0.5l0.3,0.6l1.5,0.9l0.5,0.7l-0.2,0.4
		l0.8,0.2l1.2,0.8l0.2-0.3l0.7,0.7l0.7-0.2l0.2,0.5l0.3-0.2l0.5,0.5h0.3l-0.1,0.3l0.9,0.2l0.6,1l0.7,0.4l0.7-0.1l0.5,0.5l0.2,1
		l0.9,0.3l0.6,0.8l0.6,1.6v1.2l0.4,0.6l-0.2,0.7l0.8,0.5l-0.2,0.2l1.2,1.2l-0.1,0.4l1.1,0.8l0.4,1.2l-0.2,1.2l0.2,0.8l-0.4,1.6
		l0.3,0.2v0.8l0.3,0.5l-0.2,0.3l0.2,0.8l0.8,0.7l0.8,1.5l1,3l2.7,2.1l0.3,0.6l0.8,0.5l0.4-0.2l1.5,0.8l0.1,0.3l0.5,0.2l-0.1,0.5
		l0.9,1.3l1.1,0.5l1.1,1l1.5,0.7l2.3,0.3l1.1,0.5l0.3-0.2l0.2,1l0.3-0.2l0.8,1.1l1.2,0.2l0.2,0.3h1.8l1.6,1.6l-0.1,0.4l0.5-0.1
		l0.4,0.6L145.5,907.3z"/>
	<text transform="matrix(1 0 0 1 79.4087 921.416)" font-family="'ArialMT'" font-size="7.7209">Chihuahua</text>
	<path class="mx-state-disabled" id="MX-COA" fill="#CCCCCC" stroke="#262A27" stroke-width="0.5" d="M213.9,935l-0.2,0.5l-0.8,0.6l-0.7,0.1l-1.5,1l-4.2-0.7
		l-2.9,0.2l-0.8,0.5l-0.4,1.8l-1.3,2l-0.2,0.6l0.2,1.8l-0.5,0.4l-1.7-0.1l-1.6,0.7l-0.9-0.3l-0.9,0.8l-1.4,2.3l0.2,2.5l2.2,1.6
		l0.5-0.1l0.5-2.4l0.5,0.1l1.5,1.2l0.2,3.9l-0.6,1.7l-0.8,0.6l-0.8,1.7H195l-2,1.3l-2.7,0.2l-0.7,0.7l-0.8,2.1l-1.9,1.9v1l3.5,3.7
		l2.1,1.5l0.8,2.4l1.1,0.8l0.7,0.1l0.3,0.5l-0.8,2.2l0.2,1.9l0.6,1.4l0.8,0.1l0.6,0.5l1.6,0.1l0.3,0.3l0.5,2.6l0.6,0.7l2.5,1.5
		l-0.4,0.8l2.8,0.5l0.4,0.6l0.7,0.2l0.3,0.8l-0.6,0.7l-0.1,0.8l-0.2,0.2h-1.5l-2.6-0.7l-1-1.2l-1.3-0.2l-0.7,0.2l0.2,0.6l-1.4,0.5
		l-1.3,2.5l0.7,2.2l0.1,1.7l-0.2,0.3l-1.9,0.1l-0.2,0.3l0.2,0.6l-0.2,0.9l1.1,1.2l0.1,1.1l0.5,0.9l-0.8,2.5l0,0l-1.6-0.4l-0.6,0.2
		l-0.2,0.6l-1.1,0.3l-1.6-0.6l-1.1-1l-1.5-2.9l-1-0.6l-2.3-0.3l-1.8,0.4l-0.7,0.7h-2.2l-0.5-2.8l-0.9-0.2l-1.2,0.3l-1.7-2.4
		l-1.5-1.3l-1.9-0.8l-1.9-1.3l-7.3-0.5l-4.2,0.8l-0.5,0.4v1.2l0,0l-2.4,1.5l-0.5,0.8l-0.4,1.6l0.4,1.3l-0.2,0.4l-0.5,0.2l-1.6-1.1
		l-2.2-0.2l-2.6-1l-1-0.9l-0.5-0.7l-0.4-2.4l-1.9-1.5l-0.5-1.3l-1.4-1.6l-0.5-2.4l1.1-1.1l1.8-0.4l-0.6-0.9l-1-0.2l-0.5-0.6
		l-0.1-0.6l1.1-1.7l0.8-0.6l0.9-2.4l-0.9-3.5l-0.2-1.5l0.3-1.8l-1.3-3l-0.2-1.1l0.3-2.2l-1.1-3.1l-1.8-1.6l-0.6-0.9l-0.9-0.9
		l-2.3-0.6l-0.5-0.5l0,0l-0.8-1.4l-1.6-1.5l0.1-1l-0.3-0.6l1.5-0.7l0.8-0.8h0.8l0.3-1.2l-1.4-0.6l-0.4-0.5l-0.2-3.7l-0.5-2.9
		l0.4-0.8l-0.1-0.8l-0.2-0.6l-0.8-0.4l-0.6-3.5l0.8-0.9l-0.1-0.5l-0.7-0.7l0.5-0.6l0.1-0.6l-0.6-1.1l1.5-0.3l0.2-0.4l-0.5-1.2
		l-0.8-0.2v-1.2l1.4,0.5l0.5-0.3l2.1-5.3l0.7-1.1l-0.7-1.1l0.5-0.8l1.8-2.9l1.2-0.5l1.1-0.8l1.3-3.1l0.5-0.2l0.6,0.2l0.5-0.8v-0.8
		l-1.3-0.5v-0.3l1.8-3.2l0,0l0.5,0.1l0.2-0.5l0.3,0.1l-0.2,0.5l1.1,0.5l0.1,0.4l0.3-0.4l0.2,0.3l1.2-0.1l0.7,0.3l0.7-0.3l0.4-1.8
		l0.2,0.2l0.2-0.8l0.6-0.1l0.8-1.3v-0.5l0.5-0.2l0.3,0.2l0.8-0.4l0.2-0.5l0.5,0.2l0.4-0.2l-0.2-0.5l-0.6-0.3l0.3-0.6l0.2-1.4
		l0.8-0.2l-0.1-0.2l0.5-0.7l-0.3-0.2V898l0.5-1l-0.1-0.8l0.5-0.5l0.2-1.2l0.4,0.1l0.1-0.9l0.9-0.8l-0.1-0.3l0.5-1.2l0.8,0.2l1.1-0.5
		l0.5,0.2l0.7-0.5l-0.1-0.4l2.1,0.4l0.5-0.5l0.3-1.2l0.8-0.8l1.1,0.2v0.3l1.6,0.3l1.7,1.1l1.1,0.2l0.4-0.1v-0.2l0.8-0.1l1.2,0.2
		l0.2,0.3l0.4-0.3l1.5-0.2l0.4,0.2l-0.1,0.4l0.6-0.2l1.3,0.6l0.3-0.2l0.3,0.2l0.3-0.2l0.2,0.3l1.5-0.5l0.1-0.5l0.5-0.4l0.2,1.2
		l1.5-0.6l0.2,0.8l0.8-0.4l0.2,0.2l-0.3,0.2l0.3,0.8l0.4,0.3l0.2,1.1l0.9-0.2l0.3,0.5l-0.2,1.2l0.5,0.3l0.2-1l0.2-0.3l0.4,0.1
		l0.1,1.2l-0.4,0.8l0.2,0.2l1.5,0.2l0.5,0.8l1.7,0.4l1,1.9l1.2,0.6l1.1,0.8l0.2,0.6l1.5,0.8l0.6,1.3l-0.2,0.3l1.9,1.4l0.3,0.7
		l0.2,2.9l0.4,0.9l0.5,0.1l0.5,1.5l0.5,0.1l0.2,0.5l0.1,1l0.5,0.5l0.2,1.6l1,0.5v0.6l1,0.6l-0.3,0.8l0.5,0.7l0.9,0.3l-0.1,0.3
		l-0.5,0.2l0.5,0.7l-0.2,1.1l1.2,1.9v0.8l0.8,0.8l0.6,0.1l0.2,0.8l2.4,1.1l0.7,1.4l0.6,0.4l0.2,0.8l0.6,0.9l0.7,0.1v0.8l0.8,0.8
		l-0.2,0.8l0.5,0.8v0.8l0.5,0.1L213.9,935z"/>
	<text transform="matrix(1 0 0 1 149.3862 946.3936)" font-family="'ArialMT'" font-size="7.7209">Coahuila</text>
	<path class="mx-state-disabled" id="MX-COL" fill="#CCCCCC" stroke="#262A27" stroke-width="0.5" d="M143.4,1119.6l-1.9,1.7l-0.8-0.2l-0.3,0.2v1.4l-1.5,0.9
		l-0.5,1.3l0,0l-4.2-3.4l-4-2.2l-3.1-1.1l0.1-0.6l0.4-0.1l0.1-0.5l-0.4-0.4l-0.8-0.5l-1.4,0.7l-0.2-0.5l-1.4-0.5l-3.5-0.9l0.2-0.3
		l0.5,0.3l0.2-0.2l-0.5-0.2l0,0h1.5l1.2-1.4l0.8,0.4l0.5-0.1l0.4-0.6l0.7-0.5l0.4,0.3l2.9-0.7l1,0.3l0.8-0.2l2.4-1.8l2.5,0.2
		l1.1-0.2l2.5-1.3l1.9-1.9l0.5,0.1l0.4,2.2l-0.2,0.8l0.8,0.6l0.2,0.6l0.8,0.4l-0.4,1.4l0.1,2.4l-0.5,1l0.6,1.2L143.4,1119.6z"/>
	<text transform="matrix(1 0 0 1 76.3393 1120.5021)" font-family="'ArialMT'" font-size="7.7209">Colima</text>
	<path class="mx-state-disabled" id="MX-CMX" fill="#CCCCCC" stroke="#262A27" stroke-width="0.5" d="M232.8,1117.3H232l-1.9,0.6l-0.7-0.6l-0.5,0.1l-1,0.8
		l-1-0.9l-1,0.2l0,0l-2-3.4v-0.9l2.5-2.2l0.4-1.5l1.7-1.9l0.2,0.3v0.8l1.2,1.5l0.4,1.2l1.6,1.4l0.2,1.2l0.4-0.3l0.2,0.4l0.3,1.2
		l-0.4,1.3L232.8,1117.3z"/>
	<text transform="matrix(1 0 0 1 123.7275 1178.04)" font-family="'ArialMT'" font-size="7.7209">Ciudad de México</text>
	<path class="mx-state-disabled" id="MX-DUR" fill="#CCCCCC" stroke="#262A27" stroke-width="0.5" d="M72.5,979.5l0.2-0.5l1.8-0.6l0.2,1l0.8,0.5l1.2-0.2
		l0.4,0.7l1.5,0.2l0.5,0.9l0.5,0.2l0.9-1.2l2.7-2.1l1.6-2.6l-0.5-1.5l-0.8-1.2l1.3-3.1l0.7-0.2l-0.3-1.6l0.3-0.3l0.8,0.2v-1.1
		l0.7-0.7l1.5-0.7l0.2-0.5v-0.8L88,964l-0.1-0.4l0.7-1.2v-1.1l0.7-2.6l0.5-0.4v-1.4l1.4-0.5l0.2-1l0.6-0.4l0.5,0.7l1,0.1l1.5,0.9
		l0.8,0.2l1.1,1.4l1,0.5l0.2,0.5l1.5,0.2l1.2,1.1h0.8l0.6,0.8l1.2-0.2l0.8,1.5l1-0.2l1.2,0.4l0.2,0.5l1.3-0.8l0.3,0.4l0.5-0.1
		l0.4-0.5l1.2-0.5v-0.8h0.4l0.5,0.5l0.9,0.2l1.9-0.2l1.5,1.5l1.3,0.9l0.8,0.2l1.3-0.7l1.3,0.2l0.3-0.2l0.2-0.6l-0.2-1l1.5-2.4
		l1.2-0.4l0.8-1.2l1.9-0.3l0.1-0.8l-1.2-0.1l-0.4-0.5l0.2-0.5l0.5-0.2l1.1,0.7l1.1,0.2l0.5,0.8l1.1,0.2l0.7-0.6l1.2,0.5l2.5-0.8
		l0.6,0.1l-0.3,0.5l0.2,0.2l0.4-0.5l0.8,0.7l0.8-0.2l0,0l0.5,0.5l2.3,0.6l0.9,0.9l0.6,0.9l1.8,1.6l1.1,3.1l-0.3,2.2l0.2,1.1l1.3,3
		l-0.3,1.8l0.2,1.5l0.9,3.5l-1.2,2.5l-0.8,0.6l-1.1,1.7l-0.1,0.7l0.5,0.6l1,0.2l0.6,0.9l-1.8,0.4l-1.1,1.1l0.5,2.4l1.4,1.6l0.5,1.3
		l1.9,1.5l0.4,2.4l0.5,0.7l1.2,0.8l2.6,1.2l2.2,0.2l1.6,1.1l0.5-0.2l0.2-0.4l-0.4-1.3l0.4-1.6l0.5-0.8l2.4-1.5l0,0l0.3,0.4v1.2
		l0.5,0.2l0.3,0.8l1.2,0.5l0.6,0.7l-0.6,3.8l0.9,0.4l0.8,3.1l-0.8,0.4v0.3l0.4,0.3l-0.1,0.5l-4.7,0.5l-1.3-0.2l-0.6,0.7l-2.1-0.7
		l-0.8-0.5l-0.5-0.2l-1.8,0.6l-1.7-0.5l-3-0.2l-1.3,1.1l-0.4,1l-1.9,1.4l-1.6,2.2l-1.5,1.7l-1.9,0.5l-0.2,1l0.6,0.4l0.3,1.3
		l-0.2,1.3l0.3,1.5l-0.3,0.9l0.7,3.3l-2.2,1.9l-1.8,2.2l-0.1,1.5l-1,4.5l-0.5,0.3l-1.1,2.1l-0.1,1l0.7,2.4l-0.2,4.2l-0.2,0.5
		l-2.5,1.2l-0.8,1.2l-0.9,2.3l0,0l-2.2,1l-0.3,1.1h-0.4l-1.4-0.9l-0.8-1.6l-1.9-1.9l-1.3-0.3l-1.1-1.4l-1.1,2l-0.6,0.7h-0.5
		l-1.7-3.5l1.3-1.4l1.3-0.7l0.5-0.7l-0.1-0.9h-0.8l-0.4-0.3l-0.5-1.9l-1.6-0.2l-1-0.5l-1.2-1.4h-0.4l-0.7,1l-1.3,0.3l-1.7-2l0,0
		l-1.6-1.7l-0.5-0.1l-0.7,0.5l-1.5-0.2l-0.5-1l-0.1-1.8l-0.9-1l-0.5-1.3l0.2-0.7l-0.8-2.2l-0.3-2.2l-1.3-1.2l-0.7-1.5l-0.8-0.9
		l-0.5-2.2l-0.5-0.8l-0.6-2l0.2-0.7l-0.8-0.7l-0.1-1.7l-1.3-1.8l-0.1-0.8l-0.8-0.2l-0.7-1.1l-1.2-0.8l-3.1-0.9l-0.5,0.8l-2.2,1.6
		l-1,0.2l-0.5,0.4l-0.5-0.4l-0.6,0.2l-0.5-1.5l-0.8-1.1l-0.6-3.2l-0.2-0.2l-0.5,0.2l-0.5-0.2l-0.9-3.5l-1-0.2l-0.7-2l-1.8-0.2
		l-0.4,0.3l-0.9-0.8l0.2-1.1l-1.3-1.5l-0.6-0.5l-0.4-1.4l-0.8-0.5l0.4-1.5l0.1-3.9l1-2.5l-0.1-0.5l-0.4,0.1l-0.5-0.5l1.3-1.7
		l0.9-0.6l-0.1-0.5l-0.5,0.2L72.5,979.5z"/>
	<text transform="matrix(1 0 0 1 103.0127 999.0508)" font-family="'ArialMT'" font-size="7.7209">Durango</text>
	<path class="mx-state-disabled" id="MX-GUA" fill="#CCCCCC" stroke="#262A27" stroke-width="0.5" d="M215.1,1067.3l0.4,0.4l-0.1,1.6l-0.8,1.5l1.9,0.5v0.9
		l-0.5,1.1l-1.2,0.5l-0.5,0.8l-0.8,0.2l-1.3-1.4l-1.2,0.5l-1.8,2.5l0.1,1.2l-0.5,1.2l-0.6-0.4l-0.2,0.8l-0.5,0.3l-2.1-0.3l-1.2,0.5
		l-3.6,0.2l-0.5,1.1l-0.5,2.9l0.1,0.6l0.8,0.5l0.5,1.3v2.1l0.8,1.5l1.5,1.1l0.5,1.3l0,0l-0.3,0.8l0.5,0.9l0.1,1l-0.4,1.4l0.5,0.1
		l-0.1,0.8l-0.9,0.8l-1.6,0.2l-0.5,0.6l-0.4,1.1l-0.5,0.2l0.2-1.2l-0.4-0.2l-1.5,0.4l-1.1,0.8l-2.6-0.2l-2-0.7l-1-0.1l-0.5,0.2
		l-0.2-0.1l0.2-0.4l-0.4-1.4l-1.7,0.5l-1.1-0.3l-0.5,0.5l0.2,0.6l-0.9,0.4l-1.4-0.5l-1.9-0.2l-0.4-0.4v-2.6l-0.3-1.3l0.8,0.4
		l0.5-0.2l-1-1.4l-0.8-0.6l-1.1,0.2l-0.5-0.3l-1.6,0.5l-1.5,2.2l-0.7-0.2l-1.7,0.1l-0.4-0.3l-0.9,0.5l-0.6-0.1l-0.3-0.4l-0.5-2.2
		l0.3-0.3l-0.5-0.4l-0.4,0.1l-0.2-0.4h-0.9l0,0l0.3-2.2l1.4-2.6l-1.2-2.2l-1.2-0.3l-0.4-1l1.5-1.5l0.1-0.6l1.4-1.2l1.5-3.1l1.9-1.5
		l0.8-2.1l-0.1-0.5l0.4-0.5l1.2-0.1l0.3-0.3l0.5-1.1l-0.6-0.4l0.5-1.7l-0.5-0.1l1.2-4.2l-0.1-0.5l0.9-1.1l-0.5-0.6l0.9-1l0,0
		l0.8,0.5l0.6-0.7l0,0l0.9,0.5l2.2,0.2l1,0.5l3.6,0.8l0.9,0.6h0.8l3.9,2.9l2.1,1.1h2.2l1.2-0.5l-0.1-0.8l0.5-1.4l0.8-0.5l3,1
		l2.4,1.5l0.2,0.5l0.4-0.1l1.3,1.6l1.4-0.2l0.3-0.4l0.5,0.6h1.2L215.1,1067.3z"/>
	<path class="mx-state-disabled" id="MX-GRO" fill="#CCCCCC" stroke="#262A27" stroke-width="0.5" d="M202.8,1117.6l0.2,2.2l-0.8,1.5l-0.5,3.2l0.3,1.2l1.4,0.6
		l0.1,0.9l-0.2,0.5l-1.4,1.5l0.5,0.5l1-0.2l1.2,0.2l0.2,0.8l1.2,1.5v-0.3h0.5l0.2-0.3l0.2,0.3l1.5-1.7l1.9-0.5l-0.5-1.1l0.3-0.5
		l0.8-0.4l0.6,0.3l2.7-0.2l0.2-0.5l0.7-0.3l0.7,0.2l0.3-1.2l1.4-0.2l-0.3-1.3h0.6l0.7,0.8l1.5,0.5l0.6-0.4l0.6,0.1l0,0l0.4,0.6
		l-0.5,0.8l0.3,0.3l0.8-0.2l0.8,0.4l1.5,2.1l4.2,0.5l1.8,1.8l0,0v0.9l1.1,0.9l1,0.5l0.9,1.8l2.3-0.2l0.2,0.6l-0.6,0.8l3.2,1.4
		l0.1,0.8l1.1-0.2l0.4,0.2l0.7-0.7l1.2-0.1l1.2,1.5l1.2,0.6l0,0l-1.3,3.1l-0.2,1.1l2.1,4.7l0.5,3.6l-0.7,0.6l-0.2,1.6l0.5,0.4
		l1.8,0.6l0.4,0.9l-0.1,1.5l0.2,0.5l0.9,0.2l0.3,0.4l0.3,1.2l-0.7,2.2l-0.7,0.7l-0.9,0.2l-0.7,0.5l-0.2,1.1l-3.2,2.8l-0.4,1.5
		l-3.3,3.5l0,0l-2.8-2.8l-1.5-1.9l-1.3,0.2l-0.2,0.5l-1-0.2l-8.2-2.5l-2.4-0.5h-3.1l-1.2-0.4l-1.6-0.8l-1.4-1.2l-0.8-0.2l0.5-0.5
		l-0.2-0.3h-0.8l0.2,0.3l-0.5,0.2l-0.8-1.3l-0.7-0.3l-20.5-7.3l0.1-0.5l-0.4-0.5l-1.9-1.4l-0.6-0.8l-4.8-2l0.2-0.6l-0.7-0.8
		l-0.6-0.5l-1.7-0.2l-0.1-0.4l-0.8-0.3l-0.6-1.5l-1.5-1l-1.1-1.9l-2.9-1.6l-1.7-0.5l-1.1,0.2l-0.5,0.6l-0.4-0.2l0,0l-0.6-1l0.1-3
		l0.6-0.5l2-0.6l0.7,0.2l1.2-0.5l0.6-0.6l1.2,0.3l0.6-0.2l0.2-0.2h-1.4l0.2-0.7l-0.1-0.9l-0.5-1.1l0.5-0.8l-0.5-0.9l0.1-0.2h0.5
		l-0.4-0.6l0.5-0.3l0.5,0.1l-0.2-0.4l0.5-0.1l0.4,0.6l0.4-0.6l-0.2-0.3l0.8-0.2l0.1,0.8l0.5-0.3l0.2,0.3l0.1-0.5l0.5-0.2h0.8
		l0.9,1.5l1.5,0.7l2.7-0.4l0.2-0.4l1.5-0.4h1.3l0.4,0.4l1.5,0.4l1.2-0.2l0.8,0.2l0.9,1.3l0.1,0.6l0.5,0.1l1.1-0.8l0.5,0.5l1.1,0.2
		l0.3,0.6l1.2,0.7l0.2-0.3l0.3,0.2l0.2,0.8h0.6l0.6-0.8l-2.2-2.9l-0.2-2.4l-0.9-3.2l0.4-0.8l0.8-0.7h0.3l0.5,1.2l1.9-2.2l0.7-0.4
		l0.8-1.9L202.8,1117.6z M206.3,1132.1l0.1,0.2l0.3-0.2H206.3z"/>
	<text transform="matrix(1 0 0 1 198.3696 1149.166)" font-family="'ArialMT'" font-size="7.7209">Guerrero</text>
	<path class="mx-state-disabled" id="MX-HID" fill="#CCCCCC" stroke="#262A27" stroke-width="0.5" d="M239.1,1069.5l0.6,0.2l0.2,0.6l-0.2,2.1l1.4,1.3l1,0.5
		l1,0.1l0.7-0.7l1.5,0.5l1.9,2.6l-1.5,1.9l-0.5,1.7l0.5,0.8l-0.2,0.5l-1.2,0.2l-1-1.1h-0.4l-1.9,1.6l-0.2,0.7l-0.5,0.4l-0.2,2.9
		l-0.5,1l-0.2,1.6l0.9,2l0.7,0.8l0.4-0.2l1-1.2l1.9-0.9l1.5-1.7l1.2-0.5l1.6-1.8l0.6-0.3l1.2,0.8l0,0l0.1,2.3l-2.2,1.9l-0.7,1.1
		l-2.8,1.5l0.5,1.1l1.6-0.4l0.4,1.7l-0.6,3.7l-1.2,2.4l0.5,3.6l0,0l-1.9-0.4l-0.6,1.2l-1.2,0.9l-1.6,0.2l-0.8-0.2l-3.9,1.3l0,0
		l-0.2-1.1l1.4-3.2l-0.2-1.3l-4.5,0.5l-1.3,2l-0.2,0.2l-0.5-0.2v-0.7l-0.7-1.4l0.2-0.4l0.7-0.4l0.7-0.1l0.8-3.3l-0.4-1l-0.5-0.1
		l-2.1,1.1l-3,0.8l-0.4,2.9l-0.5,0.6l-1.6-0.8l-0.2,1.7l-0.9,0.8l0.1-1.9l-0.3-1l-0.5-0.5l-0.2-1l-0.9-1l0.5-0.8l-1.2-2.4l-0.5-0.2
		l-0.1-0.5l-3.6-0.5l-2-1.2l-0.9-1.1l0,0l0.8-5l1.2-0.4l0.7-0.5l2.2-0.5l1.8-1.2l0.2-1.5l0.8-2l0.9-0.3l0.6-0.9l0.4-1.7l0.6-1.2
		l-0.2-0.8l1.2-1.1l0.9,0.5l3.2-1l1-2.4l0,0l1.8-0.6l0.8,1.9l1,0.8h0.8l1-1.9l0.7,1l1-2.3l1.2-1.4L239.1,1069.5z"/>
	<text transform="matrix(1 0 0 1 220.2012 1090.7355)" font-family="'ArialMT'" font-size="5.1945">Hidalgo</text>
	<path class="mx-state-disabled" id="MX-JAL" fill="#CCCCCC" stroke="#262A27" stroke-width="0.5" d="M157.2,1063.8l1.6-0.8l3.2,0.3l1.3,1.1l1.7,0.8l1-0.1
		l2.3-0.8l0.5-0.4l1.9-2.8l3.3-1.5l-1.5-1.6l0.2-1.2l-0.2-0.5l0,0l2.7,0.7l1.6,0.8l2.1,1.9l1.6,0.6l0.2,0.3l0,0l-0.9,1l0.5,0.6
		l-0.9,1.1l0.1,0.5l-1.2,4.2l0.5,0.1l-0.5,1.7l0.6,0.4l-0.5,1.1l-0.3,0.3l-1.2,0.1l-0.4,0.5l0.1,0.5l-0.8,2.1l-1.9,1.5l-1.5,3.1
		l-1.4,1.2l-0.1,0.6l-1.5,1.5l0.4,1l1.2,0.3l1.2,2.2l-1.4,2.6l-0.3,2.2l0,0h-2.2l-1.6,0.8l-1.3-0.2l-1,0.4l-1.3-0.1l-0.8,0.2
		l-1.6,1.2l-0.8-0.1l-0.8,0.8l-0.7,0.2l-0.2,1.1l-2.3,0.5l-0.2,0.6h-0.3l-0.8-1l-1.9-0.3l-0.2,0.8l-0.7-0.2l-0.3,0.2v1.8l-0.7,1.2
		l0.4,0.6l0.4,0.1l0.4-0.5l1.8,0.2l2.5,0.7l0.5,0.5l0.5,1.7l-0.2,0.6l-0.7,0.5l1.5,3.2l-0.5,2l2.6-0.1l0.5,0.5l0.1,1.2l-1.9,1.9
		l-0.8,2.3l-1.8-0.5l-1.1,0.5l-3.1,2.8l-1.7,0.9l-1.2,1.3l-0.2,0.1l-1-1.4l-0.4-0.1l-1.7,1.3l-1.2-0.2l-1.3,0.3l0,0v-1.5l-0.6-1.2
		l0.5-1l-0.1-2.4l0.4-1.4l-0.8-0.4l-0.2-0.6l-0.8-0.6l0.2-0.8l-0.4-2.2l-0.5-0.1l-1.9,1.9l-2.5,1.3l-1.1,0.2l-2.5-0.2l-2.4,1.8
		l-0.8,0.2l-1-0.3l-2.9,0.7l-0.4-0.3l-0.7,0.5l-0.4,0.6l-0.5,0.1l-0.8-0.4l-1.2,1.4h-1.5l0,0l-0.5-0.4l-0.5,0.1l-0.1-0.4l-0.5,0.2
		l-0.4-0.2l-0.7,0.1v-0.5l0.4-0.5l-0.1-0.4l-0.7-0.2l-0.2,0.3l-0.7,0.2l-1.5-0.8l-1.5-1.3l0.3-0.5l-0.3-0.5l-0.6-0.4l0.1-0.7
		l-0.4-0.2l-0.2-1.2l-0.6-0.5H111v-0.5l-2.2-1.6l-0.2-0.5l-1.1-1.2l-0.3-0.8l-3-4.1l-0.8-1.8l0.2-1.7l-0.2-0.9l-0.5-0.2l-0.1-0.5
		l-1.7-1.8l-0.4-1.2l0.8-0.4l0.7-0.8l5.7-0.9l1.2-0.8l0.5-1.2l-0.2-0.8l-1-0.8l0,0l3.4-4.3l0.9-0.3l1.8,0.4l2.5-1.9l1-0.2l1.2,0.5
		l0.9,1.1l2.4,0.6l2.1,2.3l0.8,0.5l1.8,1.6l0.5,0.6l0.4,1.2l0.4,0.2v-1.3l-0.9-1.2l0.2-0.3l-0.5-0.6l-0.3-1.2l0.3-0.5l0.6-0.2
		l1.2-6.6l3.1-0.2l0.7-0.3l0.8-0.8l1.3-0.2l1.8-1l0.3-0.6l0.3-3.2l-0.2-1.2l-1.1-0.9l-1.3-3.3l-3.5-0.5l-0.7-1.2l-0.1-2.1l-0.4-0.4
		l-0.8-0.1l-0.9-0.9l-1.3,0.4l-0.4-2.3l0.9-3.8l-0.2-0.4l0,0l0.8-0.9l1,0.2l0.3-2.3l2.4-0.9l0.4,0.3l-0.8,2.5l0.2,0.4l1.4-0.8
		l0.8-0.9l-0.2-1.1l-1.3-2.9l0.1-0.6l1.7-1.2l2.1-0.3l1.4,0.8l-0.2,0.7l-0.8,0.6l-1.2,1.5l-1.3,3.2v2.5l0.9,1.4l0.9,0.2l0.3-0.9
		v-5.4l0.5-0.5l2.6-0.5l1.1,0.4l1.1,1l0.5,1.5v0.9l-2.9,4.8l0.2,0.5l0.5,0.5h1.5l0.5-0.6l1,0.2l0.5,0.4l0.7-0.3l0.7-1.3l1.9-1.5
		l-0.9-0.8l0.2-1.5l1.5-0.5l1.7,0.2l0.3,0.7l-0.6,1.2l0.4,0.3l1.6,0.1l0.4,0.3l-0.5,2.7l-0.9,2.2l-0.5,0.5l-1,0.2l-2.5,1.3l-1.4,1.3
		l-2.2,1.6l0.2,1.4l-0.2,1.9l-1.2,1.5l-1.4,0.4l0.7,1.9l0.7,0.4l0.8-0.4l0.5,0.1l0.2,0.5l-0.1,0.8l-0.9,0.8l-3.1,1.4l0.2,0.4
		l1.9,0.5l0.6,0.6l0.6,1.3l0.7,0.4l1.8-0.2l2.2,1.2l0.8-0.4l0.7,0.1l0.2-0.5l1-0.2l1.3,0.3l0.1-0.3l1.2-0.4l0.2-1.5l0.5-0.4l1.1-0.4
		l1.2,0.4l2.8-2.2l1.8-1.1l0.8-1l0.4-2.1l-2.2-1.4l-0.5-1.5L157.2,1063.8z"/>
	<text transform="matrix(1 0 0 1 116.0474 1097.298)" font-family="'ArialMT'" font-size="7.7209">Jalisco</text>
	<path class="mx-state-disabled" id="MX-MEX" fill="#CCCCCC" stroke="#262A27" stroke-width="0.5" d="M206.7,1132l-0.3,0.2l-0.1-0.2H206.7z M213.5,1092.1
		l0.9,1.1l2,1.2l3.6,0.5l0.1,0.5l0.5,0.2l1.2,2.4l-0.5,0.8l0.9,1l0.2,1l0.5,0.5l0.3,1l-0.1,1.9l0.9-0.8l0.2-1.7l1.6,0.8l0.5-0.6
		l0.4-2.9l3-0.8l2.1-1.1l0.5,0.1l0.4,1l-0.8,3.3l-0.7,0.1l-0.7,0.4v0.4l0.7,1.4v0.7l0.5,0.2l0.2-0.2l1.3-2l4.5-0.5l0.2,1.3l-1.4,3.2
		l0.2,1.1l0,0l0.8,1.4l0.6-0.2l0.4,0.5l0,0l0.3,1.4l-0.5,0.5v0.8l0.8,2.8l0.1,3.4l0,0l-0.7,0.2l-2,1.6l-1.9-0.7l-0.7-1.2l-0.8-0.6
		l0,0l-0.2-0.6l0.4-1.3l-0.3-1.2l-0.2-0.4l-0.4,0.3l-0.2-1.2l-1.6-1.4l-0.4-1.2l-1.2-1.5v-0.7l-0.2-0.3l-1.7,1.9l-0.5,1.5l-2.5,2.2
		l0.1,0.8l2,3.4l0,0l-3.1,4.9l-0.4,1.1l-1.2,1.4l-0.2,0.8l0,0l-0.6-0.1l-0.6,0.4l-1.5-0.5l-0.7-0.8h-0.6l0.3,1.3l-1.4,0.2l-0.3,1.2
		l-0.7-0.2l-0.7,0.3l-0.2,0.5l-2.7,0.2l-0.6-0.3l-0.8,0.4l-0.3,0.5l0.5,1.1l-1.9,0.5l-1.5,1.7l-0.2-0.3l-0.2,0.3h-0.5v0.3l-1.2-1.5
		l-0.2-0.8l-1.2-0.2l-1,0.2l-0.5-0.5l1.3-1.4l0.2-0.5l-0.1-0.9l-1.4-0.6l-0.3-1.2l0.5-3.2l0.8-1.5l-0.2-2.2l0,0l0.5-0.3l0.2-0.8
		l1.2-1.4l0.8-1.9l-0.2-0.8l0.6-1.4l0.3-0.5l0.5-0.1l0.2-0.5l-0.3-4l-0.5-0.4l-0.8-1.5l1.2,0.1l1.1-0.4l0.2-0.4l0.2-1.6l1-1.3v-0.5
		l-0.7-0.6l0.1-1.9l0,0l1.9-0.2l1.5-1.5l-0.2-1.3l-0.4-0.8l0.2-0.2l0.7,0.5l0.5-0.1l-0.2-0.5l0.2-0.5L213.5,1092.1z"/>
	<text transform="matrix(0.7849 -0.6196 0.6196 0.7849 206.6007 1120.8423)" font-family="'ArialMT'" font-size="6.3881">México</text>
	<path class="mx-state-disabled" id="MX-MIC" fill="#CCCCCC" stroke="#262A27" stroke-width="0.5" d="M170.9,1090.8h0.7l0.2,0.4l0.4-0.1l0.5,0.4l-0.3,0.3
		l0.5,2.2l0.3,0.4l0.6,0.1l0.9-0.5l0.4,0.3l1.7-0.1l0.7,0.2l1.5-2.2l1.6-0.5l0.5,0.3l1.1-0.2l0.8,0.6l1,1.4l-0.5,0.2l-0.8-0.4
		l0.3,1.3v2.5l0.4,0.4l1.9,0.2l1.4,0.5l0.9-0.4l-0.2-0.6l0.5-0.5l1.1,0.3l1.7-0.5l0.4,1.8l-0.2,0.4l0.2,0.1l0.5-0.2l1,0.1l2,0.7
		l2.6,0.2l1.1-0.8l1.5-0.4l0.4,0.2l-0.2,1.2l0.5-0.2l0.4-1.1l0.5-0.6l1.6-0.2l0.9-0.8l0.1-0.8l-0.5-0.1l0.4-1.4l-0.1-1l-0.5-0.9
		l0.3-0.8l0,0l1.2,0.8l0.9,1.5l-0.2,0.6l2.5,2.3l0,0l-0.1,1.9l0.7,0.6v0.5l-1,1.3l-0.2,1.5l-0.2,0.4l-1.1,0.4l-1.2-0.1l0.8,1.5
		l0.5,0.4l0.3,4l-0.2,0.5l-0.5,0.1l-0.3,0.5l-0.6,1.4l0.2,0.8l-0.8,1.9l-1.2,1.4l-0.2,0.8l-0.5,0.3l0,0l-1.8,1.1l-0.8,1.9l-0.7,0.4
		l-1.9,2.2l-0.5-1.2h-0.3l-0.8,0.7l-0.4,0.8l0.9,3.2l0.2,2.5l2.2,2.9l-0.6,0.8h-0.6l-0.2-0.8l-0.3-0.2l-0.2,0.3l-1.2-0.6l-0.3-0.6
		l-1.1-0.2l-0.5-0.5l-1.1,0.8l-0.5-0.1l-0.1-0.6l-0.9-1.3l-0.8-0.2l-1.2,0.2l-1.5-0.4l-0.4-0.3h-1.3l-1.5,0.4l-0.2,0.4l-2.7,0.4
		l-1.5-0.7l-0.9-1.5h-0.8l-0.5,0.2l-0.1,0.5l-0.2-0.3l-0.5,0.3l-0.1-0.8l-0.8,0.2l0.2,0.3l-0.4,0.6l-0.4-0.6l-0.5,0.1l0.2,0.4
		l-0.5-0.1l-0.5,0.3l0.4,0.6h-0.5l-0.1,0.2l0.5,0.9l-0.5,0.8l0.5,1.1l0.1,0.9l-0.2,0.7h1.4l-0.2,0.2l-0.6,0.2l-1.2-0.3l-0.6,0.6
		l-1.2,0.5l-0.7-0.2l-2,0.6l-0.6,0.5l-0.1,3l0.6,1l0,0l0.2,0.6l-1,0.4l-2.3-1.2l-3.2-0.9l-6.1-1.3l-3.9-1.9l-2.9-0.5l-3.8-1.5
		l-0.4,0.2l-2.9-1.8l-1.4-3.2l-2.2-1.7l0.3-0.6l-1.2-1.5l0,0l0.5-1.3l1.5-0.9v-1.4l0.3-0.2l0.8,0.2l1.9-1.7l0,0l1.3-0.3l1.2,0.2
		l1.7-1.3l0.4,0.1l1,1.4l0.2-0.1l1.2-1.3l1.7-0.9l3.1-2.8l1.1-0.5l1.8,0.5l0.7-1.8l1.9-1.9l-0.1-1.2l-0.5-0.5l-2.6,0.1l0.5-2
		l-1.5-3.2l0.7-0.5l0.2-0.6l-0.5-1.7l-0.5-0.5l-2.5-0.7l-1.8-0.2l-0.4,0.5l-0.4-0.1l-0.4-0.6l0.7-1.2v-1.8l0.3-0.2l0.7,0.2l0.2-0.8
		l1.9,0.3l0.8,1h0.3l0.2-0.6l2.3-0.5l0.2-1.1l0.7-0.2l0.8-0.8l0.8,0.1l1.6-1.2l0.8-0.2l1.3,0.1l1-0.4l1.3,0.2l1.6-0.8L170.9,1090.8z
		"/>
	<text transform="matrix(1 0 0 1 155.3462 1120.8428)" font-family="'ArialMT'" font-size="7.7209">Michoacán</text>
	<path class="mx-state-disabled" id="MX-MOR" fill="#CCCCCC" stroke="#262A27" stroke-width="0.5" d="M226,1117.5l1-0.2l1,0.9l1-0.8l0.5-0.1l0.7,0.6l1.9-0.6
		h0.8l0,0l0.8,0.6l0.7,1.2l1.9,0.7l2-1.6l0.7-0.2l0,0l-2.2,5.5l1,6l-0.4,0.5l-2.2-2l-0.4,0.1l-0.5,1.1l-0.9,0.5l-0.5,0.8l-2.2,1.5
		l0,0l-1.8-1.8l-4.2-0.5l-1.5-2.1l-0.8-0.3l-0.8,0.2l-0.3-0.3l0.5-0.8l-0.4-0.6l0,0l0.2-0.8l1.2-1.4l0.3-1.1L226,1117.5z"/>
	<text transform="matrix(1 0 0 1 213.6387 1195.251)" font-family="'ArialMT'" font-size="7.7209">Morelos</text>
	<path class="mx-state-disabled" id="MX-NAY" fill="#CCCCCC" stroke="#262A27" stroke-width="0.5" d="M90.4,1071l0.2,0.6l-0.6,0.3l-0.4-0.5l0.3-0.4L90.4,1071
		L90.4,1071z M86.4,1067.6l1.2,0.3l0.3,0.5l-0.4,0.3l-0.1,0.6l-1.8-0.7l-0.3-0.4L86.4,1067.6z M82.2,1063.5l2,0.5l0.3,0.3l-0.1,0.5
		l0.6,0.5l-0.2,0.7l-0.5,0.3l-1.9-1l-0.4-1v-0.8H82.2z M81.9,1061.8l0.3,0.8l-0.4,0.2l-0.2-0.6L81.9,1061.8z M101,1045.3l0.5,1.1
		l-0.2,1.1l0.4,0.4l-0.2,0.5l0.7,4.9h-0.5l-0.2-0.3l-0.6-3.2l-1.5-3.5l0.2-0.2l0.8,1.4l0.6-0.2l-0.5-1.7L101,1045.3z M106.5,1035.5
		l1.7,2l1.3-0.3l0.7-1h0.4l1.2,1.4l1,0.5l1.6,0.2l0.5,1.9l0.4,0.3h0.8l0.1,0.9l-0.5,0.7l-1.3,0.7l-1.3,1.4l1.7,3.6h0.5l0.6-0.7
		l1.1-2l1.1,1.4l1.3,0.3l1.9,1.9l0.8,1.6l1.4,0.8h0.4l0.3-1.1l2.2-1l0,0l0.2,2.2l0.3,0.8l0.5,0.3l0,0l0.2,0.4l-1,3.8l0.4,2.3
		l1.3-0.4l0.9,0.8l0.8,0.1l0.4,0.4l0.1,2.1l0.7,1.2l3.5,0.5l1.3,3.3l1.1,0.9l0.2,1.2l-0.3,3.2l-0.3,0.6l-1.8,1l-1.3,0.2l-0.8,0.8
		l-0.8,0.3l-3.1,0.2l-1.2,6.6l-0.6,0.2l-0.4,0.5l0.3,1.2l0.5,0.6l-0.2,0.3l0.9,1.2v1.2l-0.4-0.2l-0.4-1.2l-0.5-0.6l-1.8-1.6
		l-0.8-0.4l-2.1-2.3l-2.4-0.6l-0.9-1.1l-1.2-0.5l-1,0.2l-2.2,1.6l-1.8-0.4l-0.9,0.4l-3.5,4.3l0,0l-0.9-1.4l-0.4-0.1l-0.7,0.5
		l-2.3-0.8l0.6-0.5l0.7-1.6l0.3,0.1l0.7-1.2l0.9-0.6l0.7-0.9l0.1-0.6l0.8,0.3l0.8-1.2l-0.2-0.8l0.4-2.4l-0.5-2.2l1.1-2.1l-0.2-1
		l-0.5-0.6l-0.7,0.2l-3.6-2.5l-1.1-2.8l-2.3-3.9l-0.5-2.1l0.2-2.5l0.6-0.3l0.4,0.9l0.5,0.1l0.2,0.6l1.5,0.8l0.2-1.2l-0.8-0.5
		l-0.2,0.2l-0.3-0.6l-0.8,0.2l-0.2-0.5l0.3-0.3l-0.1-0.5l-0.4-0.1l-0.2,0.3l-0.2-0.2l0.1-0.5l-0.4-0.8l-0.2-2.6l-0.2-0.5l0.2-0.7
		l-0.5-0.3l0.2-0.5l-0.5-1.6l0.2-0.2l0,0l1.6,0.9l2.7,0.5l0.3-0.7l-0.2-1.5l-0.3-0.3l-0.2-1l-1-1l-0.4-1l0.2-0.8l1.3-1.6l0.5-2.6
		L106.5,1035.5z"/>
	<text transform="matrix(1 0 0 1 111.5469 1071.4463)" font-family="'ArialMT'" font-size="6.4115">Nayarit</text>
	<path class="mx-state-disabled" id="MX-NLE" fill="#CCCCCC" stroke="#262A27" stroke-width="0.5" d="M216.1,937l-0.5,0.2l-1,1.3l-2.2,0.6l-0.5,0.5l0.2,0.6
		l-0.3,0.8l0.5,0.3l3.1,0.2v0.7l-0.9,1.1l1,0.7l-0.2,1.9l0.2,1.1l0.8,0.8l0.3,2.5l-1.2,1.1l-0.6,1.9l0.1,0.8h1.2l1,0.5l0.4,0.6
		l-0.4,1l-0.2,2.5l0.6,0.6l0.7-0.3l0.5,0.3l0.6,1.5l1.5,0.2l0.9,3.2l1.4,1.9l1.1-0.1l-0.1,0.8l0.9,1.2l0.5,0.1l0.6-0.5l0.5,0.1
		l0.2,0.5l-0.3,0.5l0.6,1l-0.7,0.2l0.6,0.4l0.3,0.5l2.5,0.4l0.5,0.5l0.9,1.8l0.7,0.4l2.1-1.2l0.8,0.2l2.6-0.5l0.5,0.3l0.1,1.2
		l0.6,0.8l-0.2,2.6l0.5,1.2l-0.4,0.6l-0.2,1.6l0.5,1.2l-0.3,0.6l0.8,0.6l1.5,0.5l0.3,0.2v0.4l-1.2,1.2l-0.5,1.1l-1,0.5l-1.1,1.1
		l-0.6,0.1l-0.8,0.8l-3.4,0.7l-0.8,0.8l-0.6,1.5l-2.2-0.2l-0.5-0.9H228l-1.2,1.5l-1,0.3l-0.2,0.3l0.5,1.7l0.5,0.3l-0.3,1.3l-0.7,0.1
		l-0.7,0.5l-0.4,1.2l-0.8,0.3l-0.3-1.2l-0.3,0.1l-0.3,0.8l-0.8,0.4l-0.8,1.2l-1.4-0.1l-1,1.6l-2.2,1l-1.5,1l-0.5,1.6l0.2,0.2
		l1.4-0.1l1,2l-0.7,5.3l1.4,1.6l1.1,2.8l1.1,0.6l0.6,1.8l-1.8-0.3l-0.3,0.1l-0.2,1.2l-1.4,0.8l-0.5,0.2l-1.9-0.5l-1.8,0.9l-0.5,2.2
		l-1.2,1.4l-0.2,0.8l0.3,2.2l-0.2,1.5l-2.4-0.3l-0.6,0.5l0.5,1l-0.3,0.6l0,0l-3-0.5l-1.8,2.2l-1.2-0.5l-0.9-1.2l-0.5-1.2l-0.2-3.2
		l-0.4-1l0.8-4.3l-0.1-0.7l-0.8-1.2l0.2-3.4l-0.7-1.8l-1.9-2.4l0.1-1.1l-1.4-1.3l-0.2-0.6l0.9-1.2v-0.2l-0.5-0.2l0.4-1.2l-1.1-0.4
		l-0.8,0.2l-1.3-1.8l0,0l0.4-0.3l0,0l0.8-2.5l-0.5-0.9l-0.1-1.1l-1.1-1.2l0.2-0.9l-0.2-0.6l0.2-0.3l1.9-0.1l0.2-0.3l-0.1-1.7
		l-0.7-2.2l1.3-2.5l1.4-0.5l-0.2-0.6l0.7-0.2l1.3,0.2l1,1.2l2.6,0.7h1.5l0.2-0.2l0.1-0.8l0.6-0.7L205,988l-0.7-0.2l-0.4-0.6
		l-2.8-0.5l0.4-0.8l-2.5-1.5l-0.6-0.7l-0.5-2.6l-0.3-0.3l-1.6-0.1l-0.6-0.5l-0.8-0.1l-0.6-1.4l-0.2-1.9l0.8-2.2l-0.3-0.5l-0.2-0.1
		l-1.1-0.8l-0.8-2.4l-2.1-1.5l-3.5-3.7v-1l1.9-1.9l0.8-2.1l0.7-0.7l2.7-0.2l2-1.3h2.5l0.8-1.7l0.8-0.6l0.7-1.8l-0.3-3.9l-1.5-1.2
		l-0.5-0.1l-0.5,2.4l-0.5,0.1L194,950l-0.2-2.5l1.4-2.3l0.9-0.8l0.9,0.3l1.6-0.7l1.7,0.1l0.5-0.4l-0.2-1.8l0.2-0.6l1.3-2l0.4-1.8
		l0.8-0.5l2.9-0.2l4.2,0.7l1.5-1l0.7-0.1l0.8-0.6l0.2-0.5l0,0l0.6-0.2l0.2,0.7l0.6,0.2L216.1,937z"/>
	<text transform="matrix(1 0 0 1 196.3804 981.7939)" font-family="'ArialMT'" font-size="7.7209">Nuevo León</text>
	<path class="mx-state-disabled" id="MX-OAX" fill="#CCCCCC" stroke="#262A27" stroke-width="0.5" d="M275.7,1130.3l0.9-1.7l0.2-0.8l-0.4-0.5v-0.7l0.5-0.5
		l0.8,0.9l0.8,0.2l-0.5,1l0.5,2.1l0.5,0.7l1.5,1.2l1-0.3l1.1,0.6l0.8,1.5l1.1,0.1l-0.4,0.7l0.5,0.3l1.9-0.6l1.1,0.4l0.9-0.2l1.5,0.4
		l0.4,0.3l0.8,2.9l-0.2,1l-0.6,0.8l-0.8,2l-0.5,0.5l0.2,0.5l-0.2,0.9l1.7,3.4l1.5,0.5l1-0.5l2.2-0.2l2.3-1.6l2.9-0.7l0.9-0.8
		l0.3,0.1l1.1,0.6l-0.2,0.5l-1.2,0.5l-0.2,0.8l2.6,3.4l2.6,2.2v0.8l0.5,0.5l-0.2,1.1l22.1,1.4l0,0l-0.2,0.7v1.5l-0.6,0.8l-0.6,2.7
		l-2.2,2l-1.7,4.9l-0.2,0.6l0.9,2.2l-0.4,1.2l0.1,1.6l0,0v0.3l-1.5,0.7l-0.4-0.1l-0.4-0.3l-0.5,0.1l-0.6-0.7H320l-0.7-1.2l-0.8,0.3
		v0.8H318v0.5l0.8,0.8l3.4,0.2l2.4,1.8l0,0l-0.2,0.5l0,0l-3.6-1.6l-2.3-0.7l-5.9-0.8l-0.2-0.3l2-0.7l0.5-0.5l0.3-0.8l-1.9-0.6
		l-1,0.7l-0.3,0.7h-0.8l-0.2,0.5l-0.4-0.1l-0.1-0.3l0.8-0.7l-0.8-0.7l0.2-0.5l-1.1-0.8l-1.3,0.3l-1,1.7h-1l-0.7,0.6l0.2,0.7
		l-0.5,0.1l-0.3,0.6h4.9l1.4,0.2l0.1,0.2l-2.8,0.1l-3.1,0.5l-1.4-0.2l-0.2,0.5l-1.5,0.2l-0.4,0.4h-0.1l-0.2,0.8l-1.5,0.7l-0.2,0.4
		l0.2,0.6l-1.1,0.4l-0.2,0.4l-1.2-0.2l-0.1,0.5h-1.5l-0.1,0.4l-1.5,0.7l-1.9,0.2l-1,0.6l-3,0.8l-2.1,1v0.2l-1.2,0.3l0.2,0.2
		l-2.2,1.1l-3.5-0.2l-1.5,0.8h-1.2l-2.7-1.2l-3.1-0.5l-1.2-0.8l-1.9-0.6l-0.6-0.4l-0.2-0.6l-2.9-1.3l-2.5-0.6l-1.5,0.1l-2-0.5
		l-0.5,0.2l-2-0.3l-0.3,0.3l-1.9-0.3l-4.4-2.9l-4.2-2.2l-3.6-0.6l-2.9-1.1l0,0l3.6-2.7l0.4-1.5l3.2-2.8l0.2-1.1l0.7-0.5l0.9-0.2
		l0.7-0.7l0.7-2.2l-0.3-1.2l-0.3-0.4l-0.9-0.2l-0.2-0.5l0.1-1.5l-0.3-0.9l-1.8-0.6l-0.5-0.4l0.2-1.6l0.7-0.6l-0.5-3.6l-2.1-4.7
		l0.2-1.1l1.3-3.1l0,0l0.9-1.1l1.6-1.1l1.2-0.3h2.7l1.1-0.5l1.7,1.2l0.9,0.3l0.5-0.2l1.4-1.2l0.2-0.5l-1.9-1.2l-0.3-0.6l1.5-3.3
		l1.2-0.5l1.2-0.2l0.4,0.2l0.2,0.8l-0.1,0.4l-1,0.7l0.1,0.3l1,0.8l0.5,0.8l1.1,2.2l0.3,1.2l0.6,0.5l0.7-0.7l0.7-1.5l2-2l1.1-0.2
		l2.9,0.7l1.4-1.2l0.1-0.7l0.2,0.5l1.1-0.7l1.9-0.4l1.5-2.6L275.7,1130.3z"/>
	<text transform="matrix(1 0 0 1 272.0127 1165.1611)" font-family="'ArialMT'" font-size="7.7209">Oaxaca</text>
	<path class="mx-state-disabled" id="MX-PUE" fill="#CCCCCC" stroke="#262A27" stroke-width="0.5" d="M250.7,1085.6l0.5-2l0.8-0.6l0.1-0.6l0.7-0.7l0.2-0.8
		l0.9,0.3l1.5-0.2v1.4l-0.9,0.6l0.2,0.2l0.7-0.2l0.6,0.5l-0.3,0.6l0.2,0.6l0.6,0.6l1.7,0.9l0.4,0.8l-1.2,1.9l-1.2-0.7l-0.9,0.6
		l0.1,3.1l0.4,1.9l0.5,0.4l1.5-0.2l0.7,1.4l0.5,0.2l1.2-1.1l0.9-1.5l0.6-0.5l5.5,1.9l0.1,0.4l-1.7,2.3l-1.3,3.3l-0.2,0.6l0.2,0.8
		l-0.2,0.8l-0.5,0.7l-0.8,2l-0.5,0.2l-0.3,0.5l1.1,2.3l-0.4,1.1l0.2,0.3l1.1,0.8l2.8,0.6l2.2,1l0.4,0.5l0.1,1l-0.2,0.5l-0.4,0.1
		l-3.7-0.2l-0.2,0.7l0.4,4.7l-0.1,0.5l-1.5,1.9v2.3l0.3,0.8l0.6,0.5l2.9,0.8l-0.2,0.6l1.5,2.4l1.1,0.1l0.8-0.8l1.1-0.6l2,0.6
		l1.5,1.7l0,0l-0.6,0.6l-1.5,2.6l-1.9,0.4l-1.1,0.7l-0.2-0.5l-0.1,0.7l-1.4,1.2l-2.9-0.7l-1.1,0.2l-2,2l-0.7,1.5l-0.7,0.7l-0.6-0.5
		l-0.3-1.2l-1.1-2.2l-0.5-0.8l-1-0.8l-0.1-0.3l1-0.7l0.1-0.4l-0.2-0.8l-0.4-0.2l-1.2,0.2l-1.2,0.5l-1.5,3.3l0.3,0.6l1.9,1.2l0.1,0.3
		l-1.4,1.2l-0.5,0.2l-0.9-0.3l-1.7-1.2l-1.1,0.5h-2.7l-1.2,0.3l-1.6,1.1l-0.9,1.1l0,0l-1.2-0.6l-1.2-1.5l-1.2,0.1l-0.7,0.7l-0.4-0.2
		l-1.1,0.2l-0.1-0.8l-3.2-1.4l0.6-0.8l-0.2-0.6l-2.3,0.2l-0.9-1.8l-1.1-0.5l-1.1-0.9l0.1-0.9l0,0l2.2-1.5l0.5-0.8l0.9-0.5l0.6-1
		l0.4-0.1l2.2,2l0.4-0.5l-1-6l2.2-5.5l0,0l-0.1-3.4l-0.8-2.8v-0.8l0.4-0.5l-0.3-1.4l0,0l0.5-0.2l0.9,0.3l2.3,1.8l1,1.1l0.4,1.1
		l0.9,1l3.2,1.7l0.7-0.1l2.4-2.1h0.5l1.2,0.8l0.6-0.1l0.9-0.6l1.1-1.8l0.6,0.2l2.1-0.4l0.6-0.4l0.2-0.9l-0.7-0.2l-0.5-0.5l-0.2-0.9
		l-0.9-0.9l-0.5-0.3l-1.2,0.4l-0.6-0.2l0.1-1.3l-3.2-2.6l-0.5-0.8l-0.4-0.1l-1.2,1.4l-0.5,0.2l-1.6-0.3l0,0l-0.5-3.6l1.2-2.4
		l0.6-3.7l-0.4-1.7l-1.6,0.4l-0.5-1.1l2.8-1.5l0.7-1.1l2.2-1.9L250.7,1085.6z"/>
	<text transform="matrix(1 0 0 1 238.5771 1127.5078)" font-family="'ArialMT'" font-size="7.7209">Puebla</text>
	<path class="mx-state-disabled" id="MX-QUE" fill="#CCCCCC" stroke="#262A27" stroke-width="0.5" d="M229.4,1071.8l-1,2.4l-3.2,1l-0.9-0.5l-1.2,1.1l0.2,0.8
		l-0.6,1.2l-0.4,1.7l-0.6,0.9l-0.9,0.3l-0.8,2l0.5,1.5l-1.8,1.2l-2.2,0.5l-0.7,0.5l-1.2,0.4l-0.8,5l0,0l-0.8,0.6l-0.2,0.5l0.2,0.5
		l-0.5,0.1l-0.7-0.5l-0.2,0.2l0.4,0.8l0.2,1.3l-1.5,1.5l-1.9,0.2l0,0l-2.5-2.3l0.2-0.6l-0.9-1.5l-1.2-0.8l0,0l-0.5-1.3l-1.5-1.1
		l-0.8-1.5v-1.6l-0.5-1.3l-0.8-0.5l-0.1-0.6l0.5-2.9l0.5-1.1l3.6-0.2l1.2-0.5l2.1,0.3l0.5-0.3l0.2-0.8l0.6,0.4l0.5-1.2l-0.1-1.2
		l1.8-2.5l1.2-0.5l1.3,1.4l0.8-0.2l0.5-0.8l1.2-0.5l0.5-1.1v-0.9l-1.9-0.5l0.8-1.5l0.1-1.6l-0.4-0.4l0,0l-0.5-0.5l1.2-0.3l-0.2-0.4
		l0.2-0.4h0.8l1.2,0.8l0.5,1.5l0.5,0.5l1.9,0.2l1.5-0.4l0.5,0.3l0.8-2.2l0.5-0.3l0.6,0.2l0.4-0.2l0.8,1.7l2.5,2.6l0.6,1.2
		L229.4,1071.8z"/>
	<text transform="matrix(1 0 0 1 299.3462 1079.8711)" font-family="'ArialMT'" font-size="7.7209">Querétaro</text>
	<path class="mx-state-disabled" id="MX-ROO" fill="#CCCCCC" stroke="#262A27" stroke-width="0.5" d="M467.3,1086.3l-0.8,2l-0.8,1.2h-0.2l-2,2.6l-1.2,0.8
		l-0.5-1.3l0.1-1.5l1.8-2.9l0.5-0.3l0.5,0.6l0.2-0.2l0.4,0.2l1.2-0.3L467.3,1086.3z M420.6,1140.3l-0.2-1.9l1.9-2.2l0.5-1l-0.2-3.6
		l-0.4-1.1l0.5-1.3l-0.6-0.4l0.4-1.1l-0.2-0.5l-0.8-0.9l-0.2-1l0.6-3.9l-0.2-1.9l0.3-0.5l0.9-0.5l0.2-4.6l-2.6-3.6l-4.1-3.3l-1-1.4
		l0,0l0.7-1.5l0.2-1.2l-0.2-0.7l0.5-0.4l2.7-0.2l1.1-1.1l1.9-0.8h1.9l0.9-0.3l1.5-1.4l0.8,0.7l0.2-0.2l-0.2-0.5l1.5-1.2l1.4-0.8
		l4.2-1.5l0.4-0.4l0.6-1.9l0.4-0.3h0.8l0.7,1.3h0.3l-0.2-1.7l1.2-2.2l0.9-0.5l0.8,0.8l1.2-0.3l1.2,0.1l2.4-1.4l2.4-2.1l1.3-0.6
		l0.7-0.9l0.2-1.2l0.7-0.8l0.4-1.9l0.9-1.5l0.1-0.8l-1-2.5l0.4-2.5l0.7-0.7l0.1-0.6l-0.2-4.1l0,0l1,0.1v0.3l0.5,0.2l0.5-0.2l1.6,0.5
		l0.2,0.3l0.5-0.2l1.2,0.2l0.3,0.3l0.2-0.4l2.1-0.7l0.2-1.5l-0.5-0.2l0.5-0.6l0.4-0.2l0.3,0.4l1.1,0.3l0.5,0.6l0.2-0.2l0.4,0.4v0.6
		l1.2,1.7l0.8,3.1l0.3-0.1l0.2-1.2l0.5-0.5l-0.1-0.7l-0.5-0.8l0.5,0.2l0.1,1.3l-0.5,1.2l0.3,0.9l-0.2,1.1l0.2,0.6l0.9,0.7l-0.5,1.9
		h-0.6l-0.2,0.5l-1,3.1l-0.9,0.8l-0.8,1.2v0.4l-0.9,0.5l-0.2,0.6l-1.5,1.7l-3,2.3l-1.3,1.9l-0.8,1.9l-1.2,1.3l-1.1,3.1v1.5l0.5,1.5
		l0.3,0.1l0.2,0.8l-0.5,1.1l-0.6,0.6l0.3-0.7h0.3l0.5-1l-0.1-0.5l-0.5-0.3l0.1,1l-0.8,1.4l-0.6,0.2l-0.2-0.3l-0.7,0.4l-1.2,2.1
		l-1.9,0.3l-0.2,1.5l0.8,0.5l0.2,0.5l0.5-0.2l-0.1,0.6l0.3,0.1l-0.2,0.5l0.5-0.1l0.7-1l1.2-0.2l0.5,0.5l0.6-0.6l-0.2-0.3l1.3-0.2
		l0.4,0.6l-0.4,2.6l-1.5,1.5h-0.4l0.1-0.6l-1.9,1.2l-0.5,1.3v1l-0.5,0.6l0.3,0.1l-0.1,0.5h1.1l1.5-2.2l0.6-0.3l0.4,0.2l-0.2,1.1
		l0.2-0.8l0.8-0.1l-1.7,2l-0.2,2.5l-1.5,3.2l-0.8,3.7l-0.7,0.8l-0.6,3.7l-0.4,0.7v1.5l-1.1,1.8l-0.5,2.5l-0.5-0.4l-0.5,0.1v-0.5
		l0.5-0.3l-0.1-0.8l-0.3,0.1l0.3-1.2l-0.4-0.2l-0.2-0.5l-0.6-0.2l0.2-0.8l-2-0.6l-0.8-0.9l0.5-0.4l0.2-1.5l0.7-1.3l-0.4-0.4l0.3-0.9
		l-0.3-1.1l-0.5-0.5l0.2-0.7l-0.6-0.2l-1.8,2.8l-0.8,0.1v0.2l0.8-0.3l-2.5,4.6l-1.8,0.1l-0.2-0.2l-0.8,0.3l-0.9-0.2l-0.7,0.6
		l-0.7,2.3l-0.8,0.8l-0.4,1.5l-0.8,1.1l-0.9,2.2l-1.1,0.6l-0.5,1.1l-1.2,1l0.1,1.2l-0.7-0.8l-0.7-0.3l-0.5-0.8h-0.8l-0.8-0.9
		l-1.4,0.3L420.6,1140.3z M459.8,1065.8l-0.2,0.4l-1.5,0.9h-1.2l-0.5,0.3l-0.7-0.4l-0.4-0.6l1.3,0.5l1.1-0.1L459.8,1065.8z"/>
	<text transform="matrix(1 0 0 1 412.0517 1162.4961)" font-family="'ArialMT'" font-size="7.7209">Quintana Roo</text>
	<path class="mx-state-disabled" id="MX-SLP" fill="#CCCCCC" stroke="#262A27" stroke-width="0.5" d="M194.3,1004l1.3,1.8l0.8-0.2l1.1,0.4l-0.4,1.2l0.5,0.2
		v0.2l-0.9,1.2l0.2,0.6l1.4,1.3l-0.1,1.1l1.9,2.4l0.7,1.8l-0.2,3.4l0.8,1.2l0.1,0.7l-0.8,4.3l0.4,1l0.2,3.2l0.5,1.2l0.9,1.2l1.2,0.5
		l1.8-2.2l3,0.5l0,0l0.7,0.8l0.1,1.6l0.8,0.6l0.4,0.8l-0.2,2.8l0.2,2.3l0.2,0.5l0.8,0.7l3.2,1.1l2.5,0.2l1.7,0.5l0.5-0.3l-0.1-0.8
		l0.8-0.5l0.5,0.2l0.6,1l1.3,0.5l1.1,0.8l0.6,0.9l0.7,1.9l1.7,2.2l1.4-0.2l1.5,0.3l1.8-0.1l0.5-0.6l1.5,0.9l1.6-0.4l0.8,0.2l0,0
		l0.2,0.7l0.4,0.2h1.9l3.4,1.1l0.5,0.5l0.9,2.8h-1.9l-0.8,0.5l0.2,2l-0.2,0.5l-0.3,0.2l-1.7-0.2l-0.2,0.3l0.3,0.3h0.8l-0.5,0.4
		l0.3,0.2l-0.1,0.9l0.5,0.5l0.4-0.1v0.4l0.9,0.8l-1.3,0.6l-0.2,0.6l-0.8-0.1v0.5h-1l-0.2,0.7l0.7,2.5l1,0.2l0.1,2.5l0,0h-1.3
		l-1.2,1.4l-1,2.3l-0.7-1l-1,1.9h-0.8l-1-0.8l-0.8-1.9l-1.8,0.6l0,0l-0.7-0.2l-0.6-1.2l-2.5-2.6l-0.8-1.7l-0.4,0.2l-0.6-0.2
		l-0.5,0.3l-0.8,2.2l-0.5-0.3l-1.5,0.4l-1.9-0.2l-0.5-0.5l-0.5-1.5l-1.2-0.8h-0.8l-0.2,0.4l0.2,0.4l-1.2,0.3l0.5,0.5l0,0l-2,1h-1.2
		l-0.5-0.6l-0.3,0.4l-1.4,0.2l-1.3-1.6l-0.4,0.1l-0.2-0.5l-2.4-1.5l-3-1l-0.8,0.5l-0.5,1.4l0.1,0.8l-1.2,0.5h-2.2l-2.1-1.1l-3.9-2.9
		h-0.9l-0.9-0.6l-3.6-0.8l-1-0.5l-2.2-0.2l-0.9-0.5l0,0l1.5-3.1l0.3-0.8l-0.2-0.2l0.1-0.4h0.3l0.3-1.2l-1.1-3l2.5-5.6l0.2-1.2
		l-1.5-2h-0.5l-1.2,0.5l-3.4,3.6l-1.9,0.5h-1.6l-1.2-1.5l-0.7-1.5l-0.8-0.5l-1.8-0.2l-0.8-1l-3.2-1.9l-0.7-0.8l-0.2-1.2l0.2-1l1-3.1
		l-0.8-2.3l0.4-1.3l-0.5-0.6l0.7-1.3l0.5-0.2l1.8,0.7l2.2-0.5l0.4-1.1l0.7-0.8l1.8-0.6l2.8-1.6l2.7-3.9l3.6-1.2l0.8-1.2l0.9-2.3
		l-0.8-0.9l0.6-2.9l0.5-0.5l1.5-0.4l1.1-0.7l0.7-1.4l0.2-1.2l0.5-0.4l1.2,0.1l0.8-0.4l0.5-1.3l0.9-0.8l0.3-1.4L194.3,1004z"/>
	<text transform="matrix(1 0 0 1 186.6157 1056.6094)" font-family="'ArialMT'" font-size="6.1063">San Luis Potosí</text>
	<path class="mx-state-disabled" id="MX-SIN" fill="#CCCCCC" stroke="#262A27" stroke-width="0.5" d="M100.7,1043.8l0.3,0.1l0.4,0.7l-0.4,0.5L100.7,1043.8z
		 M53.6,993.3l0.9,1.1l0.4-0.2l0.2,0.2v0.7l0.5,0.8l-0.2,2.1h-0.5l-0.5-1.6l-0.8-0.9C53.6,995.5,53.6,993.3,53.6,993.3z M49.8,991.5
		l1.1,0.7l2.8,3.6l0.5,0.8v1.1l-0.3,0.2l-2.1-3.9l-2.2-2L49.8,991.5z M49.4,989.8l1.4,0.9l0.1,0.5l-1.3-0.6L49.4,989.8z M32.7,966
		l0.8,0.1l0,0l0.4,0.3l-0.1,0.8l-0.3,0.2l1.4,1.2l-0.3-0.8l0.6-0.5l-0.2-0.5l-0.2,0.2l-0.4-0.2l-0.7-1.4v-0.5l0,0l-0.1-1.2l0.2-0.2
		L34,965l0.3,0.2l0.4-0.7l0.6,0.7l0.1,0.6l0.4-0.2l-0.1,0.6l0.2,0.3l2.2-1.3l1-0.9l1.5-0.5l0.1-1.9l0.4-0.7l3.2-0.8l1.6-3l1.5-0.5
		l-0.2-1.9l2.4-3l0.2-1.4l0,0l3.8-0.2l0.5,0.3l0.1,2.2l0.5,0.2l0.9-0.2l0.8,1.8l-0.3,1.8l0.4,0.6l-0.4,1.5l0.2,0.8l1.1,0.7l0.1,1.5
		l2.4,3.9l0.9,3.6l2.9,0.8l2.5,0.2l1.9,0.5l2.2,3.8l0.5,2.5l1.6,2.2l0,0l0.1,0.5l0.5-0.2l0.2,0.5l-0.9,0.6l-1.3,1.7l0.5,0.5l0.4-0.1
		l0.1,0.5l-1,2.5l-0.1,3.9l-0.4,1.5l0.8,0.5l0.4,1.4l0.5,0.8l0.9,1.9l-0.2,1.2l0.9,0.8l0.4-0.3l1.8,0.2l0.7,2l1,0.2l0.9,3.5l0.5,0.2
		l0.5-0.3l0.2,0.2l0.6,3.2l0.8,1.1l0.5,1.5l0.6-0.2l0.5,0.4l0.5-0.4l1-0.2l2.2-1.6l0.5-0.8l3.1,0.9l1.2,0.8l0.7,1.1l0.8,0.2l0.1,0.8
		l1.3,1.8l0.1,1.7l0.8,0.7l-0.2,0.7l0.6,2l0.5,0.8l0.5,2.2l0.8,0.9l0.7,1.6l1.3,1.2l0.3,2.2l0.8,2.2l-0.2,0.7l0.5,1.3l0.9,1l0.1,1.8
		l0.5,1l1.5,0.1l0.7-0.5l0.5,0.1l1.6,1.7l0,0l-0.6,0.5l-0.5,2.6l-1.3,1.6l-0.2,0.8l0.4,1l1,1l0.2,1l0.3,0.3l0.2,1.5l-0.3,0.7
		l-2.7-0.5l-1.6-0.9l0,0l0.2-0.8l-1.2-1.2l0.2-0.5l0.5-0.3l-0.5-0.5l-0.4,0.5l0.4,1.5l0.4,0.4l-0.5,1.3l0.4,1.3l-0.3,0.5l-2.9-4.5
		l-2.3-2.2l-1.4-0.8l-3.2-4l-3.6-3.6l0.3-0.2l0.8,1l0.1-0.2l-1.2-0.8l-0.4,0.2l-0.2,0.5l-0.3-0.2l0.1-0.5l-0.5-0.4l-0.7-1.2l0.2-0.3
		l-1-1.5l-1.9-1.9l0.1-0.3l-1.1-0.9l-0.5-0.8l-2-1.5l0.3-0.4l-1.7-2.6l-0.2-0.9l-5.8-5.4l0.7,0.2l0.2-0.3l-0.4-0.2l0.1-0.6l-0.5-0.1
		l-0.2,0.4l-0.4,0.2l-2.9-2.3l-1.1-0.2l-3.9-3.1l-3.6-2.2l0.2-0.5l0.5,0.5l2.4,1.3l0.4,0.5l0.8,0.1l0.4,0.6l0.5-0.1l0.6,0.8l0.4-0.1
		l-0.4-0.5l0.1-0.5l0.5-0.2v-0.3l-0.2-0.9l-1.2-1.5h-1l0.1,1.1l-0.8,0.2l-0.8-1.1l-0.5,0.4l-0.8-0.2l-0.2-0.7l-1.2-1.2l-1.6-0.7
		l-0.2-0.4l-0.5,0.3l-0.8-0.4l-0.6-0.8l0.1-0.8l-1.1-1.2l0.5-0.2l0.9,0.9l0.5-0.9l-0.5-0.4l-0.2-0.6h-0.2l0.1-0.7l0.4-0.4l-0.5-0.2
		v-0.5l0.4-0.5l0.1-0.6l-0.8-0.5l-0.2-1.5l-0.4-0.5l-1.2-0.8v0.4l-0.7-0.2l-1.5-1.3l-0.2-0.6H50l0.1-0.8l-1-0.5l-0.5,0.6l0.2,0.5
		l-0.3,0.5l-1.5-1.6l-4.2-2.1l0.4-0.5l-0.3-0.4l-1,0.3l-1.2-1.8l0.5-1l0.2-0.5l-0.9,0.3l-0.3-0.8l-1-0.1l-0.3,0.2l0.2,0.5l-0.2,0.5
		l0.4,0.2l-0.5,0.8l-0.4,0.2v-0.4l-0.3-0.2l0.2-0.3l-0.6-0.2l-0.9,0.2l0.2,0.6l-0.6,0.2L35,983l0.9-0.2l0.3-0.3l0.1-0.6l0.7,0.6
		l0.7-0.3l0.2-0.8l0.5,0.1l0.4-0.4l-0.3-1h-0.8l-0.8,0.5l-0.7,1.4l-1.2-0.4l-0.2,0.4l-0.5-0.1l-0.3-0.8l-1.3-1.2l-0.4,0.4l1.2,0.9
		l0.1,0.6l-1.2-0.8l-2.2-0.4l-0.2-0.2l1.5,0.2l0.1-1.5h-0.4l-1.2-1l-0.8,0.1l-0.3-0.5l0.2-2.1l0.2-0.1l-0.3-0.8l-0.3-0.2V974
		l0.5-1.6h0.3v-0.6l1.6-2.6l0.5-1.9l0.8-0.8l0.2,0.1l-0.2,0.8l-0.7,0.2l-0.5,2.1l0.3,0.5l0.2-0.2l0.3-0.7l-0.2-0.5l0.2-0.2l0.2,0.5
		l0.6-1.3L32.7,966z"/>
	<text transform="matrix(1 0 0 1 40.7544 981.7939)" font-family="'ArialMT'" font-size="7.7209">Sinaloa</text>
	<path class="mx-state-disabled" id="MX-SON" fill="#CCCCCC" stroke="#262A27" stroke-width="0.5" d="M33.5,966l-0.8-0.1l0,0l0.1-0.4h0.4L33.5,966z
		 M32.2,965.5l0.1-1.2l0.2,0.8L32.2,965.5z M5.9,943.5l0.5,0.7l-0.2,0.2l1,0.5L7,945.3l-1.2-0.7L5.9,943.5z M-26.5,902.8l0.4,1.2
		l-0.2,0.8l0.8,0.9l0.8,2l-0.4,0.3l-0.1,1.1l-1.2,3.1l-0.1,0.8l-0.5,0.5l-0.4-0.4l-0.7,0.1l-0.9-0.8l-1-0.1l-0.2-0.5h-0.4l-0.1-0.3
		l-1.5-0.8l1.3-0.9l0.5-0.7l-0.3-2.5l0.5-2.3l0.4-0.6l1,0.2l0.8-0.7L-26.5,902.8z M-72,846.5l0.6,0.1l-0.1,0.5l-1.2-0.3v-0.2
		L-72,846.5L-72,846.5z M-74.9,845l0.8,0.4l0.5,1.1l1,0.7l0.4,0.8l-0.2,0.5L-73,848l-0.5,0.1l-0.8-0.4L-75,847l-0.3-0.8l0.2-1.1
		L-74.9,845z M41.3,856l0.8,0.8l-0.7,1l0.4,1.5l1.2,2.2l0.2,1.2l-0.4,1v1.4l-1.2,0.1v0.5l2.1,2l0.1,1.9l0.8,0.7l-0.5,1.2l0.1,0.6
		l0.7,1.1l-0.1,0.9l1.5,4.8l-0.2,1.4l-0.7,0.4l0.2,0.8l1.1,1v0.8l-1,2l-0.5,3.8l0.2,0.8h0.5l0.6,0.8l0.5,4.8v2l-0.4,0.8l-0.2,0.7
		l0.2,4.4l-0.2,0.4l-1.1,0.5l-0.1,2.1l-1.2,1l0.4,1.9l-0.7,1l0.6,2l-1.2,2l-0.2,0.8l0.6,1.5l-0.3,2.2l1.2,1.4l1.8,0.7l-0.5,0.9
		L45,922l-0.8,0.9l-0.8,0.1l-1.2,0.8h-0.4l-1.4-1l-0.6-0.1l-1.1,0.7l-1.9,0.4l-0.8,1.1l0.2,0.5l1.2,0.8l-0.5,2.2l0.3,0.5l1.4,0.5
		l1.6,2.3l0.3,1.3l-0.5,1.9l0.4,0.5l2.2,1.3l0.5,1.6l0.8,1.1l1.2,3.2v1.3l-1,2.4l0.4,2.6l-0.5,0.3v0.4l2.7,1.4l1.5-0.5l1.4,0.3l0,0
		l-0.2,1.4l-2.4,3l0.2,1.9l-1.5,0.5l-1.6,3l-3.2,0.8l-0.4,0.7l-0.1,1.9l-1.5,0.5l-1,0.9l-2.2,1.3l-0.2-0.5l0.1-0.6l-0.4,0.1
		l-0.1-0.6l-0.6-0.7l-0.4,0.7l-0.3-0.2l-0.2-1.5l-0.2,0.2l0.1,1.2l0,0h-0.3l-0.2,0.4l-1-1.3l0.1-0.8l-1.1-1.9l-1.8-2l-1.1-0.8
		l-0.7-0.1l0.8,0.2l0.1-0.3l-0.3-0.7h-0.5l-0.3-0.6l-0.5,0.2l-0.1-0.5l-0.3-0.1l-0.5,0.8l0.3,0.6l-2.1-0.1l-0.4,0.5l-1.9-0.8
		l-0.9-0.8l-0.7-1v-0.4l-0.8-2.2l-1.1-1.5l0.2-0.1l0.8,1.1l0.2-0.7l-0.5-0.3l0.2-0.3l-0.2-1.2l-1.3-1.1l-0.2,0.3l-0.3-0.3l-0.8,0.8
		l-0.8-0.5l-3.9-0.9L9.2,946l-1.1-0.5l0.2-0.2L8,944.5l0.1-1L7.6,943l-0.4,0.3l-0.5-0.4l-0.1-1l-0.3-0.1L6,941.3l0.2-1.6l-0.3-0.9
		l0.2-0.3l-0.6-0.6l0.1-0.6l1.1-0.8l-0.6-0.1L5.9,937l0.2-1.2l0.5-0.3l-0.5-0.1l-0.3-0.7l0.4-0.3l-0.1-0.6l0.3-0.6l0.7,0.2l0.2-0.4
		l-0.8-0.6l-0.7-0.1l-0.4,0.4l-0.5-0.4l-3.1-0.8l-0.2-0.6l-1.2,0.6l0.5,0.7L0.7,933l-0.9-0.3l-0.8-0.8l0.3-0.5l-0.5-0.1v-0.5l-1-0.2
		l-1,0.6l-1.2-1.1l-0.8-0.2l-0.7-1.1l-0.8-0.2l-0.5-0.6l-0.2-0.7l-0.8-0.9v-0.7l-0.5-0.7l-0.2,0.1l-0.4-1.2h-0.3l-0.9-0.8l-0.1-1.1
		l-0.6-0.5l-4.2-1.5l-0.2-0.8l-0.9-2l-3.1-2.9l-0.4-1l0.5-0.1l0.4-0.5l0.4,0.9l0.5-0.3v-0.7l-0.5-0.4l-0.4,0.3l-0.4-0.5l-0.2,0.2
		l-1-0.8l-0.9-0.2l-0.5-1l-0.8-0.6l-0.2-0.5l-1.5-0.5l0.5-0.5l-0.3-0.6l-0.1-1.1l-0.2-0.2l0.4-0.8l-0.4-0.8l-0.3-0.1l-0.1-0.5
		l-0.5-0.1l0.4-1.4l-0.5-1.4l-0.5-0.5h-1l-0.6,0.3l-1.3-0.7l-0.2-0.8l0.8-2.2l-0.2-0.5l-0.8-0.4l-0.2-0.9l-0.8-0.6l-1.3-2.2
		l-0.7-0.5l-0.5-1.5l-0.8-1.2l-0.2-1.2l-0.9-0.5l-0.5,0.2l-0.2-0.2l0.3-1.9l-0.5-1.2l0.1-2.7l-0.4-1.1l-1.5-1.5l-0.1-2.4l-0.8-1.5
		l-1.9-1.6l-1.9-3.6l-0.7-2.6l0.5-1.8l0.1-2.3l0.2,0.1l0.5-0.8l0.1-0.8l-0.4-2.2l-0.2,0.1l-0.2-0.6h-0.4l-1.8-1.1l-0.5-0.8l-0.6,0.5
		l-3-0.7l-0.2-0.3l-0.2,0.2l-2-0.4l-0.1-0.4l-0.5-0.2l-1-0.2l0.2-1.2l-0.5-1.2l0.1-0.6l-0.4-0.7l-0.9-0.8l-3.3-1.4l-0.1-0.5
		l-0.3,0.1l-0.2-0.4l-0.3,0.5l-0.6-0.4l-0.5,0.5l-0.2,0.5h0.6l0.2,0.4l-0.5,0.7l-0.5-0.1l-0.3,0.9l-2.2-0.1l-2.4-1.1l-1.1-1.2
		l-2.5-0.8l-0.3-0.5l-0.6-0.2l-1.9-1.8l-1.7-0.1l-1-0.5l-0.8-0.9h-0.6l0,0l-2.9-2.2l-0.7-0.1l-0.8-0.7l0.5-0.8l-0.2-0.8l0.3-2.1
		l-0.2-0.8l0.5-1.4l-1.1-1.5l1.4-1.9l0.1-1l0.4-0.4l0.5-1.6h1l0.4,0.3l0.6-0.4l0,0L-3.1,856L41.3,856z"/>
	<text transform="matrix(1 0 0 1 -2.8975 907.5371)" font-family="'ArialMT'" font-size="7.7209">Sonora</text>
	<path class="mx-state-disabled" id="MX-TAB" fill="#CCCCCC" stroke="#262A27" stroke-width="0.5" d="M334.8,1131.3l-3.2,1.2l-0.3,0.5l-1.5,0.2L334.8,1131.3z
		 M356.5,1125.8l0.8,2.9l0.5,0.7l1.1,0.8h0.8l0.5,0.8l0.4-0.1l0.1-0.3l0.3,0.2l0.8,1.1l-0.2,1.5l0.4,0.2l0.8,2l0.9,1.4l2.7,1.8
		l0.7,1.1l1,0.5l1.2-0.1l1.7,0.8l1-0.5l1.3-0.1l0.2-0.5l-0.2-1.4l0.2-1l2.2-0.1l2.9,0.6l1.2,1.2l1.2,0.5l0.6,0.7l0.5-0.3l3.1,1.2
		v1.2l0,0l-0.2,11.2l-8.2,0.2l0,0l0.4-0.8l0.6-0.2l-0.8-1.4l-1-0.3l-0.2-0.6l-3.3-0.9l0.6-2.1l-1-2.5l-2-1v-1.5l-0.8-1.1l-0.9,0.2
		l-0.9-0.2l-0.5,0.3l-0.5-0.2l0.1-0.5l-1.2-0.3l-0.5,1.4h-1.5l-1.4-0.4v0.3l-0.3-0.1l-0.1,0.3l0.3,1.4l-0.3,0.7l-2.5,0.9l-0.5,0.6
		l-4.5,3.3l-1.9,1.8l-1.5,0.6l-0.6-0.2l-0.5-0.7v-0.5l-0.9-1.5l-0.4-0.2l-0.3,0.3l-1,0.1l-0.3-0.2l0.2-1.5l-1.6-1.7l-0.3-0.7
		l0.1-0.5l1.1-1.6l0.2-1.3l-2.2,0.1l-0.6-0.3l-1.1-1.3l-1.6-0.7l-0.4,0.5l-1.3,0.2l-0.6,5.5l-0.5,0.9l-0.9,0.6l-1.1,1.5l-0.1,1.2
		l-1.9,2.5l0,0l-1.5-0.6l-0.3-1.7l0.3-0.8l-0.2-1l-0.8-2.4l-0.3-0.4l-1.9-0.8l-0.3-0.5h-0.9l-1.1-1.5l-1.1-0.2l-0.8-0.8v-2.3
		l-0.5-1.2l-0.1-2.2l-0.4-0.3l0.7-0.7l0.7,0.4l0.2-0.2l-1.8-0.3l1.5-0.7l0,0l3.5-1.2l0.1,0.9l2.1-0.4l0.5-0.3l-0.2-0.8l0.5-0.3
		l0.8-0.1l0.2,0.3l0.6,0.1l1-0.2l0.5-0.5l-0.1-0.9l2.5-0.6l0.2,0.5l0.6-0.7l4.2-0.2l0.7,0.3l-0.5,0.5l0.1,0.7h0.6l0.6-0.3l0.1,0.2
		h0.5l0.3-0.5l-1.4-0.6l0.8-0.4l2.2,0.2l1.7-0.2l2.3-1.2l1.8-2.2L356.5,1125.8z"/>
	<text transform="matrix(1 0 0 1 338.3242 1137.3351)" font-family="'ArialMT'" font-size="5.1945">Tabasco</text>
	<path class="mx-state-disabled" id="MX-TAM" fill="#CCCCCC" stroke="#262A27" stroke-width="0.5" d="M255.1,1009.5l-0.2,3.5l-0.2,0.1L255.1,1009.5z
		 M260.2,989.3l0.4,0.2l-2.2,5.4l-0.2-1.1l0.2-0.7l0.5-0.4l0.1-0.8L260.2,989.3z M253.5,1052.1l-1.5,1.1l-1.2-1.2l-0.3-0.8l-0.9-0.8
		l-1.1-0.2l-1.2-0.9l-0.8-0.3l-0.5-1l-1.9,0.2l-0.3,0.5l0.2,0.5l-1.5,0.3l-0.1-0.5l-0.3,0.2l-0.5-0.5l-0.8-0.2l-3.2,0.2l-1.4,0.8
		l0,0l-0.8-0.2l-1.6,0.3l-1.5-0.9l-0.5,0.6l-1.8,0l-1.5-0.3l-1.4,0.2l-1.6-2.2l-0.7-1.9l-0.6-0.9l-1.1-0.8l-1.3-0.5l-0.6-1l-0.5-0.2
		l-0.8,0.5v0.8l-0.5,0.3l-1.7-0.5l-2.5-0.2l-3.2-1.1l-0.8-0.7l-0.2-0.5l-0.2-2.3l0.2-2.8l-0.4-0.8l-0.8-0.6l-0.1-1.5l-0.7-0.8l0,0
		l0.3-0.6l-0.4-1.1l0.6-0.5l2.4,0.3l0.2-1.4l-0.3-2.2l0.2-0.8l1.2-1.4l0.5-2.2l1.8-0.9l1.9,0.5l0.5-0.1l1.4-0.8l0.2-1.2l0.3-0.1
		l1.8,0.4l-0.6-1.8l-1.1-0.6l-1.1-2.8l-1.4-1.6l0.7-5.3l-1-2l-1.4,0.1l-0.2-0.2l0.5-1.6l1.5-1.1l2.2-1l1-1.6l1.4,0.1l0.8-1.2
		l0.8-0.4l0.3-0.8l0.3-0.1l0.3,1.2l0.8-0.4l0.4-1.2l0.7-0.5l0.7-0.1l0.3-1.3l-0.5-0.3l-0.5-1.7l0.2-0.3l1-0.3l1.2-1.5h0.4l0.5,0.9
		l2.2,0.2l0.6-1.5l0.8-0.8l3.4-0.7l0.8-0.8l0.6-0.1l1.1-1.1l1-0.5l0.5-1.1l1.2-1.2V984l-0.3-0.2l-1.5-0.5l-0.8-0.6l0.3-0.6l-0.5-1.2
		l0.2-1.6l0.4-0.6l-0.5-1.2l0.2-2.5l-0.6-0.8l-0.1-1.2l-0.5-0.3l-2.6,0.5h-1.2l-2.1,1.2l-0.8-0.4l-0.8-1.9l-0.5-0.5l-2.5-0.4
		l-0.3-0.5l-0.6-0.4l0.7-0.2l-0.6-1l0.3-0.5l-0.2-0.5l-0.5-0.1l-0.6,0.5l-0.5-0.1l-0.9-1.2l0.1-0.8l-1.1,0.1l-1.4-1.9l-1-3.2
		l-1.5-0.2l-0.7-1.5l-0.5-0.3l-0.7,0.3l-0.6-0.6l0.2-2.5l0.4-1l-0.4-0.6l-1-0.5l-1.2,0.1l-0.1-0.8l0.6-1.9l1.2-1.1l-0.3-2.5
		l-0.8-0.8l-0.2-1.1l0.2-1.9l-1-0.7l0.9-1.1V942l-3.1-0.2l-0.7-0.7l0.3-0.8l-0.2-0.6l0.5-0.5l2.2-0.6l1-1.3l0.5-0.2l0,0l0.2,0.2h1
		l0.1,0.5l0.5,0.2l0.2-0.3h0.6l0.5,0.8l0.2-0.2l0.3,0.2l0.5,0.9l-0.3,1.3h0.6l0.3,0.4l-0.2,2.2l-0.8,1.5l0.8,0.1l-0.1,0.7l0.2,0.2
		l0.5-0.2l0.3,0.5l0.3,1.5l-0.3,1.5l0.2,0.4l-0.4,0.5l0.2,0.9l0.6,0.2l0.6,0.9l-0.2,0.3l0.4,0.5l0.8,0.2l0.3,1.2l0.6,0.2l0.8,1.6
		l-0.1,0.6l0.7,0.8l0.4,1.9l0.3,0.2l0.1,1.9l0.9,0.5l0.5,0.9l-0.4,1l0.8,0.8l0.6-0.3l0.6,0.5l0.7-0.2l0.4,0.1v0.5l0.6-0.1l0.5,0.5
		l0.3-0.2h1.5l0.2,0.7l1,0.2l1.2,1.5l1.9-0.1v0.5l0.2-0.1l0.2,0.3l0.4-0.4l0.7,0.4v0.3l1.2-0.3v0.5l1.1,0.9l1-0.1v0.6l0.6,0.6
		l1.2,0.7l0.6,0.1l0.3,0.3l0.4-0.4l0.5,0.5l1.3-0.4l0.3,0.5h0.5l0.1-0.4l1-0.2l0.3,0.3l2-0.2l0.5,0.3l0.5-0.3l0.3,0.2l-0.2,0.4
		l0.6,0.2h2.2l0.8,1.5l0.4-0.1l0.4,0.8l0.3-0.2l0.5,1.1l1.5,0.5l-0.2,0.2l0.5,0.3l1.2-0.2l-0.1-1.3l0.5-0.5l0.4,0.2l0.2-0.3h0.7
		l0.1-0.4l1.2-0.2l1.1-0.1l0.2,0.2l-0.4,3.7l-0.8,2.9l-4.4,8.6l-0.6-0.2l1.4-2.4l-0.5-0.5l0.4-0.5l-0.3-0.5h-0.8l0.2-0.4l-1.2-0.2
		l-0.5-0.6l-0.8,0.8l0.5-0.1l0.5,0.8l0.2-0.2l0.2,0.8l-0.2,0.2l-0.2-0.4l-0.5,0.2l-0.3,0.6l0.2,0.2l0.2,0.9l-0.6,0.2l-0.2-1.1
		l-0.6,0.5l-0.3-0.5V986l-1.4-0.2l0.1,0.3l-0.7,0.6l0.4,0.6l-0.2,0.7l-0.4,0.1l-0.7-0.5l-0.2,0.5l0.5,0.1l0.5,0.7l0.2-0.2l0.5,0.2
		l-0.2,0.6l0.7,0.5l-0.6,0.8l0.1,1l-1,2.2l0.3,0.4h0.5l0.3,0.5l0.7,0.2l-1.2,0.8l-0.2,0.8l-0.3,0.1v0.5l0.5,0.3l0.1,0.6l-0.4,2.3
		l0.3,0.1l0.2,0.6l-0.7,3.2h-0.4l-0.2-0.4l0.1-1.1l-0.8,0.2l-0.7-0.5l0.2,0.7l-0.5,0.3l0.3,0.5l-0.2,0.8l0.7,1.7l0.3,0.2l-0.2,0.5
		l0.5-0.1l0.1-1.2l0.6-0.5l0.2,2.5l-0.5,4.9l-0.2,0.4l-0.2-0.1l0.2-0.5l-0.5-0.1v0.4l0.7,0.3v5.5l0.7,0.4v0.3l-0.3,0.2l-0.2,1.6
		l0.2,0.5l0.2,0.1l0.1-1.5H254l-0.1-0.5l0.4-0.2l-0.7,7.4l0.2,8.5l-0.2,2.8l-0.4,0.5l-0.3,1.5l-1,1.2l-0.8,1.6l-0.2,0.9l0.8,0.5v2.2
		h0.2v0.8l0.5,1.5l0.4-0.1l0.9,2.1L253.5,1052.1z"/>
	<text transform="matrix(1 0 0 1 214.0244 1032.9064)" font-family="'ArialMT'" font-size="7.7209">Tamaulipas</text>
	<path class="mx-state-disabled" id="MX-TLA" fill="#CCCCCC" stroke="#262A27" stroke-width="0.5" d="M246.3,1104.6l1.6,0.3l0.5-0.2l1.2-1.4l0.4,0.1l0.5,0.8
		l3.2,2.6l-0.1,1.3l0.6,0.2l1.2-0.4l0.5,0.3l0.9,0.9l0.2,0.9l0.5,0.5l0.7,0.2l-0.2,0.9l-0.6,0.4l-2.1,0.4l-0.6-0.2l-1.1,1.8
		l-0.9,0.6l-0.6,0.1l-1.2-0.8h-0.5l-2.4,2.1l-0.7,0.1l-3.2-1.7l-0.9-1l-0.4-1.1l-1-1.1l-2.3-1.8l-0.9-0.3l-0.5,0.2l0,0l-0.4-0.5
		l-0.6,0.2l-0.8-1.4l0,0l3.9-1.3l0.8,0.2l1.6-0.2l1.2-0.9l0.6-1.2L246.3,1104.6z"/>
	<text transform="matrix(1 0 0 1 311.209 1104.7217)" font-family="'ArialMT'" font-size="7.7209">Tlaxcala</text>
	<path class="mx-state-disabled" id="MX-VER" fill="#CCCCCC" stroke="#262A27" stroke-width="0.5" d="M261.1,1068l-0.5,1.5l-0.7,0.8l-0.1-1.2L261.1,1068z
		 M255.4,1059.8l1.3,2.8l-0.4-0.1l-0.8-1.2L255.4,1059.8z M257,1060.6l1.5,1.9l4.1,3.8l-0.5,2.4l-1.3,3.2l-0.4,0.4l-0.2-1.6l1.4-2.6
		l-0.1-1l-1.4-1.2l-1-1.5l-2.2-2.4l-1.2-2.9l-0.4,0.1l0.1-0.6L257,1060.6z M235.8,1049.5l1.4-0.8l3.2-0.2l0.8,0.2l0.5,0.5l0.3-0.2
		l0.1,0.5l1.5-0.3l-0.2-0.5l0.3-0.5l1.9-0.2l0.5,1l0.8,0.3l1.2,0.9l1.1,0.2l0.9,0.8l0.3,0.8l1.2,1.2l1.5-1.1l0,0l0.5,4.2l1.3,3.5
		l-0.1,0.8l-0.3,0.2l0.5,1.1l0.3,2.5l0.6,0.7l0.1,0.8l1.4,2.5l1.2-0.2l0.4,0.6l-0.3,1l0.4,1.3l0.8,0.6l0.1,0.8l0.4,0.2l0.5,2.2
		l3.6,7.6l0.5,2.2l0.6,1.1l3.2,3.2l0.5,0.9l4.6,4.9l2.7,3.4l0.5,1.1l2,2.2l0.9,2.5l0.1,1.5l0.5,0.8l-0.1,0.8l1.2,1.6l-0.2,1.4l0.5,2
		l1.3,1l0.9,0.4l0.2,0.5l0.8,0.4l0.8,1.1l-0.2,0.5l0.2,0.7l0.6,0.5l1.9,0.2l0.2,1.9l0.5,1.4l0.7,0.7l2.7,1.3v0.5l-1.5-1.1l-0.8-0.1
		l-0.1,0.2l0.4,0.1v0.5l0.6,0.2l0.2,0.5l-0.1,0.2l-0.5-0.2l-0.2,0.2l0.2,0.4l0.9-0.1l-0.1-0.5l0.7-0.2l0.5,0.2l0.2-0.9l1.4,0.9
		l2.1,0.5l7.3,0.2l2.3,1.9l0.5,0.9l1.7,0.5l2.5,0.2l0.4,0.3l0.5,1.4l0.6,0.6l0.1,0.5l2.2,2.2l0.5,1.9l2.1,1l2.9-0.3l5.6-1.4l0,0
		l-1.5,0.7l1.8,0.3l-0.2,0.2l-0.7-0.4l-0.7,0.7l0.4,0.3l0.1,2.2l0.5,1.2v2.3l0.8,0.8l1.1,0.3l1.1,1.5h0.9l0.3,0.5l1.9,0.8l0.3,0.4
		l0.8,2.4l0.2,1l-0.3,0.8l0.3,1.7l1.5,0.6l0,0l-2.9,2.2l-1.5,0.7l-0.7,0.8l0,0l-22.1-1.4l0.2-1.1l-0.5-0.5v-0.8l-2.7-2.2l-2.6-3.4
		l0.2-0.8l1.2-0.5l0.2-0.5l-1.1-0.6l-0.3-0.1l-0.9,0.8l-2.9,0.7l-2.3,1.6l-2.2,0.2l-1,0.5l-1.5-0.5l-1.7-3.4l0.2-0.9l-0.2-0.5
		l0.5-0.5l0.8-2l0.6-0.8l0.2-1l-0.8-2.9l-0.4-0.3l-1.5-0.4l-0.9,0.2l-1.1-0.4l-1.9,0.6l-0.5-0.3l0.4-0.7l-1.1-0.1l-0.8-1.5l-1.1-0.6
		l-0.8,0.4l-1.5-1.2l-0.5-0.7l-0.5-2.1l0.5-1l-0.8-0.3l-0.9-0.8l-0.5,0.5v0.7l0.4,0.5l-0.2,0.8l-0.9,1.7l0,0l-1.4-1.7l-2-0.6
		l-1.1,0.6l-0.8,0.8l-1.1-0.1l-1.5-2.4l0.2-0.6l-2.9-0.8l-0.6-0.5l-0.3-0.8v-2.3l1.5-1.9l0.1-0.4l-0.4-4.7l0.2-0.7l3.7,0.2l0.4-0.1
		l0.2-0.5l-0.1-1l-0.4-0.5l-2.2-1l-2.8-0.6l-1.1-0.8l-0.2-0.3l0.5-1.1l-1.1-2.3l0.2-0.5l0.5-0.2l0.8-2l0.5-0.7l0.2-0.8l-0.2-0.8
		l0.2-0.6l1.3-3.3l1.7-2.3l-0.1-0.4l-5.5-1.9l-0.6,0.5l-0.9,1.5l-1.2,1.1l-0.5-0.2l-0.7-1.4l-1.5,0.2l-0.5-0.4l-0.4-1.9l-0.1-3.1
		l0.9-0.6l1.2,0.7l1.2-1.9l-0.4-0.8l-1.7-0.9l-0.6-0.6l-0.2-0.7l0.3-0.6l-0.6-0.5l-0.7,0.2l-0.2-0.2l0.9-0.6v-1.4l-1.5,0.2l-0.9-0.3
		l-0.2,0.8l-0.7,0.7l-0.1,0.6l-0.8,0.6l-0.5,2l0,0l-1.2-0.8l-0.6,0.3l-1.6,1.8l-1.2,0.5l-1.5,1.7l-1.9,0.8l-1,1.2l-0.4,0.2l-0.7-0.8
		l-0.9-2l0.2-1.6l0.5-1l0.2-2.9l0.5-0.4l0.2-0.7l1.9-1.7h0.4l1,1.1l1.2-0.2l0.2-0.5l-0.5-0.8l0.5-1.7l1.5-1.9l-1.9-2.6l-1.5-0.5
		l-0.7,0.7l-1-0.1l-1-0.5l-1.4-1.3l0.2-2.1l-0.2-0.6l-0.7-0.2l0,0l-0.1-2.6l-1-0.2l-0.7-2.5l0.2-0.7h1v-0.5h0.8l0.2-0.6l1.3-0.6
		l-0.9-0.8v-0.4l-0.4,0.1l-0.5-0.5l0.1-0.9l-0.3-0.2l0.5-0.4h-0.8l-0.3-0.3l0.2-0.3l1.7,0.2l0.3-0.2l0.2-0.5l-0.2-1.9l0.8-0.5h1.9
		l-0.9-2.8l-0.5-0.5l-3.4-1.1h-1.9l-0.4-0.2L235.8,1049.5z"/>
	<text transform="matrix(1 0 0 1 281.5576 1133.5049)" font-family="'ArialMT'" font-size="7.7209">Veracruz</text>
	<path class="mx-state-disabled" id="MX-YUC" fill="#CCCCCC" stroke="#262A27" stroke-width="0.5" d="M451.7,1067.8l0.2,4.1l-0.1,0.6l-0.7,0.7l-0.4,2.5l1,2.5
		l-0.1,0.8l-0.8,1.5l-0.4,1.9l-0.7,0.8l-0.2,1.2l-0.7,0.9l-1.3,0.6l-2.4,2.1l-2.4,1.4l-1.2-0.1l-1.2,0.3l-0.8-0.8l-0.9,0.5l-1.2,2.2
		l0.2,1.7h-0.3l-0.7-1.3h-0.8l-0.4,0.3l-0.6,1.9l-0.4,0.4l-4.2,1.5l-1.4,0.8l-1.5,1.2l0.2,0.5l-0.2,0.2l-0.8-0.7l-1.5,1.4l-0.9,0.3
		h-1.9l-1.9,0.8l-1.1,1.1l-2.7,0.2l-0.5,0.5l0.2,0.7l-0.2,1.2l-0.7,1.5l0,0l-0.3-0.4l-0.6-2.6l-2.5-2.8l-0.9-1.9l-2.9-1.6l-1.5-3.5
		l-1.4-0.9l-0.5-0.8l0.1-0.7l-0.8-1.4l-0.3-0.2l-0.6,0.5l-0.3,0.8l-0.4,0.1l-0.7-0.8l-0.8,0.2l-0.3-0.2l-0.8-1.5l-3.2-0.4l0.2-5.6
		l0,0l0.1-1.1l0.5-0.5l0.5-1.3l-0.2-0.4l-0.2,0.2l-0.8,2.6l-0.5,0.4l0.2-1.2l0.8-2.3l0.8-1.1l4.3-2.7l1.9-0.5l1.6-1h0.7l0.2-0.4
		l0.8-0.2l2.2-0.5l0.1,0.3h0.5l-0.1-0.2l0.5-0.3l3.1-0.5l12.8-1.7l3.9-1.5l0.5-1.1l4.2-0.9l2.5,0.2l1-0.3l1.8-1.2l1.6,0.4l-0.2,0.3
		l1.3,0.5l2.8,0.2l0.4,0.6l0.8,0.5l1.7,0.1l1.5,0.4l0.3-0.3l-2.9-0.7L451.7,1067.8z"/>
	<text transform="matrix(1 0 0 1 409.1807 1086.5664)" font-family="'ArialMT'" font-size="7.7209">Yucatán</text>
	<path class="mx-state-disabled" id="MX-ZAC" fill="#CCCCCC" stroke="#262A27" stroke-width="0.5" d="M157.7,993.8v-1.2l0.5-0.4l4.2-0.8l7.3,0.5l1.9,1.3
		l1.9,0.8l1.5,1.3l1.7,2.4l1.2-0.3l0.9,0.2l0.5,2.8h2.2l0.7-0.7l1.8-0.4l2.3,0.3l1,0.6l1.5,2.9l1.1,1l1.6,0.6l1.1-0.3l0.2-0.6
		l0.6-0.2l1.6,0.4l0,0l-0.4,0.3l0,0l-0.6,0.3l-0.3,1.4l-0.9,0.8l-0.5,1.3l-0.8,0.4l-1.2-0.1l-0.5,0.4l-0.2,1.2l-0.7,1.4l-1.1,0.7
		l-1.5,0.4l-0.5,0.4l-0.6,2.7l0.8,0.9l-0.9,2.3l-0.8,1.2l-3.6,1.2l-2.7,3.9l-2.8,1.6l-1.8,0.6l-0.7,0.8l-0.4,1.1l-2.2,0.5l-1.8-0.7
		l-0.5,0.2l-0.7,1.3l0.5,0.6l-0.4,1.3l0.8,2.3l-1,3.1l-0.2,1l0.2,1.2l0.7,0.8l3.2,1.9l0.8,1l1.8,0.2l0.8,0.5l0.7,1.5l1.2,1.5h1.6
		l1.9-0.5l3.4-3.6l1.2-0.5h0.5l1.5,2l-0.3,1.1l-2.5,5.6l1.1,3l-0.3,1.2H184l-0.1,0.4l0.2,0.2l-0.3,0.8l-1.5,3.1l0,0l-0.6,0.7
		l-0.8-0.5l0,0l-0.2-0.3l-1.6-0.6l-2.1-1.9l-1.6-0.8l-2.7-0.7l0,0l-0.8-1.5l-0.5-1.9l-3.4-2l-1-1l-0.6-1.1l-0.5,0.2l-0.3,1l-0.9,0.7
		l-2.7,1.5l-1.4,0.3l-0.8,0.5l-0.7,2.5l-2.5,3.6l-0.9,2.2l0.1,0.9l1.8,1.8l0,0l-0.1,1.7l0.5,1.5l2.2,1.4l-0.4,2.1l-0.8,1l-1.8,1.1
		l-2.8,2.2l-1.2-0.4l-1.1,0.4l-0.5,0.4l-0.2,1.5l-1.2,0.4l-0.1,0.3l-1.3-0.3l-1,0.2l-0.2,0.5l-0.7-0.1l-0.8,0.4l-2.1-1.2l-1.8,0.2
		l-0.7-0.4l-0.6-1.3l-0.6-0.6l-1.9-0.5l-0.2-0.4l3.1-1.4l0.9-0.8l0.1-0.8l-0.2-0.5l-0.5-0.1l-0.8,0.4l-0.7-0.4l-0.7-1.9l1.4-0.4
		l1.2-1.5l0.2-1.9l-0.2-1.4l2.2-1.6l1.4-1.3l2.5-1.3l1-0.2l0.5-0.5l0.9-2.2l0.5-2.7l-0.4-0.3l-1.6-0.1l-0.4-0.3l0.6-1.2l-0.3-0.7
		l-1.7-0.2l-1.5,0.5l-0.2,1.5l0.9,0.8l-1.9,1.5l-0.7,1.3l-0.7,0.3l-0.5-0.4l-1-0.2l-0.5,0.6h-1.5l-0.3-0.6l0.1-0.3l2.9-4.8v-0.9
		l-0.5-1.5l-1.1-1l-1.1-0.4l-2.6,0.6l-0.5,0.5v5.4l-0.3,0.9l-0.9-0.2l-0.9-1.4v-2.5l1.3-3.2l1.2-1.5l0.8-0.6l0.2-0.7l-1.4-0.8
		l-2.1,0.3l-1.7,1.2l-0.1,0.6l1.3,2.9l0.2,1.1l-0.8,0.9l-1.4,0.8l-0.2-0.4l0.8-2.5l-0.4-0.3l-2.4,0.9l-0.3,2.3l-1-0.2l-0.8,0.9l0,0
		l-0.5-0.3l-0.3-0.8l-0.2-2.2l0,0l0.9-2.3l0.8-1.2l2.5-1.1l0.2-0.5l0.2-4.2l-0.7-2.4l0.1-1l1.1-2.1l0.5-0.3l1-4.5l0.1-1.5l1.8-2.2
		l2.2-1.9l-0.7-3.3l0.3-0.9l-0.3-1.5l0.2-1.3l-0.3-1.3l-0.6-0.4l0.2-1l1.9-0.6l1.8-1.6l1.6-2.2l1.9-1.4l0.4-1l1.3-1.1l3,0.2l1.7,0.5
		l1.8-0.6l0.8,0.1l0.8,0.5l2.1,0.7l0.6-0.7l1.3,0.2l4.7-0.5l0.1-0.5l-0.4-0.3v-0.3l0.8-0.4l-0.8-3.1l-0.9-0.4l0.6-3.8l-0.6-0.7
		l-1.2-0.5l-0.5-0.9l-0.6-0.2V994L157.7,993.8z"/>
	<text transform="matrix(1 0 0 1 140.7539 1021.542)" font-family="'ArialMT'" font-size="7.7209">Zacatecas</text>
	<text transform="matrix(0.9754 -0.2205 0.2205 0.9754 175.7682 1083.6115)" font-family="'ArialMT'" font-size="6.9979">Guanajuato</text>
	<g>
		<rect x="103" y="1118.3" width="30" height="1.2"/>
		<g>
			<polyline fill="none" stroke="#000000" stroke-width="0.75" stroke-miterlimit="10" points="104,1119.5 103,1119.5 103,1118.3 
				104,1118.3 			"/>
			
				<line fill="none" stroke="#000000" stroke-width="0.75" stroke-miterlimit="10" stroke-dasharray="1.867,1.867" x1="105.9" y1="1118.3" x2="131.1" y2="1118.3"/>
			<polyline fill="none" stroke="#000000" stroke-width="0.75" stroke-miterlimit="10" points="132,1118.3 133,1118.3 133,1119.5 
				132,1119.5 			"/>
			
				<line fill="none" stroke="#000000" stroke-width="0.75" stroke-miterlimit="10" stroke-dasharray="1.867,1.867" x1="130.2" y1="1119.5" x2="105" y2="1119.5"/>
		</g>
	</g>
	<polygon points="222.6,1074.1 288.3,1074.1 288.3,1074.1 	"/>
	<g>
		<rect x="151" y="1142.3" transform="matrix(-0.7884 0.6152 -0.6152 -0.7884 1050.7852 1923.4558)" width="87.1" height="0.4"/>
		<g>
			<polyline fill="none" stroke="#000000" stroke-miterlimit="10" points="161.1,1168.8 160.3,1169.5 160,1169.1 160.8,1168.6 			
				"/>
			
				<line fill="none" stroke="#000000" stroke-miterlimit="10" stroke-dasharray="1.9794,1.9794" x1="162.4" y1="1167.3" x2="227.1" y2="1116.8"/>
			<polyline fill="none" stroke="#000000" stroke-miterlimit="10" points="227.9,1116.1 228.7,1115.6 229,1115.8 228.2,1116.5 			
				"/>
			
				<line fill="none" stroke="#000000" stroke-miterlimit="10" stroke-dasharray="1.9794,1.9794" x1="226.6" y1="1117.6" x2="161.8" y2="1168.3"/>
		</g>
	</g>
	<g>
		<rect x="48" y="1058.6" width="113.4" height="0.6"/>
		<g>
			<polyline fill="none" stroke="#000000" stroke-linecap="round" stroke-miterlimit="1" points="48.5,1059.1 48,1059.1 48,1058.6 
				48.5,1058.6 			"/>
			
				<line fill="none" stroke="#000000" stroke-linecap="round" stroke-miterlimit="1" stroke-dasharray="0.9949,1.9897,0,0,0,0" x1="50.5" y1="1058.6" x2="160.9" y2="1058.6"/>
			<polyline fill="none" stroke="#000000" stroke-linecap="round" stroke-miterlimit="1" points="160.9,1058.6 161.4,1058.6 
				161.4,1059.1 160.9,1059.1 			"/>
			
				<line fill="none" stroke="#000000" stroke-linecap="round" stroke-miterlimit="1" stroke-dasharray="0.9949,1.9897,0,0,0,0" x1="159" y1="1059.1" x2="48.5" y2="1059.1"/>
		</g>
	</g>
	<g>
		<rect x="229.4" y="1125.8" width="0.6" height="60.4"/>
		<g>
			<polyline fill="none" stroke="#000000" stroke-miterlimit="10" points="229.4,1126.8 229.4,1125.8 230,1125.8 230,1126.8 			"/>
			
				<line fill="none" stroke="#000000" stroke-miterlimit="10" stroke-dasharray="2.0141,2.0141" x1="230" y1="1128.8" x2="230" y2="1184.3"/>
			<polyline fill="none" stroke="#000000" stroke-miterlimit="10" points="230,1185.3 230,1186.3 229.4,1186.3 229.4,1185.3 			"/>
			
				<line fill="none" stroke="#000000" stroke-miterlimit="10" stroke-dasharray="2.0141,2.0141" x1="229.4" y1="1183.3" x2="229.4" y2="1127.8"/>
		</g>
	</g>
	<g>
		<rect x="217.9" y="1079.5" width="77.3" height="0.5"/>
		<g>
			<polyline fill="none" stroke="#000000" stroke-miterlimit="10" points="218.9,1080 217.9,1080 217.9,1079.5 218.9,1079.5 			"/>
			
				<line fill="none" stroke="#000000" stroke-miterlimit="10" stroke-dasharray="2.0355,2.0355" x1="220.9" y1="1079.5" x2="293.2" y2="1079.5"/>
			<polyline fill="none" stroke="#000000" stroke-miterlimit="10" points="294.2,1079.5 295.2,1079.5 295.2,1080 294.2,1080 			"/>
			
				<line fill="none" stroke="#000000" stroke-miterlimit="10" stroke-dasharray="2.0355,2.0355" x1="292.1" y1="1080" x2="219.9" y2="1080"/>
		</g>
	</g>
	<g>
		<rect x="250.7" y="1108.6" width="66.8" height="0.5"/>
		<g>
			<polyline fill="none" stroke="#000000" stroke-miterlimit="10" points="251.7,1109.1 250.7,1109.1 250.7,1108.6 251.7,1108.6 			
				"/>
			
				<line fill="none" stroke="#000000" stroke-miterlimit="10" stroke-dasharray="1.964,1.964" x1="253.6" y1="1108.6" x2="315.5" y2="1108.6"/>
			<polyline fill="none" stroke="#000000" stroke-miterlimit="10" points="316.5,1108.6 317.5,1108.6 317.5,1109.1 316.5,1109.1 			
				"/>
			
				<line fill="none" stroke="#000000" stroke-miterlimit="10" stroke-dasharray="1.964,1.964" x1="314.5" y1="1109.1" x2="252.6" y2="1109.1"/>
		</g>
	</g>
	<g>
		<rect x="433.1" y="1118.8" width="0.5" height="37.4"/>
		<g>
			<polyline fill="none" stroke="#000000" stroke-miterlimit="10" points="433.1,1119.8 433.1,1118.8 433.6,1118.8 433.6,1119.8 			
				"/>
			
				<line fill="none" stroke="#000000" stroke-miterlimit="10" stroke-dasharray="2.0827,2.0827" x1="433.6" y1="1121.8" x2="433.6" y2="1154.1"/>
			<polyline fill="none" stroke="#000000" stroke-miterlimit="10" points="433.6,1155.3 433.6,1156.3 433.1,1156.3 433.1,1155.3 			
				"/>
			
				<line fill="none" stroke="#000000" stroke-miterlimit="10" stroke-dasharray="2.0827,2.0827" x1="433.1" y1="1153.1" x2="433.1" y2="1120.8"/>
		</g>
	</g>
</g>
<rect id="legendConcluido" x="-107.9" y="1074.6" fill="#FFFFFF" stroke="#000000" stroke-miterlimit="10" width="15.9" height="13.6"/>
<rect id="legendPruebas" x="-107.9" y="1093" fill="#FFFFFF" stroke="#000000" stroke-miterlimit="10" width="15.9" height="13.6"/>
<rect id="legendSinEjecutar" x="-107.8" y="1111.3" fill="#FFFFFF" stroke="#000000" stroke-miterlimit="10" width="15.8" height="13.5"/>
<rect x="-87.8" y="1077.6" fill="none" width="67.9" height="9.3"/>
<text transform="matrix(1 0 0 1 -87.8237 1084.6279)" font-family="'ArialMT'" font-size="10.0016">IMPLEMENTADO</text>
<rect x="-87.8" y="1096.3" fill="none" width="53.5" height="9.3"/>
<text transform="matrix(1 0 0 1 -87.8237 1103.3312)" font-family="'ArialMT'" font-size="10.0016">PRUEBAS</text>
<rect x="-87.8" y="1114.5" fill="none" width="59.2" height="9.3"/>
<text transform="matrix(1 0 0 1 -87.8237 1121.5021)" font-family="'ArialMT'" font-size="10.0016">SIN IMPLEMENTAR</text>
</svg>
