<?xml version="1.0" encoding="utf-8"?>
<!-- Generator: Adobe Illustrator 18.1.1, SVG Export Plug-In . SVG Version: 6.00 Build 0)  -->
<svg version="1.1" id="Layer_1" xmlns:amcharts="http://amcharts.com/ammap"
	 xmlns="http://www.w3.org/2000/svg" xmlns:xlink="http://www.w3.org/1999/xlink" x="0px" y="0px"
	 viewBox="-144.3 -192.7 792.4 497.5" enable-background="new -144.3 -192.7 792.4 497.5" xml:space="preserve">
<defs>
	
	
		<amcharts:ammap  topLatitude="32.716750" bottomLatitude="14.531518" leftLongitude="-118.369112" rightLongitude="-86.725536" projection="mercator">
		</amcharts:ammap>
</defs>
<g>
	<path id="MX-AGU" fill="#CCCCCC" stroke="#262A27" stroke-width="0.5" d="M246.2,117.1l-2.3-2.3l-0.1-1.2l1.2-2.9l3.3-4.6l0.9-3.2
		l1.1-0.7l1.8-0.4l3.5-2l1.2-0.9l0.4-1.3l0.7-0.2l0.8,1.4l1.3,1.3l4.4,2.6l0.6,2.4l1.1,2l0,0l0.3,0.6l-0.2,1.6l2,2.1l-4.3,2
		l-2.5,3.6l-0.7,0.5l-3,1l-1.3,0.1l-2.2-1l-1.7-1.4l-4.2-0.4L246.2,117.1z"/><text x="100" y="50" style="font-size: 20px; fill: blue;">CDMX</text>
	<path id="MX-BCN" fill="#CCCCCC" stroke="#262A27" stroke-width="0.5" d="M-37.8-54.9h-0.7l0,0l-0.8,0.1l0.1,0.4l-0.8,0.4l-0.7,0
		l-0.8,0.9l-0.3-0.7l0.2-0.8l3.1-3.8l0.6-0.1l0.1,1l-0.8,0.8l0,0.5L-37.8-54.9z M-65.1-66.9l0.6,0.4l0.7,2.9l-0.2,1l0.4,2.4
		l-0.7,0.9l0,2.1l-0.6-0.2l-0.5,0.3l-0.7-0.3l-0.6-1.4l-0.6-0.2l-1,0.6l-0.4-0.1l0.1-0.8l2.7-3l0.2-0.7l-0.6-1.6l0.5-1.9L-65.1-66.9
		z M-7-75.4l0.8,0.2l2.7,2.3L-4-72.5l-0.6-1l-1.7-0.9L-7-75.4z M1.5-76.9l0.3,0.6l-0.3,1l-1.2,0L0-76.8L1.5-76.9z M-141.4-90
		l-0.6,1.3l0.1,1l1.3,1.2l0.2,2.9l-0.7,2.1l-0.8,0.2l-0.6-1.5l0.2-0.9l-0.6-0.4l-0.1-1.6l-1.2-1.2l0.4-1l-0.3-1l0.7-0.6l0.8,0
		L-141.4-90z M-23.6-100.3l0,0.5l1.1-0.5l0,0.3l0.9,0.3l1.3,1.6l0.8,0.4l1.1,2.2l-0.6,0.9l0.1,1.2l1.8,0.8l2.9-0.2l0.3,0.3l-0.2,4.3
		l0.6,1.7l1.2,0.4l-0.3,1.9l-3-2.1l-1.7-2.4l-2.6-1.8l-1-1.9l-1.4-0.3l-0.2-1.1l-2-2.5l-0.2-0.9l0.8-1.9l-0.2-1L-23.6-100.3z
		 M-45.2-112.8l0.6,0.8l-0.4,0.1l-0.3-0.4L-45.2-112.8z M-55.1-185.9l-0.8,0.5l-0.5-0.4l-1.3,0l-0.6,2.1l-0.5,0.5l-0.1,1.3l-1.8,2.4
		l1.4,2l-0.6,1.8l0.3,1.1l-0.4,2.7l0.2,1l-0.6,1l1,0.9l0.9,0.1l3.8,2.8l0,0l-0.5,1.7l0.9,4l-1.1,1.5l-0.7,2.4l-0.1,3.5l-0.8,3.2
		l0.3,0.7l-0.3,2.2l0.6,2.2l1.4,1.3l-0.5,0.7l0,0.6l2.8,1.8l0.6,3.5l-0.1,5.2l1.7,4l0,2.2l-0.3,1.3l0.2,0.8l-0.5,1.9l0.4,0.3
		l-0.7,2.2l1,2.1l0.6,0.4l1.7,4l1.2,0.6l0.3,0.9l1,0.1l0.6,0.9l0,1.8l0.4,0.9l0.8,0.3l0.4,0.7l1.2,0.1l0.3-0.9l1.8,0.8l1.2,1.5
		l0.3-0.1l1,1.2l0.9,0.5l0.7,1.1l1.6,0.8l2.1,2.3l1.5,0.8l0.1,0.6l1.4,0.7l2,2.5l1.4,1.2l0.3,0.9l-0.7,0.9l0,0.5l2.1,2.6l0.8,1.6
		l-0.6,1.2l0.4,1.6l-0.3,0.3l0.8,1.7l0.8,0.1l0.5-0.7l-0.4-0.4l0.4-0.6l0.5,0.3l0.5-0.4l0.4,0.8l0.6-0.1l0,0.4l0.4,0.1l0.1,2.1
		l0.4,0.9l1.1,0l1.3-1l1.1,0.6l1.4,4.5l0.8,0.8l0.6,3.5l2.6,1.5l2.4-0.6l0.5,0.4l0.1,0.7l0.8-0.1l0.1,0.6l-0.4,0.5l0.3,0.7l-0.6,2.6
		l2,2.8l-0.5,2l0.6,1.4l-0.4,1.2l0.9,0.6l0.3,1l-0.3,2.5l0,0l-0.6-1.7l-0.9-0.3l0,0l-31.7-0.1l0.2-0.5l-0.3-0.5l-0.1-1.3l0.9,1.2
		l0.8-1.4l-1.6-0.4l-0.3-1.7l1.5-3l-0.4-1l-0.9,0.5l-0.5-0.5l1.3-2.9l0.7-3.2l-1.3-2.2l-1.6-0.6l-0.1-2l-0.4-0.4l-2.2-0.1l0-0.8
		l-0.4-0.5l-1.5-0.9l0.1-0.6l-0.5-1.2l-0.9-0.5l-0.6-1.9l-0.5-0.1l-0.2-0.6l-1-0.7l-1-0.1l-0.2,0.3l-0.5-1.1l-0.7-0.4l-0.2,0.3
		l-0.5-2.7l-0.6-1.1l-1.1-0.5l-0.6,0.3l-0.8-1l-0.3-1.4l-1.2-0.6l-0.1-0.4l-0.4,0l-3.4-4.2l-2.9-1.5l-3.1-0.4l-1.6-2.5l-2.4-1.2
		l-0.8,0l-2-1.9l-1.2,0.3l-2-2.2l-0.9-0.1l-1.9-1.6l0.3-2.5l-0.3-1.5l-1.1-1.6l-1.6-0.6l0.6-3.6l-0.5-1.2l0-4.2l-1.5-2.6l-2.1-1.2
		l0.2-1.4l-0.8-0.8l-0.2,0.4l0.5,0.9l-0.5,0.3l-0.5-0.7h-0.5l0.6,1.3l-0.3,0.1l-1.1-2.1l0.6-5.3l-0.6-3.6l-0.5-1.1l-0.6-0.1
		l-1.4-1.3l-0.5,0l-2.3-3l-1.6,0.2l-0.3-0.5l0.7-5.3l-1.4-2.7l-2.1-2.2l-1.8-3.1l-1.3-1l-0.7,0.1l-0.2-1l-1.3-0.9l-0.3-0.7l-0.4,0.1
		l-0.1-0.6l1-0.5l-0.4-0.9l0.5-1.2l-1.2-1.6l-0.3,0.1l-0.8-1l0.4-0.1l1.6,0.9l1.1-1l0.2-2.6l-0.4-0.6l-1.3-0.3l-0.6-0.8l-1.2-0.2
		l-0.4-1.8l-0.5-0.4h-1.2l-1.2-1.2l-0.1-3l-0.8-2.8l-0.5-0.8l-2.1-0.7l-0.5-0.6l-2.1-5.9l0-1.3l60.2-5.5l-1.6,2.8l-0.7,0.2l0.5,1.8
		l-0.3,0.2L-55.1-185.9z"/>
	<path id="MX-BCS" fill="#CCCCCC" stroke="#262A27" stroke-width="0.5" d="M-53.2,204.8l1.5,0.4l-0.5,0.4l-1.3,0.2l-0.1-0.7
		L-53.2,204.8z M40.7,191.9l1,0.7l0.7,1.1l0,1.8l-0.8,0.4l-0.4-0.7l-1.1-0.2l-0.8-1.3L40.7,191.9z M45.4,179.6l0.2,0.6l-0.5,0.7
		l-0.3-0.6L45.4,179.6z M67.1,44.4l2.8,4.6l0.4,1.9l-1.6-0.3l-0.7-1L67,45.8L67.1,44.4z M15.6,40.3l3.1,0.2l1.1,1.4l0.9,0.1l0.8,0.6
		L23,45l-0.4,0.8l-6.9-5l-0.3-0.3L15.6,40.3z M56.4,40l1.8,1.6l-0.9,2l-0.5,0l0-0.8L56,42.6l0.1-0.5l-0.5-0.6l0.2-0.7l-0.3-0.5
		L56.4,40z M55.5,38.5l0.9,1.3l-0.6,0.3l-0.6-0.4L55.1,39L55.5,38.5z M47.7,24.4l0.9,1.5l2,0.5l0.4,0.6l0.1,1.5l1,2.2l-0.5,0.1
		l-2.6-2l-0.7-2l-0.9-0.9L47.7,24.4z M12.1,19.8l0.2,1.4l-1.1,3.4l0.1,3.1l-0.8,0.7l0.7,1.3l-0.3,1.1l-0.6,0.1l-0.3,0.5l0.2,0.7
		l1.1,1.3l-0.2,0.3l0.9,0.8l0.4,1.3l-0.7,1.1l0.9,0.8l1.3,1.8l-0.1,0.4l-1.1-0.5l-0.1-0.7L11,36.8l0.2-0.5l0.6,0.1l0.2-0.5l-0.1-1.1
		l-0.8-1l-1.3-0.7l-1.2,0.4L7.8,33l0-0.6l0.4-0.1l1.9-5.2L12.1,19.8z M48.1,18.7l-0.4,1.2l-0.5,0.2L47,19.4L48.1,18.7z M12.9,13.7
		l-0.2,4.4l-0.4,1.4l-0.5-0.4L12.9,13.7z M13,8.5l0.2,2.1L13,13.1l-0.3,0L13,8.5z M46,7.6l0.3,3.3l-0.7-0.4l-0.4-1.4L46,7.6z
		 M39.5,7.6L40,8.8l-0.3,0.5l-0.4-0.2l-0.4-1.4L39.5,7.6z M38.8-2.2l-0.5,1l0.4,1.7l-1.2-0.7l-1.7,2.7v0.9l-0.6,0.6v0.7l-0.6,0.1
		l-0.1-0.8l0.4-0.4l0.2-1.7L36.2,0L36-1.5l1-0.3l0.2-0.4l0.6,0.4L38.8-2.2z M33.6-4.1l0.2,0.8l-0.4,0.1l-0.2-0.5L33.6-4.1z
		 M-15.4-20.6l1.3,0.3l0.8,1.6l-1-0.6l-2-0.5l-0.1-0.3L-15.4-20.6z M13.1-35.4l1.1,1l-0.3,1.2l-0.6-0.2l-0.5-1.4L13.1-35.4z
		 M18.2-40.9l0.4,0.1l0.3,0.6l-0.9,0l-0.2-0.5L18.2-40.9z M-65.2-53.3l1.4,0.8l-0.1,0.5l-1.4-1L-65.2-53.3z M-38.4-54.9h0.7l0,0
		l0.4,0.4l0.3-0.4l31.7,0.1l0,0l0.9,0.3l0.6,1.7l0,0L-4-52.3l1.3,1l0.4,2l1.1,1.3l0.4,0l1.2,1.7l2.8,0.9l0.5,0.6l0.9,0.1l1.6,1.1
		l0.7,1l0.7,3.7l1.6,1.8l1,2.2l-0.4,0.8l2.6,2.1l2.5,0.6l0.5,0.6l0.9,0l0.1,0.7l-0.6,0l-0.9,1l-0.2,1.6l1.7,2.4l0.9,0.5l0,0.5
		l0.9,0.7l0.3,1.4l-0.7,0.6l-0.5,1.3l1.2,0.7l0.3,1.2l1.1,0.7l0.7,1.7l1,0.8l1.6-1.4L20-20.2l-0.2-2.9l-0.7-1.6l0.7-0.5l1.9,1.4
		l0.7,1.1l1.4,0.9l0.5,0.8l2.2,1.4l-0.2,3.5l0.4,0.6l2.7,0.9l-0.6,1.6l0,1.2l1.1,1.9l0.7,0.3l0.2,0.5l0.1,1.1l-0.4,0.7l2,5.2
		l-0.6,0.9L31.9,0l-0.5,0.7l0.1,1L32,2.3L32,4.3l0.6,0.7l0,1.1l1.8,1.5l0.2-0.2l0.8,3.1l1.8,2.4l2.6,0.3l-0.2,1.6l1.2,3.1l0.9,0.9
		l0.3,1l-0.3,0.2l0.4,1.5l0.6,0.8l0,1l0.7,0.5l0.4,1.3l0.9,0.5l0.5,0.9l0.5-0.1l0.8,0.6l0.3,1.3l1.6,2.2l0.7,2.1l-0.2,1.2L48,35.5
		l-0.9,0.9l-0.2,3.1l0.2,1l1.1,1.4l0.1,2.9l1.1,1.2l0.7,1.6l1.5,1.4l4.3,1l1.2-0.1l0.1,0.3L56,50.6l-0.8-0.6l-0.4,0.3l0.2,1.5
		l1.7-0.1l0-0.8l1.2-1l0.1-1L57,46.5l0.3-1.1L58,45l1.6,0.2V46l1.1,0.6l0.4,1.1l2.1,1l2.1,1.6l0.7,3.2l1.2,0.3l2.6-0.9l0,0.6
		l0.5,0.5l-0.7,0.9l0.1,2l3.2,3.2l-0.3,2l0.3,1.7l0.4,0.5l5.4,2.6l-0.3,0.8l1.4,2.1l-0.2,0.7l0.4,0.4l-0.5,4.4l-0.6,1.3l-1.9,2.3
		l-1,0.7L73.8,80l-1.2,0.8l0,0.8l-2.1,1.1l-0.5,1l-0.9,0.7l-0.9,0l-0.6,0.7h-1.1l-2.4-2l-1.2-2.8l-1.5-7.1l-2.5-4.6L57,66.3
		l-6.2-3.3L39.1,51.5L28.3,45l0.1-0.3l-1.2-1.2l-1.6-0.2l0.1-0.5l-0.6-0.1l-1-3l0.3-0.1l-0.5-0.6l-1-0.3l-0.1,1.1l-2.4-0.2l-0.1,0.8
		l-0.6,0l0.1-1.5l-0.7-2L17,34.6l0.3-0.3l-0.6-0.5L16,34.1l0.1,0.4l-1.5-0.2l-2-1l-0.3-0.7l0.5,0l0.1-0.8l-0.6-0.4l-0.2-0.8l0.6-1
		l-0.3-0.2l0.4-0.7l-0.4-0.1l0.2-0.5l-0.4-0.5l-0.6,0.9l0.3,0.8l-0.4,0.5l0.1,2.5h-0.7l-0.5-1.1l0.8-1.5l-0.6-1.4l0.8-0.5l0.7-1.7
		l0-1l-0.9,0.1l0.2-1.9l0.9-2l0.3-1.8l0.7-0.1l0.1-2.5L13,17l0.1-1.2l0.6-0.4l-0.4-0.3L13,14l0.3-1l0.3,0l0.1-2.4l-0.1-1.3l-0.8-1.1
		l-0.3-2.9l-2-5.4L9.5-1.3L7.6-2.3L6.7-5.2L5.1-7.1L3.5-7.5L3.3-6.9L2.9-6.7l-3.2-2.3L-1-9.3L-1.7-9l-0.8-1.2l-2-1.4l0-0.4l-0.6,0
		l-3.6-3l1,0.1l1.3,0.9l0.1-0.2L-7.4-15l-1.1-0.3l-0.7,0.2l-2.3-2l0.2-0.2l-0.4-0.5l0.4-0.6l-1.7-2.1l-0.9-2l-0.4,1.1l-1.5-0.7
		l0.3-0.3l0.5,0.2l1.6-1.6l0.4-1.3l-0.8-2.8l-0.6,0.6l-0.4,3.2l-0.6,0.5l-0.7-0.2l-0.4,0.8l0.1,1.8l-0.4,0.1l-2.1-1.3l-1.5-0.3
		l0.2-0.5l0.5,0.4l0.1-0.4l-0.5-0.2l-1.4,0.2l-0.8,0.9l-0.4,1.2l-0.6,0.3l0,0.6l-0.7,0.4l-0.8-0.3l-0.8-0.5l-0.7-1.4l-1.6-0.4
		l-1.6-3.7l-1.8-1.3l-2.2-0.6l-0.4,0.2l-0.2,0.6l-0.4,0l-1.3-1.3l-1.1-2l-1.1-0.8l-1.2-0.6l-2-0.3l-0.8,0.7l-2.4-1.6l-0.5,0.4
		l-0.5-0.3l0.1-0.8l-0.6-0.4l-0.5,0.1l-0.2-0.4l0-3.5l-0.5-1.6l-2.3-1.9l-3.3-1.2l-1.2-2.3l-1.7-1.3l-0.1-1l-0.7-0.5l-0.6,0.9
		l-0.8-0.4l-0.3-0.9l-1-0.5l-0.6,0.3l-1.1-2.8l-0.8-0.8l0.8-0.4l1.1,0.9l2.3-0.2l1.5,0.2l0.4,0.5l1.4-0.2l1.6,0.3l0.5,0.5l1.6,0.3
		l2.8-0.2l0.6,0.4l2.4-1.3l0.6,0.4l0.8-0.1l0.2-0.6l-0.6,0l1.1-1.2l0.9,0.3l-0.5,2.5l0.8,1.3l1.5,1.2l1.3,0.4l1.3,1.2l-0.1,0.4
		l0.8,0.3l1-1.1l0.1-0.9l2.1,0.7l1.6,3l0.9,0.1l0.6-1.2l-1.6-1.6l0.1-1.1l0.7,0.6l0.2-0.4l-0.6-0.4l0.3-0.6l-0.5-1.7l0.2-0.9
		l-1.8-1.4l-1,1.9l0.2,1.1l-3.2,1.2l-1.6-1.2l0.2-0.5l0.6,0.5l-0.7-2l1.2-1.7l-0.5-0.5L-38.4-54.9z"/>
	<path id="MX-CAM" fill="#CCCCCC" stroke="#262A27" stroke-width="0.5" d="M527.7,194.2l0.5,0.8l-0.7,0.6l-0.5,0.2l-1.1-0.6
		l-0.4,0.3l0.4,0.3l-1.7,1.3l-0.5-0.7l-0.3,0.6l-2.1,0.9l-1.1,0.1l-0.5-0.6l0.3-0.3l2.4-0.4L527.7,194.2z M556.4,140.8l-0.2,7.3
		l4.1,0.5l1,2l0.5,0.2l1.1-0.4l0.9,1l0.5-0.1l0.4-1l0.8-0.7l0.4,0.3l1,1.8l-0.1,0.9l0.6,1l1.8,1.2l2,4.5l3.9,2.1l1.2,2.5l3.2,3.6
		l0.8,3.4l0.4,0.5l0,0l1.3,1.8l5.3,4.3l3.4,4.7l-0.2,5.9l-1.2,0.7l-0.4,0.7l0.2,2.5l-0.8,5.1l0.2,1.3l1,1.2l0.2,0.7l-0.5,1.4
		l0.8,0.5l-0.6,1.7l0.5,1.4l0.3,4.7l-0.6,1.3l-2.4,2.8l0.3,2.5l0,0l0,3.3l-45.9,0l0,0l0-1.6l-4-1.6l-0.7,0.4l-0.8-0.9l-1.6-0.7
		l-1.6-1.5l-3.7-0.8l-2.8,0.1l-0.3,1.3l0.3,1.8l-0.3,0.7l-1.7,0.1l-1.3,0.6l-2.2-1.1l-1.5,0.1l-1.3-0.7l-0.9-1.4l-3.5-2.3l-1.2-1.8
		l-1.1-2.6l-0.5-0.3l0.2-2l-1.1-1.4l-0.4-0.2l-0.1,0.4l-0.5,0.1l-0.7-1.1l-1,0l-1.4-1l-0.6-0.9l-1.1-3.7l0,0l3.1-0.6l9.8-0.6
		l0.9,1.4l1.5,0.8l-0.6,1.2l-0.3-0.4l-0.3,0.3l-1-1.3l-0.7,0.9l-0.7-0.4l-0.2,0.2l0.2,0.7l-0.5,0.6l0.6,0.7l1.2-0.3l-0.5-1.1l0.8,0
		l0.3,0.5l0.6-0.1l1.1,0.7l0.2,0.6l6.8,1.7l1.4-0.1l0.2-0.7l0.7-0.7l4.5-1.5l0.8-2.9l0.6-0.3l0.3-1.3l-0.2-0.7l-1.1-1l-0.9,0.7
		l-1.2-0.6l-0.3-1l0.6-0.5l-0.1-0.8l1-1l-0.8,0.2l-0.7,1.3l-0.8,0.7l-0.5,0l-0.8,0.8l-0.1,0.6l-0.6,0v-0.2l2.5-2.6l6.8-3.7l4.8-3.5
		l4.9-4.5l0.5-0.9l-0.1-1l0.5-2l-0.2-2.2l0.7-1.8l-0.5-0.6l0-0.6l0.9-1.1l0.2-1l3.8-2.9l1.4-2.5l-1-2.7l0.3-1.4l-0.4-1.3l0.4-0.3
		l-0.4-4.5l0.3-0.8l-0.5-3.4l1.3-3.6l0.4-3L556.4,140.8z"/>
	<path id="MX-CHP" fill="#CCCCCC" stroke="#262A27" stroke-width="0.5" d="M463.2,265.3l0.2-0.6l0,0l-0.1-0.4l0.4,0l0.8,1.2
		L463.2,265.3z M462.8,261.3l0-0.8l0,0l-0.1-2.1l0.5-1.5l-1.3-2.9l0.1-0.9l2.2-6.3l2.9-2.6l0.8-3.5l0.8-1l0-2l0.3-0.9l0,0l0.9-1.1
		l2-0.9l3.7-2.9l0,0l2.5-3.2l0.1-1.6l1.4-1.9l1.2-0.8l0.6-1.2l0.8-7.1l1.7-0.3l0.5-0.6l2.1,0.9l1.4,1.7l0.8,0.4l2.8-0.1l-0.3,1.7
		l-1.4,2.1l-0.1,0.6l0.4,0.9l2.1,2.2l-0.3,1.9l0.4,0.3l1.3-0.1l0.4-0.4l0.5,0.2l1.2,1.9l0,0.7l0.7,0.9l0.8,0.3l1.9-0.8l2.4-2.3
		l5.8-4.3l0.6-0.8l3.3-1.2l0.4-0.8l-0.4-1.8l0.1-0.4l0.4,0.1l0-0.4l1.8,0.5l2,0l0.7-1.8l1.5,0.4l-0.1,0.6l0.6,0.3l0.6-0.4l1.2,0.2
		l1.2-0.3l1.1,1.4l0,2l2.6,1.3l1.3,3.3l-0.8,2.7l4.3,1.2l0.2,0.8l1.3,0.4l1.1,1.8l-0.8,0.3l-0.5,1l0,0l-0.7,0.1l0.6,1l0.8,0l1,1.1
		l0.8-0.4l0.9,0.3l0,0.8l0.5,0.7l0.6,0.3l0.3,1l1.1,1.2l1,0.2l0.3,1l1.4,1.4l0.1,0.6l1.3,0.4l0.5,0.6l0.3-0.3l1.1,0.4l0.2,0.9h1
		l0.9,0.7l1.1-0.1l0,0.5l2.1,1.3l1.4,2.2l0.3,3.2l0.8-0.1l0.1,0.5l-0.7,0.2l0.2,0.4l0.8-0.3l0.4,0.5l0.9-0.3l0.6,0.6l0.6-0.3
		l0.5,0.7l-0.2,0.5h1.7l0.4,0.6l0.1,0.6l-0.4,0.4l0.3,0.5l-0.3,0.9l-0.5,0l-0.2,0.6l0.4,0.4l-0.8,1.6l0.8,1.1l-0.7,0.4l0.6,0.3
		l0,0.4l-0.6,0l0.3,1.4l-32.1-0.3l-12.3,21.1l3.9,5l-1,1.6l-0.8-0.1l-0.3,0.7l0.1,2.5l-1,1.4l0.9,4.3l-0.7,1.2l-0.4,1.5l-0.9,0.7
		l-4.5-4.1l-11-11.6l-0.1-0.8l-0.8-0.2l-11.2-10.5l-5.4-4.3l-6.1-4.2l-3.8-1.8l0.3-0.4l0.8-0.1l0.3,0.6l0.6-0.3l0.1-0.5l-1.1-1.8
		l-4.7-1l-0.7-0.9L462.8,261.3z"/>
	<path id="MX-CHH" fill="#CCCCCC" stroke="#262A27" stroke-width="0.5" d="M231-85.2l-2.3,4.2l0,0.4l1.7,0.6l0,1l-0.7,1l-0.8-0.3
		l-0.7,0.3l-1.7,4l-1.4,1.1l-1.6,0.6l-2.3,3.8l-0.6,1.1l0.9,1.4l-0.9,1.4l-2.7,6.8l-0.6,0.4l-1.8-0.7l0,1.6l1.1,0.2l0.5,1.5
		l-0.3,0.5l-1.9,0.4l0.8,1.4l-0.1,0.8L215-51l0.7,0.8l0.1,0.7l-1.1,1.2l0.8,4.5l1.1,0.5l0.2,0.8l0.1,1.1l-0.5,1.1l0.7,3.7l0.2,4.8
		l0.5,0.7l1.8,0.8l-0.4,1.5l-1.1,0l-1.1,1l-1.9,0.9l0.4,0.8l-0.1,1.3l2.1,1.9l1.1,1.8l0,0l-1.1,0.2l-1.1-0.9l-0.5,0.7l-0.3-0.2
		l0.4-0.7l-0.8-0.1l-3.2,1.1l-1.5-0.6l-0.9,0.8l-1.4-0.3l-0.7-1l-1.4-0.2l-1.4-0.9l-0.7,0.3l-0.3,0.7l0.5,0.7l1.5,0.1l-0.1,1
		l-2.5,0.4l-1.1,1.5l-1.5,0.5l-1.9,3.1l0.2,1.3l-0.3,0.8l-0.4,0.2l-1.7-0.2l-1.7,0.9l-1-0.2l-1.7-1.2l-2-1.9l-2.5,0.2l-1.2-0.3
		l-0.7-0.7l-0.5,0l0,1.1l-1.6,0.7l-0.5,0.6l-0.6,0.1l-0.4-0.5l-1.7,1l-0.2-0.6l-1.6-0.5l-1.3,0.3l-1.1-1.9l-1.6,0.3l-0.8-1.1h-1
		l-1.6-1.4l-1.9-0.2l-0.3-0.6l-1.3-0.7l-1-1.9l-1.1-0.2l-1.9-1.2l-1.3-0.1l-0.7-0.9l-0.8,0.5l-0.2,1.3l-1.8,0.6l0,1.8l-0.6,0.5
		l-0.9,3.4l0,1.6l-0.9,1.5L157-12l1.1,0.5l0,1.1l-0.3,0.6l-2,0.9L155-8.1v1.4l-1-0.2l-0.4,0.4l0.4,2.1L153-4.1l-1.7,4l1,1.6l0.6,1.9
		l-2.1,3.4l-3.5,2.7l-1.2,1.6l-0.6-0.3l-0.7-1.2l-2-0.3l-0.5-0.9l-1.6,0.2L139.4,8l-0.3-1.3l-2.3,0.8l-0.3,0.6l0,0l-2.1-2.8
		l-0.6-3.2l-2.9-4.9l-2.4-0.7l-3.2-0.3L121.5-5l-1.2-4.7l-3.1-5l-0.1-1.9l-1.4-0.9l-0.3-1.1l0.5-2l-0.5-0.8l0.4-2.3l-1.1-2.3
		l-1.2,0.3l-0.6-0.2l-0.1-2.9l-0.7-0.4l-4.9,0.2l0,0l-1.8-0.4l-2,0.6l-3.5-1.8l0-0.5l0.7-0.4l-0.5-3.4l1.3-3.1l0-1.7l-1.6-4.1
		l-1-1.4l-0.6-2.1l-2.8-1.7l-0.5-0.6l0.7-2.4l-0.4-1.7l-2.1-3l-1.8-0.7l-0.4-0.7l0.6-2.8l-1.6-1.1l-0.2-0.6l1-1.4l2.5-0.5l1.4-0.9
		l0.8,0.1l1.8,1.3l0.5,0l1.4-1.1l1.1-0.1l1-1.2l0.9-0.1l0.6-1.2l-2.3-0.9L99-70.4l0.4-2.9l-0.8-2l0.2-1l1.5-2.6l-0.8-2.7l0.8-1.3
		l-0.5-2.6l1.5-1.3l0.1-2.7l1.4-0.7l0.3-0.5l-0.3-5.7L103-97l0.8-0.9l0-2.6l-0.7-6.2l-0.8-1l-0.6,0l-0.3-1l0.6-4.9l1.3-2.6v-1.1
		l-1.5-1.3l-0.2-1l0.8-0.5l0.3-1.8l-1.9-6.2l0.1-1.2l-1.1-1.5l-0.1-0.8l0.7-1.6l-1-0.9l-0.1-2.4l-2.7-2.6l0-0.6l1.6-0.1l0-1.8
		l0.5-1.3l-0.2-1.6l-1.6-2.8l-0.5-1.9l0.9-1.3l-1-1l0,0l14.1,0v-13.2h42l1,1.1l1.6-0.1l1,0.6l0.9,1l1.8,4l0.8,0.4l1.1,2.4l3.2,2
		l1.8,0.2l1.3,0.8l0.6,1.5l0.6,0l0.4,0.7h0.5l2.2,2.7l0.3,0.8l1.3,0.4l0.4,0.6l1.5,0.6l1.2,1l1.2,2.7l1.2,0.6l0.4,0.8l1.9,1.2
		l0.6,0.9l-0.2,0.5l1,0.2l1.5,1l0.3-0.4l0.9,0.9l0.9-0.3l0.2,0.6l0.4-0.2l0.6,0.7l0.4,0l-0.1,0.4l1.2,0.2l0.8,1.3l0.9,0.5l0.9-0.1
		l0.6,0.7l0.3,1.3l1.2,0.4l0.8,1l0.8,2.1l0,1.5l0.5,0.8l-0.2,0.9l1.1,0.7l-0.2,0.3l1.5,1.6l-0.1,0.5l1.4,1.1l0.5,1.6l-0.2,1.5l0.3,1
		l-0.5,2.1l0.4,0.2l0,1.1l0.4,0.7l-0.3,0.4l0.3,1.1l1.1,0.9l1.1,1.9l1.3,3.9l3.5,2.7l0.4,0.8l1.1,0.6l0.5-0.3l2,1l0.1,0.4l0.6,0.2
		l-0.1,0.6l1.2,1.7l1.4,0.6l1.4,1.3l2,0.9l3,0.4l1.4,0.6l0.4-0.2l0.2,1.3l0.4-0.3l1,1.4l1.5,0.3l0.3,0.4l2.3,0l2.1,2.1l-0.1,0.5
		l0.6-0.1l0.5,0.8L231-85.2z"/>
	<path id="MX-COA" fill="#CCCCCC" stroke="#262A27" stroke-width="0.5" d="M319.6-49.6l-0.3,0.6l-1.1,0.8l-0.9,0.1l-1.9,1.3
		l-5.5-0.9l-3.7,0.3l-1.1,0.6l-0.5,2.3l-1.7,2.6l-0.3,0.8l0.2,2.3l-0.6,0.5l-2.2-0.1l-2.1,0.9l-1.2-0.4l-1.2,1l-1.8,3l0.3,3.3
		l2.8,2.1l0.6-0.1l0.7-3.1l0.6,0.1l2,1.5L301-25l-0.8,2.2l-1.1,0.8l-1.1,2.2l-3.2,0l-2.6,1.7l-3.5,0.3l-0.9,0.9l-1,2.7l-2.4,2.4
		l0,1.3l4.5,4.8l2.7,2l1.1,3.1l1.4,1.1l0.9,0.1l0.4,0.6l-1,2.9l0.2,2.5l0.8,1.8l1.1,0.1l0.8,0.7l2.1,0.1l0.4,0.4l0.6,3.4l0.8,0.9
		l3.3,1.9l-0.5,1l3.6,0.6l0.5,0.8l0.9,0.3l0.4,1l-0.8,0.9l-0.1,1.1l-0.3,0.2l-1.9,0l-3.4-0.9l-1.3-1.5l-1.7-0.2l-0.9,0.3l0.3,0.8
		l-1.8,0.6l-1.7,3.2l0.9,2.9l0.1,2.2l-0.2,0.4l-2.4,0.1l-0.2,0.4l0.3,0.8l-0.3,1.2l1.4,1.5l0.1,1.4l0.6,1.2l-1,3.3l0,0l-2.1-0.5
		l-0.8,0.3l-0.2,0.8l-1.4,0.4l-2.1-0.8l-1.4-1.3l-1.9-3.8l-1.3-0.8l-3-0.4l-2.3,0.5l-0.9,0.9l-2.8,0l-0.6-3.6l-1.2-0.3l-1.5,0.4
		l-2.2-3.1l-2-1.7l-2.5-1l-2.5-1.7l-9.4-0.6l-5.4,1.1l-0.6,0.5l0,1.6l0,0l-3.1,2l-0.6,1l-0.5,2.1l0.5,1.7l-0.3,0.5l-0.7,0.2
		l-2.1-1.4l-2.8-0.2L234,31l-1.3-1.2l-0.6-0.9l-0.5-3.1l-2.4-1.9l-0.6-1.7l-1.8-2.1l-0.6-3.1l1.4-1.4l2.3-0.5l-0.8-1.2l-1.3-0.3
		l-0.7-0.8L227,12l1.4-2.2l1.1-0.8l1.2-3.1l-1.2-4.5l-0.2-2l0.4-2.3L228-6.8l-0.2-1.4l0.4-2.9l-1.4-4l-2.3-2.1l-0.8-1.2l-1.2-1.2
		l-3-0.8l-0.7-0.6l0,0l-1.1-1.8l-2.1-1.9l0.1-1.3l-0.4-0.8l1.9-0.9l1.1-1l1.1,0l0.4-1.5l-1.8-0.8l-0.5-0.7l-0.2-4.8l-0.7-3.7
		l0.5-1.1l-0.1-1.1l-0.2-0.8l-1.1-0.5l-0.8-4.5l1.1-1.2l-0.1-0.7L215-51l0.6-0.8l0.1-0.8l-0.8-1.4l1.9-0.4l0.3-0.5l-0.5-1.5
		l-1.1-0.2l0-1.6l1.8,0.7l0.6-0.4l2.7-6.8l0.9-1.4l-0.9-1.4l0.6-1.1l2.3-3.8l1.6-0.6l1.4-1.1l1.7-4l0.7-0.3l0.8,0.3l0.7-1l0-1
		l-1.7-0.6l0-0.4l2.3-4.2l0,0l0.7,0.1l0.3-0.6l0.4,0.1l-0.3,0.6l1.4,0.7l0.1,0.5l0.4-0.5l0.3,0.4l1.6-0.1l0.9,0.4l0.9-0.4l0.5-2.3
		l0.3,0.2l0.3-1.1l0.8-0.1l1.1-1.7l0-0.6l0.6-0.3l0.4,0.3l1-0.5l0.2-0.7l0.6,0.2l0.5-0.3l-0.2-0.7l-0.8-0.4l0.4-0.8l0.2-1.8l1-0.2
		l-0.1-0.3l0.7-0.9l-0.4-0.3l0-0.9l0.7-1.3l-0.1-1.1l0.7-0.6l0.3-1.6l0.5,0.1l0.1-1.2l1.2-1.1l-0.1-0.4l0.7-1.6l1.1,0.2l1.4-0.6
		l0.6,0.3l0.9-0.6l-0.1-0.5l2.7,0.5l0.7-0.6l0.4-1.6l1.1-1l1.4,0.3l0,0.4l2.1,0.4l1.6,1.4l1.4,0.2l0.5-0.1l0-0.3l1-0.1l1.6,0.2
		l0.3,0.4l0.5-0.4l2-0.3l0.5,0.3l-0.1,0.5l0.8-0.3l1.7,0.8l0.4-0.2l0.4,0.3l0.4-0.3l0.3,0.4l1.9-0.6l0.1-0.6l0.6-0.5l0.2,1.5l2-0.8
		l0.2,1.1l1.1-0.5l0.2,0.2l-0.4,0.3l0.4,1l0.5,0.4l0.3,1.4l1.2-0.2l0.4,0.6l-0.3,1.5l0.6,0.4l0.2-1.3l0.3-0.4l0.5,0.1l0.1,1.6
		l-0.5,1.1l0.3,0.3l1.9,0.2l0.6,1l2.2,0.5l1.3,2.5l1.6,0.8l1.4,1l0.3,0.8l2,1l0.8,1.7l-0.2,0.4l2.4,1.8l0.4,0.9l0.3,3.7l0.5,1.2
		l0.7,0.1l0.7,2l0.7,0.1l0.3,0.6l0.1,1.3l0.6,0.6l0.2,2.1l1.3,0.6l0,0.8l1.3,0.8l-0.4,1.1l0.6,0.9l1.2,0.4l-0.1,0.4l-0.6,0.2
		l0.7,0.9l-0.2,1.4l1.5,2.4l0,1.1l1,1.1l0.8,0.1l0.3,1.1l3.1,1.4l0.9,1.8l0.8,0.5l0.2,1l0.8,1.2l0.9,0.1l0,1.1l1,1l-0.2,1l0.7,1.1
		v1.1l0.7,0.1L319.6-49.6z"/>
	<path id="MX-COL" fill="#CCCCCC" stroke="#262A27" stroke-width="0.5" d="M228.3,189.5l-2.5,2.2l-1-0.3l-0.4,0.3l0,1.8l-1.9,1.2
		l-0.7,1.7l0,0l-5.5-4.4l-5.2-2.8l-4-1.4l0.1-0.8l0.5-0.1l0.1-0.6l-0.5-0.5l-1.1-0.6l-1.8,0.9l-0.3-0.6l-1.8-0.7l-4.5-1.2l0.3-0.4
		l0.6,0.4l0.2-0.3l-0.6-0.2l0,0l1.9,0l1.5-1.8l1.1,0.5l0.6-0.1l0.5-0.8l0.9-0.6l0.5,0.4l3.8-0.9l1.3,0.4l1.1-0.3l3.1-2.3l3.3,0.3
		l1.4-0.2l3.2-1.7l2.5-2.4l0.6,0.1l0.5,2.9l-0.2,1l1,0.8l0.2,0.8l1.1,0.5l-0.5,1.8l0.1,3.1l-0.6,1.3l0.8,1.5L228.3,189.5z"/>
	<path id="MX-CMX" fill="#CCCCCC" stroke="#262A27" stroke-width="0.5" d="M344.1,186.5l-1,0l-2.4,0.8l-0.9-0.8l-0.6,0.1l-1.3,1.1
		l-1.3-1.2l-1.3,0.2l0,0l-2.6-4.4l-0.1-1l3.2-2.8l0.5-2l2.2-2.5l0.3,0.4l0,1.1l1.6,1.9l0.5,1.6l2.1,1.8l0.3,1.5l0.5-0.4l0.2,0.5
		l0.4,1.6l-0.5,1.7L344.1,186.5z"/>
	<path id="MX-DUR" fill="#CCCCCC" stroke="#262A27" stroke-width="0.5" d="M136.5,8.1l0.3-0.6l2.3-0.8l0.3,1.3l1.1,0.7l1.6-0.2
		l0.5,0.9l2,0.3l0.7,1.2l0.6,0.3l1.2-1.6l3.5-2.7l2.1-3.4l-0.6-1.9l-1-1.6l1.7-4l0.9-0.3l-0.4-2.1l0.4-0.4l1,0.2v-1.4l0.9-0.9l2-0.9
		l0.3-0.6l0-1.1L157-12l-0.1-0.5l0.9-1.5l0-1.6l0.9-3.4l0.6-0.5l0-1.8l1.8-0.6l0.2-1.3l0.8-0.5l0.7,0.9l1.3,0.1l1.9,1.2l1.1,0.2
		l1,1.9l1.3,0.7l0.3,0.6l1.9,0.2l1.6,1.4h1l0.8,1.1l1.6-0.3l1.1,1.9l1.3-0.3l1.6,0.5l0.2,0.6l1.7-1l0.4,0.5l0.6-0.1l0.5-0.6l1.6-0.7
		l0-1.1l0.5,0l0.7,0.7l1.2,0.3l2.5-0.2l2,1.9l1.7,1.2l1,0.2l1.7-0.9l1.7,0.2l0.4-0.2l0.3-0.8l-0.2-1.3l1.9-3.1l1.5-0.5l1.1-1.5
		l2.5-0.4l0.1-1l-1.5-0.1l-0.5-0.7l0.3-0.7l0.7-0.3l1.4,0.9l1.4,0.2l0.7,1l1.4,0.3l0.9-0.8l1.5,0.6l3.2-1.1l0.8,0.1l-0.4,0.7
		l0.3,0.2l0.5-0.7l1.1,0.9l1.1-0.2l0,0l0.7,0.6l3,0.8l1.2,1.2l0.8,1.2l2.3,2.1l1.4,4l-0.4,2.9l0.2,1.4l1.7,3.9l-0.4,2.3l0.2,2
		l1.2,4.5L229.5,9l-1.1,0.8L227,12l-0.1,0.9l0.7,0.8l1.3,0.3l0.8,1.2l-2.3,0.5l-1.4,1.4l0.6,3.1l1.8,2.1l0.6,1.7l2.4,1.9l0.5,3.1
		l0.6,0.9L234,31l3.4,1.6l2.8,0.2l2.1,1.4l0.7-0.2l0.3-0.5l-0.5-1.7l0.5-2.1l0.6-1l3.1-2l0,0l0.4,0.5l0,1.6L248,29l0.4,1.1l1.5,0.7
		l0.8,0.9l-0.8,4.9l1.2,0.5l1,4l-1,0.5l0,0.4l0.5,0.4l-0.1,0.7l-6.1,0.6l-1.7-0.2l-0.8,0.9l-2.7-0.9l-1-0.7l-1.1-0.1l-2.3,0.8
		l-2.2-0.7l-3.9-0.3l-1.7,1.4l-0.5,1.3l-2.4,1.8l-2.1,2.8L221,52l-2.4,0.7l-0.2,1.3l0.8,0.5l0.4,1.7l-0.3,1.7l0.4,1.9l-0.4,1.2
		l0.9,4.3l-2.8,2.4l-2.3,2.9l-0.1,1.9l-1.3,5.8l-0.6,0.4l-1.4,2.7l-0.1,1.3l0.9,3.1l-0.2,5.5l-0.3,0.6l-3.2,1.4l-1,1.5l-1.2,3l0,0
		l-2.9,1.3l-0.4,1.4l-0.5,0l-1.8-1.1l-1-2.1l-2.5-2.4l-1.7-0.4l-1.4-1.8l-1.4,2.6l-0.8,0.9l-0.7,0l-2.2-4.6l1.7-1.8l1.7-0.9l0.6-0.9
		l-0.1-1.2l-1.1,0l-0.5-0.4l-0.6-2.5l-2.1-0.2l-1.3-0.6l-1.5-1.8l-0.5,0l-0.9,1.3l-1.7,0.4l-2.2-2.6l0,0l-2.1-2.2l-0.6-0.1l-0.9,0.6
		l-2-0.2l-0.6-1.3l-0.1-2.3l-1.2-1.3l-0.7-1.7l0.3-0.9l-1-2.9l-0.4-2.8l-1.7-1.6l-0.9-2l-1.1-1.2l-0.6-2.9l-0.7-1.1l-0.8-2.6
		l0.3-0.9l-1-0.9l-0.1-2.2l-1.7-2.3l-0.1-1.1l-1.1-0.3l-0.9-1.4l-1.5-1l-4-1.2l-0.7,1l-2.8,2.1l-1.3,0.2l-0.7,0.5l-0.7-0.5l-0.8,0.2
		l-0.6-2l-1-1.4l-0.8-4.1l-0.2-0.3l-0.6,0.4l-0.6-0.2l-1.2-4.5l-1.3-0.3l-0.9-2.6l-2.3-0.2l-0.5,0.4l-1.2-1l0.3-1.4L136,27l-0.8-0.6
		l-0.5-1.8l-1-0.6l0.5-2l0.1-5.1l1.3-3.2l-0.1-0.7l-0.5,0.1l-0.6-0.7l1.7-2.2l1.2-0.8l-0.1-0.7l-0.7,0.2L136.5,8.1z"/>
	<path id="MX-GUA" fill="#CCCCCC" stroke="#262A27" stroke-width="0.5" d="M321.2,121.7l0.5,0.5l-0.1,2.1l-1.1,1.9l2.5,0.6l0,1.2
		l-0.7,1.4l-1.5,0.7l-0.6,1l-1.1,0.2l-1.7-1.8l-1.5,0.6l-2.3,3.3l0.1,1.5l-0.7,1.6l-0.8-0.5l-0.2,1.1l-0.7,0.4l-2.7-0.4l-1.5,0.7
		l-4.6,0.3l-0.7,1.4l-0.7,3.8l0.1,0.8l1,0.7l0.6,1.7l0,2.7l1.1,1.9l2,1.4l0.7,1.7l0,0l-0.4,1.1l0.6,1.2l0.1,1.3l-0.5,1.8l0.7,0.1
		l-0.1,1l-1.2,1.1l-2.1,0.3l-0.7,0.8l-0.5,1.4l-0.6,0.2l0.3-1.5l-0.5-0.2l-1.9,0.5l-1.4,1l-3.4-0.2l-2.6-0.9l-1.3-0.1l-0.6,0.3
		l-0.3-0.1l0.2-0.5l-0.5-2.3l-2.2,0.6l-1.4-0.4l-0.7,0.6l0.3,0.8l-1.2,0.5l-1.8-0.7l-2.5-0.2l-0.5-0.5l0-3.2l-0.4-1.7l1,0.5l0.6-0.3
		l-1.3-1.8l-1.1-0.8l-1.4,0.2l-0.6-0.4l-2.1,0.7l-2,2.8l-0.9-0.3l-2.2,0.1l-0.5-0.4l-1.2,0.7l-0.8-0.1l-0.4-0.5l-0.7-2.8l0.4-0.4
		l-0.6-0.5l-0.5,0.1l-0.3-0.5l-0.9,0l0,0l0.4-2.8l1.8-3.4l-1.6-2.9l-1.6-0.4l-0.5-1.3l2-2l0.1-0.8l1.8-1.5l1.9-4l2.5-1.9l1.1-2.7
		l-0.1-0.6l0.5-0.7l1.5-0.1l0.4-0.4l0.7-1.4l-0.8-0.5l0.6-2.2l-0.7-0.1l1.5-5.5l-0.1-0.7l1.2-1.4l-0.7-0.8l1.2-1.3l0,0l1,0.6
		l0.8-0.9l0,0l1.2,0.7l2.9,0.3l1.3,0.7l4.6,1.1l1.2,0.8l1.1,0l5,3.7l2.7,1.4l2.8,0l1.5-0.6l-0.1-1.1l0.6-1.8l1.1-0.7l3.9,1.3l3.1,2
		l0.3,0.7l0.5-0.1l1.7,2.1l1.8-0.2l0.4-0.5l0.7,0.8l1.6,0L321.2,121.7z"/>
	<path id="MX-GRO" fill="#CCCCCC" stroke="#262A27" stroke-width="0.5" d="M305.2,186.8l0.3,2.9l-1,1.9l-0.7,4.2l0.4,1.6l1.8,0.8
		l0.1,1.2l-0.3,0.7L304,202l0.6,0.7l1.3-0.3l1.5,0.3l0.2,1.1l1.6,2l0-0.4l0.6,0l0.3-0.4l0.2,0.4l2-2.2l2.5-0.6l-0.7-1.4l0.4-0.6
		l1-0.5l0.8,0.4l3.5-0.2l0.3-0.6l0.9-0.4l0.9,0.3l0.4-1.6l1.8-0.3l-0.4-1.7l0.8,0l0.9,1.1l2,0.7l0.8-0.5l0.8,0.1l0,0l0.5,0.8
		l-0.6,1.1l0.4,0.4l1.1-0.2l1.1,0.5l2,2.7l5.5,0.7l2.3,2.3l0,0l0,1.2l1.4,1.2l1.3,0.6l1.2,2.3l3-0.2l0.2,0.8l-0.8,1l4.2,1.8l0.1,1.1
		l1.4-0.3l0.5,0.3l0.9-0.9l1.5-0.1l1.6,2l1.6,0.8l0,0l-1.7,4l-0.2,1.4l2.7,6.1l0.6,4.6l-0.9,0.8l-0.2,2.1l0.6,0.5l2.3,0.8l0.5,1.2
		l-0.1,1.9l0.3,0.6l1.2,0.3l0.4,0.5l0.4,1.6l-0.9,2.9l-0.9,0.9l-1.2,0.2l-0.9,0.7l-0.2,1.4l-4.1,3.6l-0.5,2l-4.6,3.5l0,0l-3.6-3.6
		l-1.9-2.5l-1.7,0.2l-0.3,0.6l-1.3-0.2l-10.6-3.2l-3.1-0.6l-4,0l-1.6-0.5l-2.1-1.1l-1.8-1.5l-1-0.3l0.6-0.6l-0.2-0.4l-1,0l0.2,0.4
		l-0.6,0.3l-1.1-1.7l-0.9-0.4l-26.6-9.5l0.1-0.6l-0.5-0.6l-2.5-1.8l-0.8-1l-6.2-2.6l0.2-0.8l-0.9-1.1l-0.8-0.6l-2.2-0.3l-0.1-0.5
		l-1-0.4l-0.8-1.9l-1.9-1.3l-1.4-2.4l-3.8-2.1l-2.2-0.7l-1.4,0.2l-0.7,0.8l-0.5-0.3l0,0l-0.8-1.3l0.1-3.9l0.8-0.6l2.6-0.8l0.9,0.3
		l1.5-0.6l0.8-0.8l1.6,0.4l0.8-0.3l0.2-0.3l-1.8,0l0.3-0.9l-0.1-1.2l-0.6-1.4l0.6-1.1l-0.6-1.2l0.1-0.3l0.6,0l-0.5-0.8l0.7-0.4
		l0.6,0.1l-0.2-0.5l0.6-0.1l0.5,0.8l0.5-0.8l-0.3-0.4l1.1-0.3l0.1,1l0.6-0.4l0.3,0.4l0.1-0.7l0.7-0.2l1.1,0l1.2,1.9l2,0.9l3.5-0.5
		l0.2-0.5l2-0.5l1.7,0l0.5,0.5l2,0.5l1.6-0.2l1.1,0.3l1.2,1.7l0.1,0.8l0.6,0.1l1.4-1.1l0.6,0.6l1.4,0.2l0.4,0.8l1.5,0.9l0.3-0.4
		l0.4,0.3l0.3,1.1l0.8,0l0.8-1l-2.8-3.8l-0.3-3.1l-1.2-4.2l0.5-1l1.1-0.9l0.4,0l0.6,1.6l2.4-2.9l0.9-0.5l1.1-2.5L305.2,186.8z
		 M309.8,205.6l0.1,0.3l0.4-0.3L309.8,205.6z"/>
	<path id="MX-HID" fill="#CCCCCC" stroke="#262A27" stroke-width="0.5" d="M352.3,124.5l0.8,0.2l0.3,0.8l-0.3,2.7l1.8,1.7l1.3,0.7
		l1.3,0.1l0.9-0.9l2,0.6l2.5,3.4l-1.9,2.5l-0.6,2.2l0.6,1.1l-0.3,0.6l-1.5,0.2l-1.3-1.4h-0.5l-2.4,2.2l-0.3,0.9l-0.6,0.5l-0.3,3.7
		l-0.6,1.3l-0.3,2.1l1.2,2.6l0.9,1.1l0.5-0.2l1.3-1.6l2.5-1.2l1.9-2.2l1.6-0.7l2.1-2.3l0.8-0.4l1.5,1l0,0l0.1,3l-2.9,2.5l-0.9,1.4
		l-3.6,1.9l0.7,1.4l2.1-0.5l0.5,2.2l-0.8,4.8l-1.5,3.1l0.7,4.7l0,0l-2.4-0.5l-0.8,1.5l-1.5,1.2l-2.1,0.3l-1-0.2l-5,1.7l0,0l-0.2-1.4
		l1.8-4.1l-0.2-1.7l-5.8,0.6l-1.7,2.6l-0.2,0.2l-0.6-0.3l0-0.9l-0.9-1.8l0.2-0.5l0.9-0.5l0.9-0.1l1.1-4.3l-0.5-1.3l-0.6-0.1
		l-2.7,1.4l-3.9,1.1l-0.5,3.8l-0.7,0.8l-2.1-1l-0.2,2.2l-1.2,1l0.1-2.5l-0.4-1.3l-0.7-0.6l-0.3-1.3l-1.2-1.3l0.7-1l-1.5-3.1
		l-0.6-0.3l-0.1-0.6l-4.6-0.7l-2.6-1.5l-1.2-1.4l0,0l1-6.5l1.6-0.5l0.9-0.7l2.9-0.7l2.3-1.6l-0.6-2l1.1-2.6l1.2-0.4l0.8-1.2l0.5-2.2
		l0.8-1.6l-0.3-1.1l1.6-1.4l1.2,0.7l4.1-1.3l1.3-3.1l0,0l2.3-0.8l1.1,2.4l1.3,1.1l1.1,0l1.3-2.4l0.9,1.3l1.3-3l1.6-1.8L352.3,124.5z
		"/>
	<path id="MX-JAL" fill="#CCCCCC" stroke="#262A27" stroke-width="0.5" d="M246.2,117.1l2.1-1.1l4.2,0.4l1.7,1.4l2.2,1l1.3-0.1l3-1
		l0.7-0.5l2.5-3.6l4.3-2l-2-2.1l0.2-1.6l-0.3-0.6l0,0l3.5,0.9l2.1,1.1l2.7,2.4l2.1,0.8l0.3,0.4l0,0l-1.2,1.3l0.7,0.8l-1.2,1.4
		l0.1,0.7l-1.5,5.5l0.7,0.1l-0.6,2.2l0.8,0.5l-0.7,1.4l-0.4,0.4l-1.5,0.1l-0.5,0.7l0.1,0.6l-1.1,2.7l-2.5,1.9l-1.9,4l-1.8,1.5
		l-0.1,0.8l-2,2l0.5,1.3l1.6,0.4l1.6,2.9l-1.8,3.4l-0.4,2.8l0,0l-2.8,0l-2.1,1l-1.7-0.2l-1.3,0.5l-1.7-0.1l-1.1,0.3l-2.1,1.6
		l-1.1-0.1l-1,1.1l-0.9,0.3l-0.3,1.4l-3,0.7l-0.2,0.8l-0.4,0l-1.1-1.3l-2.5-0.4l-0.3,1.1l-0.9-0.2l-0.4,0.3l0,2.3l-0.9,1.5l0.5,0.8
		l0.5,0.1l0.5-0.6l2.3,0.3l3.2,0.9l0.7,0.6l0.6,2.2l-0.3,0.8l-0.9,0.7l1.9,4.2l-0.6,2.6l3.4-0.1l0.6,0.7l0.1,1.6l-2.4,2.5l-0.9,2.3
		l-2.3-0.6l-1.4,0.7l-4,3.6l-2.2,1.2l-1.6,1.7l-0.3,0.1l-1.3-1.8l-0.5-0.1l-2.2,1.7l-1.5-0.3l-1.7,0.4l0,0l0-2l-0.8-1.5l0.6-1.3
		l-0.1-3.1l0.5-1.8l-1.1-0.5l-0.2-0.8l-1-0.8l0.2-1l-0.5-2.9l-0.6-0.1l-2.5,2.4l-3.2,1.7l-1.4,0.2l-3.3-0.3l-3.1,2.3l-1.1,0.3
		l-1.3-0.4l-3.8,0.9l-0.5-0.4l-0.9,0.6l-0.5,0.8l-0.6,0.1l-1.1-0.5l-1.5,1.8l-1.9,0l0,0l-0.6-0.5l-0.6,0.1l-0.1-0.5l-0.7,0.3
		l-0.5-0.3l-0.9,0.1l0-0.6l0.5-0.6l-0.1-0.5l-0.9-0.3l-0.2,0.4l-0.9,0.2l-2-1.1l-1.9-1.7l0.4-0.7l-0.4-0.7l-0.8-0.5l0.1-0.9
		l-0.5-0.2l-0.2-1.5l-0.8-0.7l-0.8,0l0-0.4l-2.8-2.1l-0.3-0.7l-1.4-1.5l-0.4-1.1l-3.9-5.3l-1.1-2.3l0.2-2.2l-0.3-1.2l-0.7-0.2
		l-0.1-0.6l-2.2-2.3l-0.5-1.6l1.1-0.5l0.9-1.1l7.4-1.2l1.5-1.1l0.7-1.6l-0.3-1l-1.3-1.1l0,0l4.4-5.6l1.2-0.4l2.3,0.5l3.2-2.4
		l1.3-0.2l1.5,0.7l1.2,1.4l3.1,0.8l2.7,3l1.1,0.6l2.3,2.1l0.7,0.8l0.5,1.6l0.5,0.3l0-1.5l-1.2-1.5l0.3-0.4l-0.7-0.8l-0.4-1.5
		l0.4-0.6l0.8-0.2l1.5-8.5l4-0.2l0.9-0.4l1-1l1.7-0.3l2.3-1.3l0.4-0.8l0.4-4.2l-0.2-1.5l-1.4-1.2l-1.7-4.3l-4.5-0.6l-0.9-1.6
		l-0.1-2.7l-0.5-0.5l-1.1-0.1l-1.2-1.2l-1.7,0.5l-0.5-3l1.2-4.9l-0.2-0.5l0,0l1.1-1.2l1.3,0.3l0.4-3l3.1-1.2l0.5,0.4l-1.1,3.2
		l0.3,0.5l1.8-1.1l1-1.2l-0.2-1.4l-1.7-3.8l0.1-0.8l2.2-1.5l2.7-0.4l1.8,1l-0.2,0.9l-1.1,0.8l-1.5,1.9l-1.7,4.2l0,3.3l1.2,1.8
		l1.2,0.2l0.4-1.2v-7l0.6-0.6l3.4-0.7l1.4,0.5l1.4,1.3l0.6,1.9l0,1.2l-3.8,6.2L223,107l0.6,0.7l1.9,0l0.7-0.8l1.3,0.2l0.7,0.5
		l0.9-0.4l0.9-1.7l2.4-1.9l-1.2-1l0.3-1.9l1.9-0.7l2.2,0.2l0.4,0.9l-0.8,1.5l0.5,0.4l2.1,0.1l0.5,0.4l-0.7,3.5l-1.2,2.9l-0.7,0.7
		l-1.3,0.2l-3.3,1.7l-1.8,1.7l-2.9,2.1l0.2,1.8l-0.3,2.5l-1.6,1.9l-1.8,0.5l0.9,2.5l0.9,0.5l1-0.5l0.7,0.1l0.3,0.6l-0.1,1l-1.2,1.1
		l-4,1.8l0.2,0.5l2.5,0.6l0.8,0.8l0.8,1.7l0.9,0.5l2.3-0.2l2.9,1.6l1-0.5l0.9,0.1l0.2-0.6l1.3-0.3l1.7,0.4l0.1-0.4l1.5-0.5l0.3-2
		l0.6-0.5l1.4-0.5l1.5,0.5l3.6-2.9l2.3-1.4l1-1.3l0.5-2.7l-2.8-1.8l-0.6-1.9L246.2,117.1z"/>
	<path id="MX-MEX" fill="#CCCCCC" stroke="#262A27" stroke-width="0.5" d="M310.3,205.5l-0.4,0.3l-0.1-0.3L310.3,205.5z
		 M319.1,153.9l1.2,1.4l2.6,1.5l4.6,0.7l0.1,0.6l0.6,0.3l1.5,3.1l-0.7,1l1.2,1.3l0.3,1.3l0.7,0.6l0.4,1.3l-0.1,2.5l1.2-1l0.2-2.2
		l2.1,1l0.7-0.8l0.5-3.8l3.9-1.1l2.7-1.4l0.6,0.1l0.5,1.3l-1.1,4.3l-0.9,0.1l-0.9,0.5L341,167l0.9,1.8l0,0.9l0.6,0.3l0.2-0.2
		l1.7-2.6l5.8-0.6l0.2,1.7l-1.8,4.1l0.2,1.4l0,0l1,1.8l0.8-0.2l0.5,0.6l0,0l0.4,1.8l-0.6,0.6l0,1.1l1,3.6l0.1,4.4l0,0l-0.9,0.2
		l-2.6,2.1l-2.5-0.9l-0.9-1.6l-1-0.8l0,0l-0.2-0.8l0.5-1.7l-0.4-1.6l-0.2-0.5l-0.5,0.4l-0.3-1.5l-2.1-1.8l-0.5-1.5l-1.6-1.9l0-1.1
		l-0.3-0.4l-2.2,2.5l-0.6,2l-3.2,2.8l0.1,1l2.6,4.4l0,0l-4,6.3l-0.5,1.4l-1.6,1.8l-0.2,1l0,0l-0.8-0.1l-0.8,0.5l-2-0.7l-0.9-1.1
		l-0.8,0l0.4,1.7l-1.8,0.3l-0.4,1.6l-0.9-0.3l-0.9,0.4l-0.3,0.6l-3.5,0.2l-0.8-0.4l-1,0.5l-0.4,0.6l0.7,1.4l-2.5,0.6l-2,2.2
		l-0.2-0.4l-0.3,0.4l-0.6,0l0,0.4l-1.6-2l-0.2-1.1l-1.5-0.3l-1.3,0.3l-0.6-0.7l1.7-1.8l0.3-0.7l-0.1-1.2l-1.8-0.8l-0.4-1.6l0.7-4.2
		l1-1.9l-0.3-2.9l0,0l0.6-0.4l0.2-1.1l1.5-1.8l1.1-2.4l-0.3-1l0.8-1.8l0.4-0.6l0.7-0.1l0.3-0.6l-0.4-5.2l-0.6-0.5l-1-2l1.5,0.1
		l1.4-0.5l0.3-0.5l0.3-2.1l1.3-1.7l0-0.6l-0.9-0.8l0.1-2.4l0,0l2.5-0.3l1.9-2l-0.3-1.7l-0.5-1l0.2-0.3l0.9,0.6l0.6-0.1l-0.2-0.7
		l0.3-0.6L319.1,153.9z"/>
	<path id="MX-MIC" fill="#CCCCCC" stroke="#262A27" stroke-width="0.5" d="M264,152.2l0.9,0l0.3,0.5l0.5-0.1l0.6,0.5l-0.4,0.4
		l0.7,2.8l0.4,0.5l0.8,0.1l1.2-0.7l0.5,0.4l2.2-0.1l0.9,0.3l2-2.8l2.1-0.7l0.6,0.4l1.4-0.2l1.1,0.8l1.3,1.8l-0.6,0.3l-1-0.5l0.4,1.7
		l0,3.2l0.5,0.5l2.5,0.2l1.8,0.7l1.2-0.5l-0.3-0.8l0.7-0.6l1.4,0.4l2.2-0.6l0.5,2.3l-0.2,0.5l0.3,0.1l0.6-0.3l1.3,0.1l2.6,0.9
		l3.4,0.2l1.4-1l1.9-0.5l0.5,0.2l-0.3,1.5l0.6-0.2l0.5-1.4l0.7-0.8l2.1-0.3l1.2-1.1l0.1-1l-0.7-0.1l0.5-1.8l-0.1-1.3l-0.6-1.2
		l0.4-1.1l0,0l1.6,1l1.2,1.9l-0.2,0.8l3.3,3l0,0l-0.1,2.4l0.9,0.8l0,0.6l-1.3,1.7l-0.3,2l-0.3,0.5l-1.4,0.5l-1.5-0.1l1,2l0.6,0.5
		l0.4,5.2l-0.3,0.6l-0.7,0.1l-0.4,0.6l-0.8,1.8l0.3,1l-1.1,2.4l-1.5,1.8l-0.2,1.1l-0.6,0.4l0,0l-2.3,1.4l-1.1,2.5l-0.9,0.5l-2.4,2.9
		l-0.6-1.6l-0.4,0l-1.1,0.9l-0.5,1l1.2,4.2l0.3,3.2l2.8,3.8l-0.8,1l-0.8,0l-0.3-1.1l-0.4-0.3l-0.3,0.4l-1.5-0.8l-0.4-0.8l-1.4-0.2
		l-0.6-0.6l-1.4,1.1l-0.6-0.1l-0.1-0.8l-1.2-1.7l-1.1-0.3l-1.6,0.2l-2-0.5l-0.5-0.5l-1.7,0l-2,0.5l-0.2,0.5l-3.5,0.5l-2-0.9
		l-1.2-1.9l-1.1,0l-0.7,0.3l-0.1,0.7l-0.3-0.4l-0.6,0.4l-0.1-1.1l-1.1,0.3l0.3,0.4l-0.5,0.8l-0.5-0.8l-0.6,0.1l0.2,0.5l-0.6-0.1
		l-0.7,0.4l0.5,0.8l-0.6,0l-0.1,0.3l0.6,1.2l-0.6,1.1l0.6,1.4l0.1,1.2l-0.3,0.9l1.8,0l-0.2,0.3l-0.8,0.3l-1.6-0.4l-0.8,0.8l-1.5,0.6
		l-0.9-0.3l-2.6,0.8l-0.8,0.6l-0.1,3.9l0.8,1.3l0,0l0.2,0.8l-1.3,0.5l-3-1.5l-4.1-1.2l-7.9-1.7l-5.1-2.4l-3.8-0.7l-4.9-1.9l-0.5,0.2
		l-3.8-2.3l-1.8-4.1l-2.9-2.2l0.4-0.8l-1.6-1.9l0,0l0.7-1.7l1.9-1.2l0-1.8l0.4-0.3l1,0.3l2.5-2.2l0,0l1.7-0.4l1.5,0.3l2.2-1.7
		l0.5,0.1l1.3,1.8l0.3-0.1l1.6-1.7l2.2-1.2l4-3.6l1.4-0.7l2.3,0.6l0.9-2.3l2.4-2.5l-0.1-1.6l-0.6-0.7l-3.4,0.1l0.6-2.6l-1.9-4.2
		l0.9-0.7l0.3-0.8l-0.6-2.2l-0.7-0.6l-3.2-0.9l-2.3-0.3l-0.5,0.6l-0.5-0.1l-0.5-0.8l0.9-1.5l0-2.3l0.4-0.3l0.9,0.2l0.3-1.1l2.5,0.4
		l1.1,1.3l0.4,0l0.2-0.8l3-0.7l0.3-1.4l0.9-0.3l1-1.1l1.1,0.1l2.1-1.6l1.1-0.3l1.7,0.1l1.3-0.5l1.7,0.2l2.1-1L264,152.2z"/>
	<path id="MX-MOR" fill="#CCCCCC" stroke="#262A27" stroke-width="0.5" d="M335.3,186.7l1.3-0.2l1.3,1.2l1.3-1.1l0.6-0.1l0.9,0.8
		l2.4-0.8l1,0l0,0l1,0.8l0.9,1.6l2.5,0.9l2.6-2.1l0.9-0.2l0,0l-2.8,7.1l1.3,7.8l-0.5,0.7l-2.8-2.6l-0.5,0.1L346,202l-1.2,0.6l-0.6,1
		l-2.8,1.9l0,0l-2.3-2.3l-5.5-0.7l-2-2.7l-1.1-0.4l-1.1,0.2l-0.4-0.4l0.6-1.1l-0.5-0.8l0,0l0.2-1l1.6-1.8l0.4-1.4L335.3,186.7z"/>
	<path id="MX-NAY" fill="#CCCCCC" stroke="#262A27" stroke-width="0.5" d="M159.7,126.5l0.2,0.8l-0.8,0.4l-0.5-0.7l0.4-0.5
		L159.7,126.5z M154.5,122.1l1.6,0.4l0.4,0.6l-0.5,0.4l-0.1,0.8l-2.3-0.9l-0.4-0.5L154.5,122.1z M149.1,116.8l2.6,0.7l0.4,0.4
		l-0.1,0.6l0.8,0.8l-0.2,0.9l-0.6,0.4l-2.4-1.3l-0.5-1.4L149.1,116.8z M148.7,114.7l0.4,1l-0.5,0.2l-0.2-0.8L148.7,114.7z
		 M173.4,93.3l0.6,1.4l-0.2,1.4l0.5,0.5l-0.2,0.7l0.9,6.4l-0.6,0l-0.2-0.4l-0.8-4.2l-2-4.5l0.3-0.3l1.1,1.8l0.8-0.3l-0.7-2.2
		L173.4,93.3z M180.6,80.5l2.2,2.6l1.7-0.4l0.9-1.3l0.5,0l1.5,1.8l1.3,0.6l2.1,0.2l0.6,2.5l0.5,0.4l1.1,0l0.1,1.2l-0.6,0.9l-1.7,0.9
		l-1.7,1.8l2.2,4.6l0.7,0l0.8-0.9l1.4-2.6l1.4,1.8l1.7,0.4l2.5,2.4l1,2.1l1.8,1.1l0.5,0l0.4-1.4l2.9-1.3l0,0l0.2,2.8l0.4,1l0.7,0.4
		l0,0l0.2,0.5l-1.3,4.9l0.5,3l1.7-0.5l1.2,1.1l1.1,0.1l0.5,0.5l0.1,2.7l0.9,1.6l4.5,0.6l1.7,4.3l1.4,1.2l0.2,1.5l-0.4,4.2l-0.4,0.8
		l-2.3,1.3l-1.7,0.3l-1,1l-1,0.4l-4,0.2l-1.5,8.5l-0.8,0.2l-0.5,0.6l0.4,1.5l0.7,0.8l-0.3,0.4l1.2,1.5l0,1.5l-0.5-0.3l-0.5-1.5
		l-0.7-0.8l-2.3-2.1l-1.1-0.5l-2.7-3l-3.1-0.8l-1.2-1.4l-1.5-0.7l-1.3,0.2L191,138l-2.3-0.5l-1.2,0.5l-4.5,5.6l0,0l-1.2-1.8
		l-0.5-0.1l-0.9,0.7l-3-1l0.8-0.6l0.9-2.1l0.4,0.1l0.9-1.6l1.2-0.8l0.9-1.2l0.1-0.8l1,0.4l1.1-1.6l-0.3-1l0.5-3.1l-0.6-2.8l1.4-2.7
		l-0.2-1.3l-0.7-0.8l-0.9,0.3l-4.7-3.2l-1.4-3.6l-3-5.1l-0.7-2.7l0.2-3.2l0.8-0.4l0.5,1.2l0.6,0.1l0.3,0.8l2,1l0.3-1.5l-1-0.7
		l-0.3,0.3l-0.4-0.8l-1,0.3l-0.2-0.6l0.4-0.4l-0.1-0.6l-0.5-0.1l-0.3,0.4l-0.3-0.3l0.1-0.7l-0.5-1l-0.2-3.4l-0.3-0.6l0.2-0.9
		l-0.6-0.4l0.3-0.7l-0.6-2.1l0.3-0.2l0,0l2.1,1.2l3.5,0.6l0.4-0.9l-0.2-2l-0.4-0.4l-0.2-1.3l-1.3-1.3l-0.5-1.3l0.3-1l1.7-2.1
		l0.6-3.4L180.6,80.5z"/>
	<path id="MX-NLE" fill="#CCCCCC" stroke="#262A27" stroke-width="0.5" d="M322.5-46.9l-0.6,0.3l-1.3,1.7l-2.8,0.8l-0.6,0.7l0.3,0.8
		l-0.4,1.1l0.6,0.4l4,0.2l0,0.9l-1.2,1.4l1.3,0.9l-0.2,2.5l0.2,1.4l1.1,1.1l0.4,3.2l-1.6,1.4l-0.8,2.4l0.1,1.1l1.5,0l1.3,0.7
		l0.5,0.8l-0.5,1.3l-0.2,3.2l0.8,0.8l0.9-0.4l0.7,0.4l0.8,1.9l1.9,0.2l1.2,4.1l1.8,2.5l1.4-0.1l-0.1,1l1.2,1.6l0.7,0.1l0.8-0.7
		l0.6,0.1l0.2,0.6l-0.4,0.7l0.8,1.3l-0.9,0.3l0.8,0.5l0.4,0.7l3.3,0.5l0.6,0.6l1.2,2.3l0.9,0.5l2.7-1.5l1.1,0.2l3.4-0.7l0.7,0.4
		l0.1,1.5l0.8,1l-0.3,3.4l0.6,1.5l-0.5,0.8l-0.2,2.1l0.7,1.6l-0.4,0.8l1,0.8l2,0.6l0.4,0.3l0,0.5l-1.5,1.6l-0.6,1.4l-1.3,0.6
		l-1.4,1.4l-0.8,0.1l-1,1.1l-4.4,0.9l-1,1.1l-0.8,2l-2.8-0.2l-0.6-1.2l-0.5,0l-1.5,2l-1.3,0.4l-0.3,0.4l0.6,2.2l0.7,0.4l-0.4,1.7
		l-0.9,0.1l-0.9,0.7l-0.5,1.6l-1.1,0.4l-0.4-1.5l-0.4,0.1l-0.4,1l-1.1,0.5l-1.1,1.6l-1.8-0.1l-1.3,2.1l-2.9,1.3l-2,1.3l-0.7,2.1
		l0.2,0.3l1.8-0.1l1.3,2.6l-0.9,6.8l1.8,2.1l1.4,3.6l1.4,0.8l0.8,2.3l-2.3-0.4l-0.4,0.1l-0.3,1.5l-1.8,1l-0.7,0.2l-2.5-0.7l-2.3,1.2
		l-0.7,2.8l-1.5,1.8l-0.3,1l0.4,2.8l-0.2,1.8l-3.1-0.4l-0.8,0.7l0.6,1.3l-0.4,0.8l0,0l-3.9-0.7l-2.3,2.8l-1.5-0.7l-1.2-1.5l-0.6-1.6
		l-0.3-4.1l-0.5-1.3l1.1-5.6l-0.1-0.9l-1-1.5l0.2-4.4l-0.9-2.3l-2.5-3.1l0.1-1.4l-1.8-1.7l-0.3-0.8l1.2-1.6l0-0.3l-0.7-0.3l0.5-1.6
		l-1.4-0.5l-1,0.2l-1.7-2.3l0,0l0.5-0.4l0,0l1-3.3l-0.6-1.2l-0.1-1.4l-1.4-1.5l0.3-1.2l-0.3-0.8l0.2-0.4l2.4-0.1l0.2-0.4l-0.1-2.2
		l-0.9-2.9l1.7-3.2l1.8-0.6l-0.3-0.8l0.9-0.3l1.7,0.2l1.3,1.5l3.4,0.9l1.9,0l0.3-0.2l0.1-1.1l0.8-0.9l-0.4-1l-0.9-0.3l-0.5-0.8
		l-3.6-0.6l0.5-1l-3.3-1.9l-0.8-0.9l-0.6-3.4l-0.4-0.4l-2.1-0.1l-0.8-0.7l-1.1-0.1l-0.8-1.8l-0.2-2.5l1-2.9l-0.4-0.6L294,0.6
		l-1.4-1.1l-1.1-3.1l-2.7-2l-4.5-4.8l0-1.3l2.4-2.4l1-2.7l0.9-0.9l3.5-0.3l2.6-1.7l3.2,0l1.1-2.2l1.1-0.8L301-25l-0.4-5.1l-2-1.5
		l-0.6-0.1l-0.7,3.1l-0.6,0.1l-2.8-2.1l-0.3-3.3l1.8-3l1.2-1l1.2,0.4l2.1-0.9l2.2,0.1l0.6-0.5l-0.2-2.3l0.3-0.8l1.7-2.6l0.5-2.3
		l1.1-0.6l3.7-0.3l5.5,0.9l1.9-1.3l0.9-0.1l1.1-0.8l0.3-0.6l0,0l0.8-0.2l0.2,0.9l0.8,0.3L322.5-46.9z"/>
	<path id="MX-OAX" fill="#CCCCCC" stroke="#262A27" stroke-width="0.5" d="M399.6,203.4l1.2-2.2l0.3-1l-0.5-0.7l0-0.9l0.7-0.6
		l1.1,1.2l1,0.3l-0.6,1.3l0.6,2.7l0.6,0.9l2,1.6l1.3-0.4l1.4,0.8l1,1.9l1.4,0.1l-0.5,0.9l0.7,0.4l2.5-0.8l1.4,0.5l1.2-0.2l2,0.5
		l0.5,0.4l1,3.8l-0.2,1.3l-0.8,1.1l-1,2.6l-0.7,0.7l0.3,0.7l-0.2,1.2l2.2,4.4l2,0.6l1.3-0.7l2.9-0.2l3-2.1l3.7-0.9l1.2-1.1l0.4,0.1
		l1.4,0.8l-0.2,0.7l-1.5,0.7l-0.2,1.1l3.4,4.4l3.4,2.8l0,1l0.6,0.6l-0.3,1.4l28.6,1.8l0,0l-0.3,0.9l0,2l-0.8,1l-0.8,3.5l-2.9,2.6
		l-2.2,6.3L462,254l1.2,2.9l-0.5,1.5l0.1,2.1l0,0l0,0.4l-2,0.9l-0.5-0.1l-0.5-0.4l-0.7,0.1l-0.8-0.9l-0.9,0l-0.9-1.5l-1.1,0.4l0,1
		l-0.7,0l0,0.6l1.1,1l4.4,0.3l3.1,2.3l0,0l-0.2,0.6l0,0l-4.7-2.1l-3-0.9l-7.7-1.1l-0.2-0.4l2.6-0.9l0.7-0.6l0.4-1.1l-2.4-0.8
		l-1.3,0.9l-0.4,0.8l-1,0l-0.3,0.6l-0.5-0.1l-0.1-0.4l1.1-0.9l-1.1-0.9l0.2-0.6l-1.4-1l-1.7,0.4l-1.3,2.2l-1.3,0l-0.9,0.8l0.2,0.9
		l-0.6,0.1l-0.4,0.8l6.4,0l1.8,0.2l0.1,0.3l-3.6,0.1l-4,0.7l-1.8-0.2l-0.2,0.6l-2,0.2l-0.5,0.5h-0.6l-0.2,1l-2,0.9l-0.3,0.5l0.2,0.8
		l-1.4,0.5l-0.2,0.5l-1.5-0.2l-0.1,0.6h-2l-0.1,0.5l-2,0.9l-2.4,0.3l-1.3,0.8l-3.9,1l-2.7,1.3l0,0.3l-1.5,0.4l0.2,0.3l-2.9,1.4
		l-4.5-0.3l-1.9,1l-1.6,0l-3.5-1.5l-4-0.6l-1.5-1l-2.4-0.8l-0.8-0.5l-0.3-0.8l-3.8-1.7l-3.3-0.6l-2,0.1l-2.6-0.7l-0.7,0.2l-2.6-0.4
		l-0.4,0.4l-2.4-0.4l-5.7-3.7l-5.4-2.9l-4.7-0.8l-3.8-1.4l0,0l4.6-3.5l0.5-2l4.1-3.6l0.2-1.4l0.9-0.7l1.2-0.2l0.9-0.9l0.9-2.9
		l-0.4-1.5l-0.4-0.5l-1.2-0.3l-0.3-0.6l0.1-1.9l-0.4-1.2l-2.3-0.8l-0.6-0.5l0.2-2.1l0.9-0.8l-0.6-4.6l-2.7-6.1l0.2-1.4l1.7-4l0,0
		l1.2-1.4l2.1-1.4l1.6-0.4l3.5,0l1.4-0.6l2.2,1.6l1.2,0.4l0.7-0.2l1.8-1.6L375,213l-2.4-1.6l-0.4-0.8l2-4.3l1.6-0.7l1.6-0.2l0.5,0.3
		l0.2,1l-0.1,0.5l-1.3,0.9l0.1,0.4l1.3,1l0.7,1.1l1.4,2.8l0.4,1.6l0.8,0.7l0.9-0.9l0.9-1.9l2.6-2.6l1.4-0.3l3.7,0.9l1.8-1.5l0.1-0.9
		l0.3,0.6l1.4-0.9l2.4-0.5l1.9-3.4L399.6,203.4z"/>
	<path id="MX-PUE" fill="#CCCCCC" stroke="#262A27" stroke-width="0.5" d="M367.3,145.5l0.7-2.6l1-0.8l0.1-0.8l0.9-0.9l0.3-1
		l1.2,0.4l2-0.3l0,1.8l-1.2,0.8l0.2,0.3l0.9-0.2l0.8,0.6l-0.4,0.8l0.2,0.8l0.8,0.8l2.2,1.2l0.5,1.1l-1.5,2.5l-1.6-0.9l-1.2,0.8
		l0.1,4l0.5,2.4l0.7,0.5l2-0.2l0.9,1.8l0.6,0.2l1.6-1.4l1.2-2l0.8-0.7l7.1,2.5l0.1,0.5l-2.2,3l-1.7,4.3l-0.2,0.8l0.3,1l-0.3,1
		l-0.7,0.9l-1,2.6l-0.6,0.2L382,172l1.4,3l-0.5,1.4l0.3,0.4l1.4,1l3.6,0.8l2.9,1.3l0.5,0.6l0.1,1.3l-0.2,0.7l-0.5,0.1l-4.8-0.2
		l-0.2,0.9l0.5,6.1l-0.1,0.6l-1.9,2.4v3l0.4,1.1l0.8,0.7l3.8,1.1l-0.2,0.8l1.9,3.1l1.4,0.1l1-1l1.4-0.8l2.6,0.8l1.9,2.2l0,0
		l-0.8,0.8l-1.9,3.4l-2.4,0.5l-1.4,0.9l-0.3-0.6l-0.1,0.9l-1.8,1.5l-3.7-0.9l-1.4,0.3l-2.6,2.6l-0.9,1.9l-0.9,0.9l-0.8-0.7l-0.4-1.6
		l-1.4-2.8l-0.7-1.1l-1.3-1l-0.1-0.4l1.3-0.9l0.1-0.5l-0.2-1l-0.5-0.3l-1.6,0.2l-1.6,0.7l-2,4.3l0.4,0.8l2.4,1.6l0.1,0.4l-1.8,1.6
		l-0.7,0.2l-1.2-0.4l-2.2-1.6l-1.4,0.6l-3.5,0l-1.6,0.4l-2.1,1.4l-1.2,1.4l0,0l-1.6-0.8l-1.6-2l-1.5,0.1l-0.9,0.9l-0.5-0.3l-1.4,0.3
		l-0.1-1.1l-4.2-1.8l0.8-1l-0.2-0.8l-3,0.2l-1.2-2.3l-1.4-0.6l-1.4-1.2l0.1-1.2l0,0l2.8-1.9l0.6-1l1.2-0.6l0.8-1.3l0.5-0.1l2.8,2.6
		l0.5-0.7l-1.3-7.8l2.8-7.1l0,0l-0.1-4.4l-1-3.6l0-1.1l0.5-0.6l-0.4-1.8l0,0l0.7-0.3l1.2,0.4l3,2.3l1.3,1.4l0.5,1.4l1.2,1.3l4.1,2.2
		l0.9-0.1l3.1-2.7l0.6,0l1.5,1l0.8-0.1l1.2-0.8l1.4-2.3l0.8,0.3l2.7-0.5l0.8-0.5l0.3-1.2l-0.9-0.2l-0.7-0.6l-0.3-1.2l-1.2-1.2
		l-0.6-0.4l-1.5,0.5l-0.8-0.2l0.1-1.7l-4.1-3.4l-0.7-1.1l-0.5-0.1l-1.5,1.8l-0.6,0.2l-2.1-0.4l0,0l-0.7-4.7l1.5-3.1l0.8-4.8
		l-0.5-2.2l-2.1,0.5l-0.7-1.4l3.6-1.9l0.9-1.4l2.9-2.5L367.3,145.5z"/>
	<path id="MX-QUE" fill="#CCCCCC" stroke="#262A27" stroke-width="0.5" d="M339.7,127.6l-1.3,3.1l-4.1,1.3l-1.2-0.7l-1.6,1.4
		l0.3,1.1l-0.8,1.6l-0.5,2.2l-0.8,1.2l-1.2,0.4l-1.1,2.6l0.6,2l-2.3,1.6l-2.9,0.7l-0.9,0.7l-1.6,0.5l-1,6.5l0,0l-1.1,0.8l-0.3,0.6
		l0.2,0.7l-0.7,0.1l-0.9-0.6l-0.2,0.3l0.5,1l0.3,1.7l-1.9,2l-2.5,0.3l0,0l-3.3-3l0.2-0.8l-1.2-1.9l-1.6-1l0,0l-0.7-1.7l-2-1.4
		l-1.1-1.9l0-2.7l-0.6-1.7l-1-0.7l-0.1-0.8l0.7-3.8l0.7-1.4l4.6-0.3l1.5-0.7l2.7,0.4l0.7-0.4l0.2-1.1l0.8,0.5l0.7-1.6l-0.1-1.5
		l2.3-3.3l1.5-0.6l1.7,1.8l1.1-0.2l0.6-1l1.5-0.7l0.7-1.4l0-1.2l-2.5-0.6l1.1-1.9l0.1-2.1l-0.5-0.5l0,0l-0.6-0.6l1.5-0.4l-0.3-0.5
		l0.2-0.5l1.1,0l1.5,1l0.6,1.9l0.6,0.7l2.5,0.3l1.9-0.5l0.6,0.4l1.1-2.8l0.6-0.4l0.8,0.2l0.5-0.3l1,2.2l3.2,3.4l0.8,1.5L339.7,127.6
		z"/>
	<path id="MX-ROO" fill="#CCCCCC" stroke="#262A27" stroke-width="0.5" d="M647.9,146.3l-1.1,2.6l-1.1,1.5l-0.3,0l-2.6,3.4l-1.6,1
		l-0.7-1.7l0.1-1.9l2.3-3.8l0.7-0.4l0.7,0.8l0.3-0.3l0.5,0.3l1.5-0.4L647.9,146.3z M587.4,216.2l-0.3-2.5l2.4-2.8l0.6-1.3l-0.3-4.7
		l-0.5-1.4l0.6-1.7l-0.8-0.5l0.5-1.4l-0.2-0.7l-1-1.2l-0.2-1.3l0.8-5.1l-0.2-2.5l0.4-0.7l1.2-0.7l0.2-5.9l-3.4-4.7l-5.3-4.3
		l-1.3-1.8l0,0l0.9-2l0.3-1.5l-0.2-0.9l0.6-0.5l3.5-0.2l1.4-1.4l2.4-1l2.4,0l1.2-0.4l1.9-1.8l1.1,0.9l0.3-0.3l-0.3-0.7l1.9-1.6
		l1.8-1l5.5-2l0.5-0.5l0.8-2.4l0.5-0.4l1,0l0.9,1.7l0.4,0l-0.3-2.2l1.5-2.8l1.2-0.6l1.1,1l1.5-0.4l1.5,0.1l3.1-1.8l3.1-2.7l1.7-0.8
		l0.9-1.2l0.3-1.6l0.9-1.1l0.5-2.5l1.2-2l0.1-1l-1.3-3.2l0.5-3.2l0.9-0.9l0.1-0.8l-0.3-5.3l0,0l1.3,0.1l0,0.4l0.6,0.3l0.7-0.3
		l2.1,0.6l0.3,0.4l0.7-0.3l1.6,0.2l0.4,0.4l0.3-0.5l2.7-0.9l0.2-2l-0.6-0.3l0.6-0.8l0.5-0.2l0.4,0.5l1.4,0.4l0.6,0.8l0.3-0.2
		l0.5,0.5l0,0.8l1.6,2.2l1,4l0.4-0.1l0.2-1.6l0.7-0.7l-0.1-0.9l-0.7-1.1l0.7,0.2l0.1,1.7l-0.6,1.6l0.4,1.2l-0.2,1.4l0.2,0.8l1.2,0.9
		l-0.7,2.5l-0.8,0l-0.3,0.7l-1.3,4l-1.2,1.1l-1.1,1.6l0,0.5l-1.2,0.7l-0.3,0.8l-1.9,2.2l-3.9,3l-1.7,2.4l-1,2.5l-1.5,1.7l-1.4,4
		l0,1.9l0.6,1.9l0.4,0.1l0.2,1.1l-0.6,1.4l-0.8,0.8l0.4-0.9l0.4,0l0.6-1.3l-0.1-0.6l-0.6-0.4l0.1,1.3l-1,1.8l-0.8,0.3l-0.3-0.4
		l-0.9,0.5l-1.6,2.7l-2.4,0.4l-0.2,1.9l1,0.7l0.2,0.6l0.7-0.3l-0.1,0.8l0.4,0.1l-0.3,0.7l0.6-0.1l0.9-1.3l1.6-0.3l0.6,0.6l0.8-0.8
		l-0.3-0.4l1.7-0.2l0.5,0.8L630,176l-2,1.9l-0.5,0l0.1-0.8l-2.5,1.5l-0.6,1.7v1.3l-0.7,0.8l0.4,0.1l-0.1,0.7l1.4,0l2-2.8l0.8-0.4
		l0.5,0.2l-0.3,1.4l0.3-1.1l1-0.1l-2.2,2.6l-0.3,3.2l-2,4.1l-1.1,4.8l-0.9,1l-0.8,4.8l-0.5,0.9l0,2l-1.4,2.3l-0.6,3.3l-0.7-0.5
		l-0.6,0.1l0-0.7l0.6-0.4l-0.1-1l-0.4,0.1l0.4-1.5l-0.5-0.3l-0.2-0.6l-0.8-0.2l0.2-1l-2.6-0.8l-1-1.2l0.7-0.5l0.3-2l0.9-1.7
		l-0.5-0.5l0.4-1.2l-0.4-1.4l-0.7-0.6l0.2-0.9l-0.8-0.3l-2.3,3.6L611,196l0,0.3l1-0.4l-3.2,5.9l-2.3,0.1l-0.2-0.3l-1.1,0.4l-1.2-0.3
		l-0.9,0.8l-0.9,3l-1.1,1.1l-0.5,2l-1.1,1.4l-1.2,2.9l-1.4,0.8l-0.6,1.4l-1.6,1.3l0.1,1.6l-0.9-1l-0.9-0.4l-0.6-1l-1,0l-1-1.2
		l-1.8,0.4L587.4,216.2z M638.1,119.7l-0.2,0.5l-2,1.2l-1.5,0l-0.6,0.4l-0.9-0.5l-0.5-0.8l1.7,0.6l1.4-0.1L638.1,119.7z"/>
	<path id="MX-SLP" fill="#CCCCCC" stroke="#262A27" stroke-width="0.5" d="M294.3,39.9l1.7,2.3l1-0.2l1.4,0.5l-0.5,1.6l0.7,0.3
		l0,0.3l-1.2,1.6l0.3,0.8l1.8,1.7l-0.1,1.4l2.5,3.1l0.9,2.3l-0.2,4.4l1,1.5l0.1,0.9l-1.1,5.6l0.5,1.3l0.3,4.1l0.6,1.6l1.2,1.5
		l1.5,0.7l2.3-2.8l3.9,0.7l0,0l0.9,1.1l0.1,2.1l1,0.8l0.5,1.1l-0.3,3.6l0.2,3l0.2,0.7l1.1,0.9l4.2,1.4l3.3,0.3l2.2,0.7l0.6-0.4
		l-0.1-1l1-0.6l0.6,0.3l0.8,1.3l1.7,0.6l1.4,1.1l0.8,1.2l0.9,2.5l2.2,2.9l1.8-0.2l2,0.4l2.3-0.1l0.7-0.8l1.9,1.2l2.1-0.5l1,0.2l0,0
		l0.3,0.9l0.5,0.3l2.4,0l4.4,1.4l0.7,0.7l1.2,3.6l-2.5,0l-1.1,0.7l0.3,2.6l-0.3,0.7l-0.4,0.3l-2.2-0.3l-0.3,0.4l0.4,0.4h1.1
		l-0.6,0.5l0.4,0.3l-0.1,1.2l0.6,0.7l0.5-0.1l0,0.5l1.2,1.1l-1.7,0.8l-0.3,0.8l-1.1-0.1l0,0.7h-1.3l-0.2,0.9l0.9,3.3l1.3,0.2
		l0.1,3.3l0,0l-1.7,0l-1.6,1.8l-1.3,3l-0.9-1.3l-1.3,2.4l-1.1,0l-1.3-1.1l-1.1-2.4l-2.3,0.8l0,0l-0.9-0.3l-0.8-1.5l-3.2-3.4l-1-2.2
		l-0.5,0.3l-0.8-0.2l-0.6,0.4l-1.1,2.8l-0.6-0.4l-1.9,0.5l-2.5-0.3l-0.6-0.7l-0.6-1.9l-1.5-1l-1.1,0l-0.2,0.5l0.3,0.5l-1.5,0.4
		l0.6,0.6l0,0l-2.6,1.3l-1.6,0l-0.7-0.8l-0.4,0.5l-1.8,0.2l-1.7-2.1l-0.5,0.1l-0.3-0.7l-3.1-2l-3.9-1.3l-1.1,0.7l-0.6,1.8l0.1,1.1
		l-1.5,0.6l-2.8,0l-2.7-1.4l-5-3.7l-1.1,0l-1.2-0.8l-4.6-1.1l-1.3-0.7l-2.9-0.3l-1.2-0.7l0,0l1.9-4l0.4-1l-0.3-0.2l0.1-0.5l0.4,0
		l0.4-1.6l-1.4-3.9l3.3-7.3l0.2-1.6l-2-2.6l-0.7,0l-1.5,0.7l-4.4,4.6l-2.4,0.7l-2.1,0l-1.5-2l-0.9-2l-1.1-0.6l-2.3-0.3l-1.1-1.3
		l-4.2-2.5l-0.9-1l-0.3-1.5l0.2-1.3l1.3-4l-1-3l0.5-1.7l-0.6-0.8l0.9-1.7l0.7-0.2l2.3,0.9l2.9-0.6l0.5-1.4l0.9-1l2.3-0.8l3.6-2.1
		l3.5-5.1l4.7-1.6l1.1-1.5l1.2-3l-1-1.2L283,51l0.6-0.6l1.9-0.5l1.4-0.9l0.9-1.8l0.2-1.5l0.7-0.5l1.6,0.1l1-0.5l0.7-1.7l1.2-1
		l0.4-1.8L294.3,39.9z"/>
	<path id="MX-SIN" fill="#CCCCCC" stroke="#262A27" stroke-width="0.5" d="M173.1,91.3l0.4,0.1l0.5,0.9l-0.5,0.7L173.1,91.3z
		 M112,25.9l1.2,1.4l0.5-0.2l0.3,0.3l0,0.9l0.6,1.1l-0.3,2.7l-0.5,0l-0.7-2.1l-1.1-1.2L112,25.9z M107.2,23.8l1.4,0.9l3.6,4.6
		l0.7,1.1l0,1.4l-0.4,0.2l-2.7-5.1l-2.8-2.6L107.2,23.8z M106.6,21.5l1.8,1.2l0.2,0.6l-1.7-0.8L106.6,21.5z M85-9.3l1,0.1l0,0
		l0.5,0.4l-0.1,1L86-7.5L87.8-6l-0.4-1.1l0.8-0.6L88-8.3L87.7-8l-0.5-0.2L86.3-10l0-0.7l0,0l-0.1-1.6l0.3-0.2l0.2,1.9l0.4,0.2
		l0.5-0.9l0.8,0.9l0.1,0.8L89-9.8L88.9-9l0.3,0.4l2.9-1.7l1.3-1.2l2-0.6l0.1-2.5l0.5-0.9l4.1-1l2.1-3.9l1.9-0.6l-0.3-2.5l3.1-3.9
		l0.3-1.8l0,0l4.9-0.2l0.7,0.4l0.1,2.9l0.6,0.2l1.2-0.3l1,2.3l-0.4,2.3l0.5,0.8l-0.5,2l0.3,1.1l1.4,0.9l0.1,1.9l3.1,5l1.2,4.7
		l3.8,1.1l3.2,0.3l2.4,0.7l2.9,4.9l0.6,3.2l2.1,2.8l0,0l0.1,0.7l0.7-0.2l0.2,0.7l-1.2,0.8l-1.7,2.2l0.6,0.7l0.5-0.1l0.1,0.7
		l-1.3,3.2l-0.1,5.1l-0.5,2l1,0.6l0.5,1.8L136,27l1.2,2.4l-0.3,1.5l1.2,1l0.5-0.4l2.3,0.2l0.9,2.6l1.3,0.3l1.2,4.5l0.6,0.2l0.6-0.4
		l0.2,0.3l0.8,4.1l1,1.4l0.6,2l0.8-0.2l0.7,0.5l0.7-0.5l1.3-0.2l2.8-2.1l0.7-1l4,1.2l1.5,1l0.9,1.4l1.1,0.3l0.1,1.1l1.7,2.3l0.1,2.2
		l1,0.9l-0.3,0.9l0.8,2.6l0.7,1.1l0.6,2.9l1.1,1.2l0.9,2l1.7,1.6l0.4,2.8l1,2.9l-0.3,0.9l0.7,1.7l1.2,1.3l0.1,2.3l0.6,1.3l2,0.1
		l0.9-0.6l0.6,0.1l2.1,2.2l0,0l-0.8,0.6l-0.6,3.4l-1.7,2.1l-0.3,1l0.5,1.3l1.3,1.3l0.2,1.3l0.4,0.4l0.2,2l-0.4,0.9l-3.5-0.6
		l-2.1-1.2l0,0l0.2-1l-1.5-1.6l0.3-0.6l0.7-0.4l-0.7-0.6l-0.5,0.7l0.5,1.9l0.5,0.5l-0.6,1.7l0.5,1.7l-0.4,0.6l-3.7-5.8l-3-2.9
		l-1.8-1.1l-4.2-5.2l-4.7-4.6l0.4-0.3l1.1,1.3l0.1-0.3l-1.5-1.1l-0.5,0.2l-0.2,0.6l-0.4-0.3l0.1-0.7l-0.7-0.5l-0.9-1.6l0.3-0.4
		l-1.3-2l-2.5-2.5l0.1-0.4l-1.4-1.2l-0.6-1.1l-2.6-1.9l0.4-0.5l-2.2-3.4l-0.2-1.2l-7.5-7l0.9,0.2l0.3-0.4l-0.5-0.3l0.1-0.8l-0.6-0.1
		l-0.2,0.5l-0.5,0.2l-3.8-3l-1.4-0.3l-5-4l-4.6-2.9l0.2-0.6l0.6,0.7l3.1,1.7l0.5,0.7l1,0.1l0.5,0.8l0.6-0.1l0.8,1.1l0.5-0.1
		l-0.5-0.6l0.1-0.7l0.7-0.2l0-0.4l-0.3-1.2l-1.5-2l-1.3,0l0.1,1.4l-1.1,0.2l-1.1-1.4l-0.6,0.5l-1-0.2l-0.2-0.9l-1.6-1.5l-2.1-0.9
		l-0.3-0.5l-0.6,0.4l-1.1-0.5l-0.8-1.1l0.1-1.1l-1.4-1.6l0.6-0.3l1.2,1.2l0.7-1.2l-0.6-0.5l-0.2-0.8l-0.3,0l0.1-0.9l0.5-0.5
		l-0.7-0.3l0-0.5l0.5-0.6l0.1-0.8l-1-0.7l-0.3-1.9l-0.5-0.7l-1.5-1l0,0.5l-0.9-0.2l-1.9-1.7l-0.3-0.8h-1.6l0.1-1.1l-1.3-0.6
		l-0.6,0.8l0.3,0.6l-0.4,0.6l-1.9-2.1l-5.4-2.7l0.5-0.6l-0.4-0.5l-1.3,0.4l-1.5-2.3l0.7-1.3L96,12.3l-1.2,0.4l-0.4-1l-1.3-0.1
		l-0.4,0.2l0.2,0.6l-0.2,0.7l0.5,0.3l-0.7,1.1l-0.5,0.2L92,14.2L91.6,14l0.2-0.4L91,13.3l-1.2,0.2l0.3,0.8l-0.8,0.2l-1.8-2.1
		l1.2-0.2l0.4-0.4l0.1-0.8l0.9,0.9l0.9-0.4l0.2-1l0.7,0.1l0.5-0.5L92,8.8l-1.1,0l-1,0.6L89,11.2l-1.6-0.5l-0.2,0.5l-0.6-0.1L86.2,10
		l-1.7-1.6l-0.5,0.5l1.6,1.2l0.1,0.8l-1.6-1l-2.9-0.5l-0.2-0.3l2,0.3l0.1-2l-0.5,0l-1.6-1.3L80,6.2l-0.4-0.7l0.2-2.7L80,2.7
		l-0.4-1.1l-0.4-0.2l0-0.7l0.7-2.1l0.4,0l0-0.8l2.1-3.4l0.7-2.4l1-1.1l0.3,0.1l-0.2,1l-0.9,0.3l-0.6,2.7l0.4,0.6l0.3-0.2l0.4-1
		l-0.3-0.6l0.2-0.3L84-5.9l0.8-1.7L85-9.3z"/>
	<path id="MX-SON" fill="#CCCCCC" stroke="#262A27" stroke-width="0.5" d="M86-9.2l-1-0.1l0,0l0.1-0.5h0.5L86-9.2z M84.4-9.9
		l0.1-1.5l0.2,1L84.4-9.9z M50.3-38.4l0.6,0.9l-0.2,0.3l1.3,0.6l-0.3,0.4l-1.5-0.9L50.3-38.4z M8.3-91.2l0.5,1.6l-0.3,1.1l1,1.2
		l1,2.6L10-84.3l-0.1,1.4l-1.5,4l-0.1,1l-0.7,0.6l-0.5-0.5l-0.8,0.1l-1.2-1.1l-1.3-0.1l-0.3-0.6l-0.5,0l-0.1-0.4l-2-1.1l1.7-1.2
		l0.6-0.9l-0.4-3.3l0.7-3L4-90.2l1.3,0.2l1-0.9L8.3-91.2z M-50.7-164.1l0.8,0.1l-0.1,0.6l-1.5-0.4l0-0.3L-50.7-164.1L-50.7-164.1z
		 M-54.4-166l1,0.5l0.7,1.4l1.3,0.9l0.5,1.1l-0.3,0.7l-0.8-0.7l-0.7,0.1l-1-0.5l-0.9-0.9l-0.4-1l0.2-1.4L-54.4-166z M96.1-151.7
		l1.1,1l-0.9,1.3l0.5,1.9l1.6,2.8l0.2,1.6l-0.5,1.3l0,1.8l-1.6,0.1l0,0.6l2.7,2.6l0.1,2.4l1,0.9l-0.7,1.6l0.1,0.8l1.1,1.5l-0.1,1.2
		l1.9,6.2l-0.3,1.8l-0.9,0.5l0.2,1l1.4,1.3v1.1l-1.3,2.6l-0.6,4.9l0.3,1l0.6,0l0.8,1l0.7,6.2l0,2.6L103-97l-0.2,0.9l0.3,5.7
		l-0.3,0.5l-1.4,0.7l-0.1,2.7l-1.5,1.3l0.5,2.5l-0.9,1.3l0.8,2.6l-1.5,2.6l-0.2,1l0.8,1.9l-0.4,2.9l1.6,1.8l2.3,0.9l-0.6,1.2
		l-0.9,0.1l-1,1.2l-1.1,0.1L97.7-64l-0.5,0l-1.8-1.3l-0.8-0.1l-1.4,0.9l-2.5,0.5l-1,1.4l0.2,0.6l1.6,1.1l-0.6,2.8l0.4,0.7l1.8,0.7
		l2.1,3l0.4,1.7l-0.7,2.4l0.5,0.6l2.8,1.7l0.6,2.1l1,1.4l1.6,4.1l0,1.7l-1.3,3.1l0.5,3.4l-0.7,0.4l0,0.5l3.5,1.8l2-0.6l1.8,0.4l0,0
		l-0.3,1.8l-3.1,3.9l0.3,2.5l-1.9,0.6l-2.1,3.9l-4.1,1l-0.5,0.9l-0.1,2.5l-2,0.6l-1.3,1.2l-2.9,1.7L88.9-9L89-9.8l-0.5,0.1l-0.1-0.8
		l-0.8-0.9l-0.5,0.9l-0.4-0.2l-0.2-1.9l-0.3,0.2l0.1,1.6l0,0l-0.4,0l-0.2,0.5l-1.3-1.7l0.1-1l-1.4-2.4l-2.3-2.6l-1.4-1l-0.9-0.1
		l1.1,0.2l0.1-0.4l-0.4-0.9l-0.6,0l-0.4-0.8l-0.6,0.2l-0.1-0.6l-0.4-0.1l-0.7,1.1l0.4,0.8l-2.7-0.1L73.7-19l-2.5-1l-1.2-1l-0.9-1.3
		l0-1l-1-2.8l-1.4-1.9l0.2-0.1l1,1.4l0.2-0.9L67.4-28l0.3-0.4L67.4-30l-1.7-1.4l-0.3,0.4l-0.4-0.4l-1.1,1l-1-0.7l-5-1.2l-3.1-3
		l-1.4-0.7l0.3-0.2l-0.4-0.9l0.1-1.3L52.7-39l-0.5,0.4l-0.7-0.5l-0.1-1.3L51-40.5l-0.4-0.8l0.3-2.1l-0.6-1.2l0.2-0.4l-0.8-0.8
		l0.1-0.8l1.4-1l-0.8-0.1l-0.2,0.8l0.2-1.5l0.7-0.4l-0.7-0.1L50-49.8l0.5-0.4l-0.1-0.8l0.4-0.8l0.9,0.2l0.3-0.5l-1-0.8L50.1-53
		l-0.5,0.5l-0.6-0.5L45-54l-0.3-0.8L43.1-54l0.6,0.9L43.4-52l-1.2-0.4l-1-1l0.4-0.6l-0.6-0.1l0-0.7l-1.3-0.3l-1.3,0.8l-1.5-1.4
		l-1-0.3L35-57.4l-1-0.3l-0.7-0.8l-0.2-0.9l-1.1-1.2L32-61.5l-0.7-0.9L31-62.3l-0.5-1.6h-0.4L28.9-65l-0.1-1.4L28-67.1l-5.4-2
		l-0.2-1.1l-1.2-2.6l-4-3.7l-0.5-1.3l0.6-0.1l0.5-0.6l0.5,1.2l0.6-0.4l0-0.9l-0.6-0.5l-0.5,0.4l-0.5-0.7L17-79.2l-1.3-1l-1.2-0.3
		l-0.4-1.1l-1-0.8l-0.3-0.7l-1.9-0.6l0.6-0.7l-0.4-0.8L11-86.6l-0.3-0.2l0.5-1l-0.5-1.1L10.3-89l-0.1-0.6l-0.7-0.1l0.5-1.8l-0.6-1.8
		l-0.6-0.6l-1.3,0l-0.8,0.4L5-94.4l-0.2-1.1l1-2.8l-0.3-0.6l-1-0.5l-0.2-1.2l-1-0.8l-1.7-2.8l-0.9-0.6l-0.6-1.9l-1.1-1.6l-0.3-1.6
		l-1.2-0.6l-0.6,0.2l-0.2-0.3l0.4-2.5l-0.6-1.5l0.1-3.5l-0.5-1.4l-1.9-1.9l-0.1-3.1l-1-2l-2.4-2.1l-2.5-4.7l-0.9-3.4l0.7-2.3l0.1-3
		l0.3,0.1l0.7-1l0.1-1.1l-0.5-2.8l-0.3,0.1l-0.2-0.8l-0.5,0l-2.3-1.4l-0.7-1.1l-0.8,0.7l-3.9-0.9l-0.2-0.4l-0.3,0.2l-2.6-0.5
		l-0.1-0.5l-0.6-0.3l-1.3-0.2l0.2-1.5l-0.6-1.6l0.1-0.8l-0.5-0.9l-1.2-1l-4.3-1.8l-0.1-0.6l-0.4,0.1l-0.2-0.5l-0.4,0.6l-0.8-0.6
		l-0.6,0.7l-0.2,0.6l0.3-0.1l0.2,0.5l-0.7,0.9l-0.7-0.1l-0.4,1.2l-2.8-0.1l-3.1-1.4l-1.4-1.6L-46-161l-0.4-0.6l-0.8-0.2l-2.4-2.3
		l-2.2-0.1l-1.3-0.6l-1-1.2h-0.8l0,0l-3.8-2.8l-0.9-0.1l-1-0.9l0.6-1l-0.2-1l0.4-2.7l-0.3-1.1l0.6-1.8l-1.4-2l1.8-2.4l0.1-1.3
		l0.5-0.5l0.6-2.1l1.3,0l0.5,0.4l0.8-0.5l0,0l93.7,34.2L96.1-151.7z"/>
	<path id="MX-TAB" fill="#CCCCCC" stroke="#262A27" stroke-width="0.5" d="M476.1,204.5l-4.1,1.5l-0.4,0.6l-1.9,0.2L476.1,204.5z
		 M504.2,197.6l1.1,3.7l0.6,0.9l1.4,1l1,0l0.7,1.1l0.5-0.1l0.1-0.4l0.4,0.2l1.1,1.4l-0.2,2l0.5,0.3l1.1,2.6l1.2,1.8l3.5,2.3l0.9,1.4
		l1.3,0.7l1.5-0.1l2.2,1.1l1.3-0.6l1.7-0.1l0.3-0.7l-0.3-1.8l0.3-1.3l2.8-0.1l3.7,0.8l1.6,1.5l1.6,0.7l0.8,0.9l0.7-0.4l4,1.6l0,1.6
		l0,0l-0.2,14.5l-10.6,0.2l0,0l0.5-1l0.8-0.3l-1.1-1.8l-1.3-0.4l-0.2-0.8l-4.3-1.2l0.8-2.7l-1.3-3.3l-2.6-1.3l0-2l-1.1-1.4l-1.2,0.3
		l-1.2-0.2l-0.6,0.4l-0.6-0.3l0.1-0.6l-1.5-0.4l-0.7,1.8l-2,0l-1.8-0.5l0,0.4l-0.4-0.1l-0.1,0.4l0.4,1.8L511,222l-3.3,1.2l-0.6,0.8
		l-5.8,4.3l-2.4,2.3l-1.9,0.8l-0.8-0.3l-0.7-0.9l0-0.7l-1.2-1.9l-0.5-0.2l-0.4,0.4l-1.3,0.1l-0.4-0.3l0.3-1.9l-2.1-2.2l-0.4-0.9
		l0.1-0.6l1.4-2.1l0.3-1.7l-2.8,0.1l-0.8-0.4l-1.4-1.7l-2.1-0.9l-0.5,0.6l-1.7,0.3l-0.8,7.1l-0.6,1.2l-1.2,0.8l-1.4,1.9l-0.1,1.6
		l-2.5,3.2l0,0l-1.9-0.8l-0.4-2.2l0.4-1l-0.2-1.3l-1.1-3.1l-0.4-0.5l-2.5-1l-0.4-0.6l-1.2,0l-1.4-2l-1.4-0.4l-1.1-1l0-3l-0.6-1.5
		l-0.1-2.8l-0.5-0.4l0.9-0.9l0.9,0.5l0.2-0.3l-2.3-0.4l1.9-0.9l0,0l4.5-1.5l0.1,1.2l2.7-0.5l0.6-0.4l-0.3-1l0.7-0.4l1-0.1l0.2,0.4
		l0.8,0.1l1.3-0.2l0.6-0.6l-0.1-1.2l3.3-0.8l0.3,0.7l0.8-0.9l5.4-0.2l0.9,0.4l-0.7,0.6l0.1,0.9l0.8,0l0.8-0.4l0.1,0.3h0.7l0.4-0.6
		l-1.8-0.8l1.1-0.5l2.9,0.3l2.2-0.3l3-1.6l2.3-2.8L504.2,197.6z"/>
	<path id="MX-TAM" fill="#CCCCCC" stroke="#262A27" stroke-width="0.5" d="M372.9,47.1l-0.2,4.5l-0.3,0.1L372.9,47.1z M379.6,20.7
		l0.5,0.2l-2.8,7l-0.3-1.4l0.3-0.9l0.6-0.5l0.1-1L379.6,20.7z M370.9,102l-2,1.4l-1.5-1.6l-0.4-1.1l-1.2-1l-1.4-0.2l-1.6-1.2
		l-1.1-0.4l-0.7-1.3l-2.5,0.3l-0.4,0.7l0.2,0.7l-2,0.4l-0.1-0.6l-0.4,0.2l-0.7-0.6l-1.1-0.2l-4.2,0.3l-1.8,1l0,0l-1-0.2l-2.1,0.4
		l-1.9-1.2l-0.7,0.8l-2.3,0.1l-2-0.4l-1.8,0.2l-2.1-2.9l-0.9-2.5l-0.8-1.2l-1.4-1.1l-1.7-0.6l-0.8-1.3l-0.6-0.3l-1,0.6l0,1l-0.6,0.4
		l-2.2-0.7l-3.3-0.3l-4.2-1.4l-1.1-0.9l-0.2-0.7l-0.2-3l0.3-3.6l-0.5-1.1l-1-0.8l-0.1-2l-0.9-1.1l0,0l0.4-0.8l-0.5-1.4l0.8-0.7
		l3.1,0.4l0.2-1.8l-0.4-2.8l0.3-1l1.5-1.8l0.7-2.8l2.3-1.2l2.5,0.7l0.7-0.1l1.8-1l0.3-1.5l0.4-0.1l2.3,0.5l-0.8-2.3l-1.4-0.8
		l-1.4-3.6l-1.8-2.1l0.9-6.8l-1.3-2.6l-1.8,0.1l-0.2-0.3l0.7-2.1l2-1.4l2.9-1.3l1.3-2.1l1.8,0.1l1.1-1.6l1.1-0.5l0.4-1l0.4-0.1
		l0.4,1.5l1.1-0.5l0.5-1.6l0.9-0.7l0.9-0.1l0.4-1.7l-0.7-0.4l-0.6-2.2l0.3-0.4l1.3-0.4l1.5-2l0.5,0l0.6,1.2l2.8,0.2l0.8-2l1-1.1
		l4.4-0.9l1-1.1l0.8-0.1l1.4-1.4l1.3-0.6l0.6-1.4l1.5-1.6l0-0.5l-0.4-0.3l-2-0.6l-1-0.8l0.4-0.8l-0.7-1.6l0.2-2.1l0.5-0.8l-0.6-1.5
		l0.3-3.3l-0.8-1l-0.1-1.5l-0.7-0.4l-3.4,0.7L346-0.6l-2.7,1.5l-1-0.5L341.2-2l-0.6-0.6l-3.3-0.5l-0.4-0.7l-0.8-0.5l0.9-0.3
		l-0.8-1.3l0.4-0.7l-0.2-0.6l-0.6-0.1L335-6.5l-0.7-0.1l-1.2-1.6l0.1-1l-1.4,0.1l-1.8-2.5l-1.3-4.1l-1.9-0.2l-0.9-1.9l-0.7-0.4
		l-0.9,0.4l-0.8-0.8l0.2-3.2l0.5-1.3l-0.5-0.8l-1.3-0.7l-1.5,0.1l-0.1-1.1l0.8-2.4l1.6-1.4l-0.4-3.2l-1.1-1.1l-0.2-1.4l0.2-2.5
		l-1.3-0.9l1.2-1.4l0-0.9l-4-0.2l-0.6-0.4l0.4-1.1l-0.3-0.8l0.6-0.7l2.8-0.8l1.3-1.7l0.6-0.3l0,0l0.2,0.3h1.3l0.1,0.7l0.7,0.2
		L325-46h0.8l0.7,1.1l0.3-0.3l0.4,0.2l0.7,1.2l-0.4,1.7h0.8l0.4,0.5l-0.3,2.9l-1,2l1,0.1l-0.1,0.9l0.3,0.3l0.7-0.2l0.4,0.6l0.4,1.9
		l-0.4,2l0.3,0.5l-0.5,0.7l0.2,1.2l0.8,0.2l0.8,1.2l-0.3,0.4l0.5,0.7l1.1,0.3l0.4,1.5l0.8,0.3l1,2.1l-0.1,0.8l0.9,1.1l0.5,2.4
		l0.4,0.2l0.1,2.4l1.2,0.6l0.7,1.2l-0.5,1.3l1,1l0.8-0.4l0.8,0.6l0.9-0.2l0.5,0.1l0,0.6l0.8-0.1l0.7,0.6l0.4-0.3l1.9,0l0.3,0.9
		l1.3,0.3l1.5,2l2.4-0.1v0.6l0.3-0.1l0.2,0.4l0.5-0.5l0.9,0.5l0,0.4l1.6-0.4l0,0.7l1.4,1.2l1.3-0.1l0,0.8l0.8,0.8l1.5,0.9l0.8,0.1
		l0.4,0.4l0.5-0.5l0.7,0.6l1.7-0.5l0.4,0.7l0.7,0l0.1-0.5l1.3-0.2l0.4,0.4l2.6-0.3l0.7,0.4l0.7-0.4l0.4,0.2l-0.2,0.5l0.8,0.2l2.9,0
		l1.1,1.9l0.5-0.1l0.5,1l0.4-0.3l0.7,1.4l1.9,0.6l-0.2,0.3l0.6,0.4l1.5-0.3l-0.1-1.7l0.7-0.6l0.5,0.3l0.2-0.4l0.9,0l0.1-0.5l1.6-0.3
		l1.4-0.1l0.3,0.3L386.8,6l-1,3.8l-5.7,11.1l-0.8-0.3l1.8-3.1l-0.7-0.6l0.5-0.6l-0.4-0.6l-1.1,0l0.2-0.5L378,15l-0.6-0.8l-1,1.1
		l0.7-0.1l0.7,1.1l0.2-0.2l0.3,1.1l-0.3,0.3l-0.2-0.5l-0.6,0.2l-0.4,0.8l0.3,0.2l0.3,1.2l-0.8,0.3l-0.3-1.4l-0.8,0.6l-0.4-0.6l0-1.1
		l-1.8-0.2l0.1,0.4l-0.9,0.8l0.5,0.8l-0.3,0.9l-0.5,0.1l-0.9-0.6l-0.2,0.6l0.6,0.1l0.7,0.9l0.3-0.2l0.6,0.3l-0.2,0.8l0.9,0.7
		l-0.8,1.1l0.1,1.3l-1.3,2.9l0.4,0.5l0.7,0l0.4,0.7l0.9,0.2l-1.5,1.1l-0.2,1l-0.4,0.1l0,0.7l0.6,0.4l0.1,0.8l-0.5,3l0.4,0.1l0.3,0.8
		l-0.9,4.2l-0.5,0l-0.3-0.5l0.1-1.4l-1,0.3l-0.9-0.6l0.2,0.9l-0.7,0.4l0.4,0.6l-0.3,1l0.9,2.2l0.4,0.2l-0.2,0.7l0.6-0.1l0.1-1.6
		l0.8-0.7l0.2,3.2l-0.7,6.4l-0.3,0.5l-0.2-0.1l0.3-0.6l-0.6-0.1l0,0.5l0.9,0.4l0,7.1l0.9,0.5l0,0.4l-0.4,0.3l-0.3,2.1l0.2,0.7
		l0.3,0.1l0.1-2l-0.3,0l-0.1-0.7l0.5-0.3l-0.9,9.6l0.3,11l-0.2,3.6l-0.5,0.6l-0.4,1.9l-1.3,1.5l-1,2.1l-0.2,1.2l1,0.7l0,2.8l-0.4,0
		l0,1l0.6,2l0.5-0.1l1.2,2.7L370.9,102z"/>
	<path id="MX-TLA" fill="#CCCCCC" stroke="#262A27" stroke-width="0.5" d="M361.6,170l2.1,0.4l0.6-0.2l1.5-1.8l0.5,0.1l0.7,1.1
		l4.1,3.4l-0.1,1.7l0.8,0.2l1.5-0.5l0.6,0.4l1.2,1.2l0.3,1.2l0.7,0.6l0.9,0.2l-0.3,1.2l-0.8,0.5l-2.7,0.5l-0.8-0.3l-1.4,2.3
		l-1.2,0.8l-0.8,0.1l-1.5-1l-0.6,0l-3.1,2.7l-0.9,0.1l-4.1-2.2l-1.2-1.3l-0.5-1.4l-1.3-1.4l-3-2.3l-1.2-0.4l-0.7,0.3l0,0l-0.5-0.6
		l-0.8,0.3l-1-1.8l0,0l5-1.7l1,0.2l2.1-0.3l1.5-1.2l0.8-1.5L361.6,170z"/>
	<path id="MX-VER" fill="#CCCCCC" stroke="#262A27" stroke-width="0.5" d="M380.7,122.6l-0.7,2l-0.8,1l-0.1-1.5L380.7,122.6z
		 M373.3,112.1l1.7,3.6l-0.5-0.1l-1-1.6L373.3,112.1z M375.4,113.1l1.9,2.4l5.3,4.9l-0.7,3.1l-1.7,4.1l-0.5,0.5l-0.2-2.1l1.8-3.4
		l-0.1-1.3l-1.8-1.6l-1.3-2l-2.8-3.1l-1.5-3.7l-0.5,0.1l0.1-0.8L375.4,113.1z M348,98.7l1.8-1l4.2-0.3l1.1,0.2l0.7,0.6l0.4-0.2
		l0.1,0.6l2-0.4l-0.2-0.7l0.4-0.7l2.5-0.3l0.7,1.3l1.1,0.4l1.6,1.2l1.4,0.2l1.2,1l0.4,1.1l1.5,1.6l2-1.4l0,0l0.6,5.4l1.7,4.5l-0.1,1
		l-0.4,0.2l0.6,1.4l0.4,3.3l0.8,0.9l0.1,1.1l1.8,3.3l1.5-0.3l0.5,0.8l-0.4,1.3l0.5,1.7l1,0.8l0.1,1.1l0.5,0.2l0.7,2.9l4.7,9.9
		l0.6,2.9l0.8,1.4l4.2,4.1l0.7,1.2l5.9,6.4l3.5,4.4l0.6,1.4l2.6,2.9l1.2,3.3l0.1,2l0.6,1.1l-0.1,1.1l1.5,2.1l-0.2,1.8l0.7,2.6
		l1.7,1.3l1.2,0.5l0.2,0.7l1,0.5l1,1.4l-0.3,0.6l0.2,0.9l0.8,0.7l2.4,0.3l0.3,2.5l0.7,1.8l0.9,0.9l3.5,1.7l0,0.7l-2-1.4l-1-0.1
		l-0.1,0.3l0.5,0.1v0.6l0.8,0.3l0.3,0.6l-0.1,0.2l-0.7-0.3l-0.3,0.3l0.2,0.5l1.2-0.1l-0.1-0.7l0.9-0.3l0.6,0.3l0.2-1.2l1.8,1.2
		l2.7,0.7l9.5,0.2l3,2.4l0.6,1.2l2.2,0.6l3.3,0.3l0.5,0.4l0.6,1.8l0.8,0.8l0.1,0.7l2.8,2.8l0.6,2.4l2.7,1.3l3.8-0.4l7.3-1.8l0,0
		l-1.9,0.9l2.3,0.4l-0.2,0.3l-0.9-0.5l-0.9,0.9l0.5,0.4l0.1,2.8l0.6,1.5l0,3l1.1,1l1.4,0.4l1.4,2l1.2,0l0.4,0.6l2.5,1l0.4,0.5
		l1.1,3.1l0.2,1.3l-0.4,1l0.4,2.2l1.9,0.8l0,0l-3.7,2.9l-2,0.9l-0.9,1.1l0,0l-28.6-1.8l0.3-1.4l-0.6-0.6l0-1l-3.5-2.8l-3.4-4.4
		l0.2-1.1l1.5-0.7l0.2-0.7l-1.4-0.8l-0.4-0.1l-1.2,1.1l-3.7,0.9l-3,2.1l-2.9,0.2l-1.3,0.7l-2-0.6l-2.2-4.4l0.2-1.2l-0.3-0.7l0.7-0.7
		l1-2.6l0.8-1.1l0.2-1.3l-1-3.8l-0.5-0.4l-2-0.5l-1.2,0.2l-1.4-0.5l-2.5,0.8l-0.7-0.4l0.5-0.9l-1.4-0.1l-1-1.9l-1.4-0.8L406,206
		l-2-1.6l-0.6-0.9l-0.6-2.7l0.6-1.3l-1-0.4l-1.2-1.1l-0.7,0.6l0,0.9l0.5,0.7l-0.3,1l-1.2,2.2l0,0l-1.8-2.2l-2.6-0.8l-1.4,0.8l-1,1
		l-1.4-0.1l-1.9-3.1l0.2-0.8l-3.8-1.1l-0.8-0.7l-0.4-1.1v-3l1.9-2.4l0.1-0.5l-0.5-6.1l0.2-0.9l4.8,0.2l0.5-0.1l0.2-0.7l-0.1-1.3
		l-0.5-0.6l-2.9-1.3l-3.6-0.8l-1.4-1l-0.3-0.4l0.6-1.4l-1.4-3l0.2-0.7l0.6-0.2l1-2.6l0.7-0.9l0.3-1l-0.3-1l0.2-0.8l1.7-4.3l2.2-3
		l-0.1-0.5l-7.1-2.5l-0.8,0.7l-1.2,2l-1.6,1.4l-0.6-0.2l-0.9-1.8l-2,0.2l-0.7-0.5l-0.5-2.4l-0.1-4l1.2-0.8l1.6,0.9l1.5-2.5l-0.5-1.1
		l-2.2-1.2l-0.8-0.8l-0.2-0.9l0.4-0.8l-0.8-0.6l-0.9,0.2l-0.2-0.3l1.2-0.8l0-1.8l-2,0.3l-1.2-0.4l-0.3,1l-0.9,0.9l-0.1,0.8l-1,0.8
		l-0.7,2.6l0,0l-1.5-1l-0.8,0.4l-2.1,2.3l-1.6,0.7l-1.9,2.2l-2.5,1.1l-1.3,1.5l-0.5,0.2l-0.9-1.1l-1.2-2.6l0.3-2.1l0.6-1.3l0.3-3.7
		l0.6-0.5l0.3-0.9l2.4-2.2h0.5l1.3,1.4l1.5-0.2l0.3-0.6l-0.6-1l0.6-2.2l1.9-2.5l-2.5-3.4l-2-0.6l-0.9,0.9l-1.3-0.1l-1.3-0.7
		l-1.8-1.7l0.3-2.7l-0.3-0.8l-0.9-0.2l0,0l-0.1-3.4l-1.3-0.2l-0.9-3.3l0.2-0.9h1.3l0-0.7l1,0l0.3-0.8l1.7-0.8l-1.2-1.1l0-0.5
		l-0.5,0.1l-0.6-0.7l0.1-1.2l-0.4-0.3l0.6-0.5h-1.1l-0.4-0.4l0.3-0.4l2.2,0.3l0.4-0.3l0.3-0.7l-0.3-2.5l1.1-0.7l2.5,0l-1.2-3.6
		l-0.6-0.7l-4.4-1.4l-2.4,0l-0.5-0.3L348,98.7z"/>
	<path id="MX-YUC" fill="#CCCCCC" stroke="#262A27" stroke-width="0.5" d="M627.6,122.5l0.3,5.3l-0.1,0.8l-0.9,0.9l-0.5,3.2l1.3,3.2
		l-0.1,1l-1.1,2l-0.5,2.5l-0.9,1.1l-0.3,1.6l-0.9,1.2l-1.7,0.8l-3.1,2.7l-3.1,1.8l-1.5-0.1l-1.5,0.4l-1.1-1l-1.2,0.6l-1.5,2.8
		l0.3,2.2l-0.4,0l-0.9-1.7l-1,0l-0.5,0.4l-0.8,2.4l-0.5,0.5l-5.5,2l-1.8,1l-1.9,1.6l0.3,0.7l-0.3,0.3l-1.1-0.9l-1.9,1.8l-1.2,0.4
		l-2.4,0l-2.4,1l-1.4,1.4l-3.5,0.2l-0.6,0.5l0.2,0.9l-0.3,1.5l-0.9,2l0,0l-0.4-0.5l-0.8-3.4l-3.2-3.6l-1.2-2.5l-3.8-2.1l-2-4.5
		l-1.8-1.2l-0.6-1l0.1-0.9l-1-1.8l-0.4-0.3l-0.8,0.7l-0.4,1l-0.5,0.1l-0.9-1l-1.1,0.3l-0.4-0.2l-1-2l-4.1-0.5l0.2-7.3l0,0l0.1-1.4
		l0.6-0.6l0.7-1.7l-0.2-0.5l-0.3,0.2l-1.1,3.4l-0.6,0.5l0.3-1.6l1-3l1-1.4l5.6-3.5l2.5-0.6l2.1-1.3l0.9,0l0.3-0.5l1-0.3l2.9-0.7
		l0.1,0.4l0.6,0l-0.1-0.3l0.7-0.4l4-0.7l16.6-2.2l5-1.9l0.6-1.4l5.5-1.2l3.2,0.3l1.3-0.4l2.3-1.5l2.1,0.5l-0.2,0.4l1.7,0.6l3.6,0.3
		l0.5,0.8l1,0.6l2.2,0.1l1.9,0.5l0.4-0.4l-3.8-0.9L627.6,122.5z"/>
	<path id="MX-ZAC" fill="#CCCCCC" stroke="#262A27" stroke-width="0.5" d="M246.9,26.5l0-1.6l0.6-0.5l5.4-1.1l9.4,0.6l2.5,1.7l2.5,1
		l2,1.7l2.2,3.1l1.5-0.4l1.2,0.3l0.6,3.6l2.8,0l0.9-0.9l2.3-0.5l3,0.4l1.3,0.8l1.9,3.8l1.4,1.3l2.1,0.8l1.4-0.4l0.2-0.8l0.8-0.3
		l2.1,0.5l0,0l-0.5,0.4l0,0l-0.8,0.4l-0.4,1.8l-1.2,1l-0.7,1.7l-1,0.5l-1.6-0.1l-0.7,0.5l-0.2,1.5l-0.9,1.8l-1.4,0.9l-1.9,0.5
		L283,51l-0.8,3.5l1,1.2l-1.2,3l-1.1,1.5l-4.7,1.6l-3.5,5.1l-3.6,2.1l-2.3,0.8l-0.9,1l-0.5,1.4l-2.9,0.6l-2.3-0.9l-0.7,0.2l-0.9,1.7
		l0.6,0.8l-0.5,1.7l1,3l-1.3,4l-0.2,1.3l0.3,1.5l0.9,1l4.2,2.5l1.1,1.3l2.3,0.3l1.1,0.6l0.9,2l1.5,2l2.1,0l2.4-0.7l4.4-4.6l1.5-0.7
		l0.7,0l2,2.6l-0.2,1.6l-3.3,7.3l1.4,3.9l-0.4,1.6l-0.4,0l-0.1,0.5l0.3,0.2l-0.4,1l-1.9,4l0,0l-0.8,0.9l-1-0.6l0,0l-0.3-0.4
		l-2.1-0.8l-2.7-2.4l-2.1-1.1l-3.5-0.9l0,0l-1.1-2l-0.6-2.4l-4.4-2.6l-1.3-1.3l-0.8-1.4l-0.7,0.2l-0.4,1.3l-1.2,0.9l-3.5,2l-1.8,0.4
		l-1.1,0.7l-0.9,3.2l-3.3,4.6l-1.2,2.9l0.1,1.2l2.3,2.3l0,0l-0.1,2.2l0.6,1.9l2.8,1.8l-0.5,2.7l-1,1.3l-2.3,1.4l-3.6,2.9l-1.5-0.5
		l-1.4,0.5l-0.6,0.5l-0.3,2l-1.5,0.5l-0.1,0.4l-1.7-0.4l-1.3,0.3l-0.2,0.6l-0.9-0.1l-1,0.5l-2.9-1.6l-2.3,0.2l-0.9-0.5l-0.8-1.7
		l-0.8-0.8l-2.5-0.6l-0.2-0.5l4-1.8l1.2-1.1l0.1-1l-0.3-0.6l-0.7-0.1l-1,0.5l-0.9-0.5l-0.9-2.5l1.8-0.5l1.6-1.9l0.3-2.5l-0.2-1.8
		l2.9-2.1l1.8-1.7l3.3-1.7l1.3-0.2l0.7-0.7l1.2-2.9l0.7-3.5l-0.5-0.4l-2.1-0.1l-0.5-0.4l0.8-1.5l-0.4-0.9l-2.2-0.2l-1.9,0.7
		l-0.3,1.9l1.2,1l-2.4,1.9l-0.9,1.7l-0.9,0.4l-0.7-0.5l-1.3-0.2l-0.7,0.8l-1.9,0L223,107l0.1-0.4l3.8-6.2l0-1.2l-0.6-1.9l-1.4-1.3
		l-1.4-0.5l-3.4,0.7l-0.6,0.6v7l-0.4,1.2l-1.2-0.2l-1.2-1.8l0-3.3l1.7-4.2l1.5-1.9l1.1-0.8l0.2-0.9l-1.8-1l-2.7,0.4l-2.2,1.5
		l-0.1,0.8l1.7,3.8l0.2,1.4l-1,1.2l-1.8,1.1l-0.3-0.5l1.1-3.2l-0.5-0.4l-3.1,1.2l-0.4,3l-1.3-0.3l-1.1,1.2l0,0l-0.7-0.4l-0.4-1
		l-0.2-2.8l0,0l1.2-3l1-1.5l3.2-1.4l0.3-0.6l0.2-5.5l-0.9-3.1l0.1-1.3l1.4-2.7l0.6-0.4l1.3-5.8l0.1-1.9l2.3-2.9l2.8-2.4l-0.9-4.3
		l0.4-1.2l-0.4-1.9l0.3-1.7l-0.4-1.7l-0.8-0.5l0.2-1.3L221,52l2.3-2.1l2.1-2.8l2.4-1.8l0.5-1.3l1.7-1.4l3.9,0.3l2.2,0.7l2.3-0.8
		l1.1,0.1l1,0.7l2.7,0.9l0.8-0.9l1.7,0.2l6.1-0.6l0.1-0.7l-0.5-0.4l0-0.4l1-0.5l-1-4l-1.2-0.5l0.8-4.9l-0.8-0.9l-1.5-0.7L248,29
		l-0.8-0.3l0-1.6L246.9,26.5z"/>
</g>
</svg>
